<svg id="Layer_1" data-name="Layer 1" xmlns="http://www.w3.org/2000/svg" viewBox="0 0 196.8 63"><defs><style>.cls-1{fill:#1e6dc1;}.cls-2{fill:#fcd922;}.cls-3{fill:#fcd924;}.cls-4{fill:#2572c3;}.cls-5{fill:#fcda29;}.cls-6{fill:#2c76c4;}.cls-7{fill:#fcd40c;}.cls-8{fill:#2371c3;}.cls-9{fill:#fcd71c;}.cls-10{fill:#1467be;}.cls-11{fill:#fcd50f;}.cls-12{fill:#fcd616;}.cls-13{fill:#c8dbef;}.cls-14{fill:#0e63bc;}.cls-15{fill:#fdf9e2;}.cls-16{fill:#fce157;}.cls-17{fill:#629ad4;}.cls-18{fill:#78a8da;}.cls-19{fill:#e5edf7;}.cls-20{fill:#fcd618;}.cls-21{fill:#4f8cce;}.cls-22{fill:#4184ca;}.cls-23{fill:#fdf2ba;}.cls-24{fill:#2673c3;}.cls-25{fill:#fcde41;}.cls-26{fill:#fce987;}.cls-27{fill:#a9c7e7;}.cls-28{fill:#397fc9;}.cls-29{fill:#fcdc36;}.cls-30{fill:#fefefe;}.cls-31{fill:#fff;}.cls-31,.cls-32{fill-rule:evenodd;}.cls-32{fill:red;}.cls-33{fill:#333;}</style></defs><title>unite-together4</title><g id="Layer_6" data-name="Layer 6"><path class="cls-1" d="M7.4,24.09l9.18-5L26.08,15s5.49-2.7,7.06-2.47,4.44-1.43,5-1.47,7.4,1,8.75-.26,12.5-2.55,12.5-2.55L70.25,5.64l9.29-1.26L82.84,7s3.88,3.18,4.74,2.71,1.62,3,1.62,3l-2,2.52s-5.09.69-5.33,1.15-3.42,1.24-3.42,1.24L72.57,19l-6.42,1.19L60.86,21.5,48.13,27.27,30.07,32.86l-7,1.85-4.64-.17L15.55,30.9l-2.4-2.69L9.76,26.08l-4.13.59L4,25.55Z"/></g><g id="Layer_7" data-name="Layer 7"><path class="cls-2" d="M76.36,25.53c3.27-.42,6.68-.83,9.78.29a7,7,0,0,1,3.45,2.49,4.26,4.26,0,0,1,.48,4.11c-1,2.07-3.57,2.67-5.83,3L63.49,38.63c-2.46.38-5.05.82-6.93,2.45-1.28,1.12-2.08,2.68-3.22,4-1.82,2-4.39,3.18-6.89,4.26q-8.7,3.77-17.51,7.26c-1.75.69-3.9,1.31-5.34.12-1.18-1-1.29-2.69-1.71-4.15a8.8,8.8,0,0,0-8.82-6.13c-1.18.09-2.56.36-3.41-.46s-.49-2.61.54-3.4C12.47,40.87,15.45,40.11,18,39c2.85-1.27,5.76-2.4,8.71-3.43a150.9,150.9,0,0,1,18.09-5C55.24,28.3,65.81,26.91,76.36,25.53Z"/></g><g id="Layer_5" data-name="Layer 5"><path class="cls-3" d="M18.36,54.86c-.2,0-1.31-1.12-.59-1.47-4,.56-.74-.37-2.2-.82a7.78,7.78,0,0,0,3.84-1.34c-5.23,1.44.09-.28-3.16-.38.95-1.15.43-.23-.07-2.53.42-.85-1.23-1.14.09-1.64,2.23-.41.08.11.29,1,.79.28.22,1.28.74,1.17.69-1.54,2.12-.4,5.61-3.15,2.35-2.33-4.44,2-4.51.84,5-2.4,1.08-2.06,5.73-2.64.75-.93.85-1.62,2.31-1.31.86-1.42,2.51-1.46,4.17-1.6-.24-.1-.82-.49,0-.59,2.69-1.13-1.84-.46-2.8.62-2.34.56-12.63,5.8-4.48,1.31-2.29.45,0-2.28,1-2.48.79.85.62.27,1.17-.42,1.54.65.12-.33,1.14-.21.8.58,1-.29,2.93-.54,1.86-1.62,3.76-.89,2.51-2,9.72-2.57,19.21-4.82,2.54,1,1.59,0-1.39.55-2.66,2.06,5.38-2,11.13-4,16.34-5.6,7.63-.5-1.91,1.63-3.81,2.25,1.22,1.84-.46.53,3.26.13-.22-1.63,1.91-1.36,2.41-.24.59.52-.54-1.2.61-1.06,3.56.46-.11-.56,3.73-.83.48.41,1.19-.67,1.64-.23s0,.1.53-.32c2.91-.57,4.45.36,4.71-.71.23-.42,1,.12,1.37-.22.22-.52,1.37-1.08.91,0a.76.76,0,0,0,.82,0C63,32,67.3,31.93,68,31.38c.52.5,1.15-.12,1.62.3-.06.42,0,.41.53.56.41.85-.92-.32-1.77,1.07.74.11.89.81-.53.95.61.12,3.39-.21,3.11-.74-.19.11-.9-.27-.27-.37,2.16-.21-.42-.89,2.22-1.7,0-.56-1.87.74-1.31-.62-.18-.27,13.34-.91,9.14-2.17-1.15.32-9.45,1.83-9.64,1.26.31-1,11.55-1.28,9.64-2.06-.58,0-9.86,1.71-6.32.37,14-3.76,7.69.21,13.16.94-1,0-.49.23-.25,1.15-.1.47-1,3.35-1.82,1.88,1.29-.88.28-1.23-1.2-.77.17,1.78-4.66,1.46-1.86.57A.86.86,0,0,0,82,32c-1.88-.07.83,1.2-2.6,1.94.53.28,2-.28,2.63-.06-.75,1-2.46.41-3.62,1.25-.43.5.51.53.57,1.07.14.36-2.23.59-2.6,0,2.31-1,.47-1.25-1.5-.19-1.83,1.36,3.47.05,1.4,1.24a14.16,14.16,0,0,1-1.42.38c-.78.2.41,1.2-1.24,1.13-1.8-.44.22-1.21-.63-1.35A86.46,86.46,0,0,0,61.8,39.26c-.83.09-4.61.84-3.41,1.58,2.29.52,1.79-1.11,3.92.78.32.43-2.28.6-3.86.67.2.33-.6.6-.32.77.4-.06.73.22.15.6,2,.69-.51.39-1.36,1,.07,1.15,1.55-.67,2.24-.19-.08.41-.82.52-1.27,1-1.31.61-1.31,1.43-2-.15-.22-.09-1.19.7-1.69-.5.22,0,2.65-.25.72-.64,0,.12-1.75.08-1.7-.65.62-.22,1.6,0,2.26-.51-.48-1.46-2.94,1.54-2.28-.59-.11-.43,3.75-1.36,3.61-.65.15.21-1,.27-.41.34a.87.87,0,0,0,.6-.42c.39-.51-2-.51-.77-1.11,2.35-.89-22.3,5.32-12.55,4.42C40,48.37,41,43.57,39.31,46.7c-1.11,0,.24-1.66-1.5-.51-5.54,2.44,1.7.94-5,3.23.52-1.38-.88-.6-2.1-.08-.57.46,2.82-.85,1.87.72-.77,0-1.85-.57-2.56.35-.32.87.63.49.67,1.05A62,62,0,0,1,24.75,54c-1.79,0,.64-.72.28-.82-1.73,1.33-1.76-.8-3.24,1,1.63.17-1.58.72-2.7,1.41-.36,0-1.05,1.31-.84.25C18.69,55,24,52.43,18.36,54.86Z"/><path class="cls-4" d="M14.44,35.84c-1.63-1.23.79-1.61-2.57-1.31.4-1.23.27-.74-1.29-.31-.36.1.44-1.42,1.29-1.53-.93,1.67,2.59-.11.75,1.47.26-.2,1,0,1.24-.55-1.37-.21,1.47-1,1.72-1.46-.56.15-1.35.88-2.13.43.67-1.78-1.67.55-2.07-.2-.56-1.28,1.9-.36,1.55-1.42-2.26-.08.69.08-1.11-2.92.21-.84,1.6,1.21,1,1.4.47-.35.28.84.56.15s4.27-1.92,3.38-.35c1.82-.68.48.79-1.38,1.58C21.76,29.15,16,29.06,17,28c.84-.54,2.16-.89,2.64-2-.16-1-2.81,1.58-4.16,1.43-.29,0-1.56.72-.31-.39,1.51-.14,2.12-1.59,3.61-2.2,1.83,1.05,1.45-.63,2.71-1.5,8.26-2.66,15.84-6.6,25-8.71.79,0,4.21-1.12,3.74-.4-.4.49-4.93,1.64-3.55,2.12,1.57-.7.1-.62,1.83.12.63.13-.38-1.27,1-.73.45,0,2.78-.92,3.08-.14-.06-1,.09-.1,2.71-1,.82.41,2,.52,2.09-.53a9.58,9.58,0,0,1,1.19.22c.37-.82,5-1.57,7-1.73.1.18,2.1,1.77-.23,1.27-1,.42,1,1.32-1.26,1.55,5.21-.51-.09-1.26,3.42-1.33.88-.35-1.06-.84,1.64-1.37,0-.88-1.7.6-1.53-.4-.48-1,11.81-.8,9.78-2.41-24.7,4-14.48,1.61-.24-.79-1-.24-9.66,2-8,.52C72.92,8.55,77,7,79.78,7.82c1.45-1.49,1,.14,1.77,0s1.07-1.45,1.5-.59,1.43,0,2.27-.1c.14.83,1.67.16.21,1.46.72-.19.83.38,1.43.64,5.08,0-2.67,1.13-3.93,1.09-.87.15.09.25.3.79-1,1.48-3.43.8-5.21,1.81-2.6-.06.29.74-1.08,1a5.07,5.07,0,0,0-2.17.46c.59.89-2,1.55-.44-.31-.67,0-1.11-.86-2-.56,1.32,1.37-4.51.16-3.52,1.92.3.25,1.77-1.18,2-.27-.7.75,1.5-.1-.4,1.19.41.48.07.85-.4,1.11.48.11.16.67-.38.3-1.51-.16,2.68,1.29.12,2-.61.3-3.44-.79-.81-.93.1-.09.66,0,.2-.4a55.59,55.59,0,0,0-15,2.84c.23,1.11.79,2.66-1.39,2.77-2.35.62-.48-.08-2-.52-.39,0-2.08.45-1.29-.31.5-.31,4.82-1.11,2.61-.12.38.2,1.63-.5.7-.93-.37.27-1.27-.41-.54-.49,2.5-1.08-4.71,1-5.71,1.31-3.58.64-.36-.66,1.09-.94-2.6-.19-2.8,1.07-5.29,1.25-.72.22.78.52-1.18,1.29-1.78-.27-6.46,2.54-1.75,1.31.11,0,.45,0,.18.44-4.41,2.31-1.2-.75-4,.67-.86,1.39-.32-.27-1.38,0,0,.25-1.13.22-.55.72,1.13.06.83.75-1.17,1.78-1.12,0-2.16-.14-3.25,1-1.25.7,1.09-2.24-2.62.14.38-.42,3.05-.63,1.82.54-.87-.66-3.79.31-1.64,1.12-.48.93-1.25.78-2.17.42.75,1.19-7.2,3.75-3.29,1.37-2.89,1.52-1.41-.54-3,.53,0,1.31-.17.42-1.69,1.62-.71-.37-2.49,1.39-1.55-.21-.27-.26,2.88-1,1.6-1.11C14.39,35.39,14.94,36.77,14.44,35.84Z"/><path class="cls-5" d="M87.85,29.05c-5.91.21,1.28-4.19-12-1.22-.57.24-3.47,1-1.52.9s6-1.41,6.78-.6c-3,1.28-7.85.55-9.9,1.87,3.24-.08,6.7-1,10.06-1.35,2.62,1.14-5.92,2-9.5,2.14-.63,1.47,1.16-.36,1.43.91-3.08.22.31,1.12-2.66,1.69,1.71.19.78.24-.91,1.07-.14-.26-2.92.09-1.65-.26.2-.11.9-.06,1-.59-.33-.28-1.17.18,0-1,2-.25,1.33.35.51-1a46,46,0,0,0-5,.72c-.85.32,1.25.67-.26.83-1.1.33.16-.76-.88-.63-1,1.58-1.16-.3-2.13,1.26-1.8,0-3.93-.16-4.82.73-.56-.77-.5-.05-1.47.11-.8-.11-2.24-.11-2.17.85-.57.3-2.79-.87-2.21.7.11,1.15-.34-.53-2-.7-1.64,2.15.31.31-3.34,2-1.67.12.81-.72-1-1,1.86-.53,3.9-1.26,6-1.66,5.13-3.46-18.28,5.33-18.33,4.85,5.42-4,13.66-4.89,20.47-6.94a72.12,72.12,0,0,1,18.38-5.31c2.44-2.57,8.84-2.11,11.44-2.65-1.19-.34-2.4.1-3.7,0-.12-.88,2.58-.49,3.45-.74.89-.93,2.2-1,3.8-1.07.64-.14,3.45,1,2.54,1.88.24.14,1.77.42,1.4,1,1.28-.44,1.33,0-.15.79,1.09-.44.47-.51,3.57.39-3,.24,1.67,1.33-1.48,1.82,1.46.51.41,2.5.19.88,0-.2-.07-.19-.72-.07-4.81.54-3.86-.37-.15-.64A21,21,0,0,1,87.85,29.05Z"/><path class="cls-6" d="M68.9,10.5c-2.39.57-6.28.83-6.51,1.58C67.31,11.54,73,9.72,77.72,10c.52,1.13-8,1.76-10.13,1.8,0,1.44.32.23,1.45.51.92.77-1,.23-1.4,1,.91,1.27-2,.42-1.19,1.12,1.76.63-5,1.46-1.89.67,1,.2-.3-1.64,1-1.39,2.06.06-.32-.33.2-1.22-1,.67-.66,0-2,.12-1.57.44-3,.78-4.63,1.15-.45.5-.4.65-1.6.34s1.52.88-2,.81c-.14-.86-3,.88-3.29.43-.62-.38.16.29-3.43.46-.59.55.81.67-.46.75-1.74-1.37-.7.45-2.14-.3.61-1.35,2.65-1.11,4.08-2.18C38.72,15.56,27.38,22,28,20.65c3-3.16,19.67-6.65,22.1-7.42,1.39-.05,1.25-1.6,2.92-1.47,4.49-.89,8.31-3,13.07-3.23,3.67-2,5-2,8.3-2.36.61-.06,2.72-.27,1.17-.43-1.23-.07-.19,0,.25-1.7,2.41.58.44-.93,3.22.4,4.11-1.46,4.5,1,7.62.88.66,1.16-2.72-.3-2.18.57.3.42,1.53.24,1.21.94,3.82-.76-2.82,2-2.84.16-.32-.22.15.63-1.43,1-1.87-1.63-.12.33-2.7-.36a48.53,48.53,0,0,0-9.62,2C68.53,9.84,70,10,68.9,10.5Z"/><path class="cls-7" d="M56.6,47.67c-11.63,2.22-25.84,6.44-37.37,13-1.06.61-1.82-1.57-.54-2.32-1.44,0,2.35-1.71,4.48-2.34-2.84-.72,1.38-2.15,3.15-1.21C28.5,53.69,40.78,48.25,40.39,50c-3.4,1.6-8.28,2.63-10.74,4.64C34.08,53.46,38.08,51,42,50.4c.81-.62-.23.21-1.32-1.7-1.76.72-.85-.81,1.17-1.05.34-.38,1.91-.5,2.64-1.23s-.73.11-.52-.53c1.26-1.49.57,1.41,4.93-.88-1.15.39-.51-1.18-1.23-1.12-1.29-.21,2.08-2.12,1.92-.09,1.41-1,3.31-.27-.2,1.33.82.54,1.49-.79,2.35.25a20.61,20.61,0,0,1-2.86,1c0-.64-.94-.44-.63.33,6.39-.51-2.81,1.87-4.35,2.34,2.26-.2,5.3-2.3,7.05-1.27,1.33-1,2.64-.92,4.39-1,.42-.16.78-1.15,1.18-.3.76.44-1.46.58-.88.92C55.87,47.44,56.87,46.72,56.6,47.67Z"/><path class="cls-5" d="M32.07,36.83c2,.51-1.66.87-1.72,1.41-.46.73-1.49.57-2.07.62,0,.52-1.19.88-1.8.35-.62-.22.65,1.12-1,.27-.46,1.74-3.29.31,2.09-1.53,2.09-1.38-3.65.3-4.64,1.17-5.95,1.75-5.1,3-6.65,2.05a9,9,0,0,1-3.07,2.24c-1.17.81-2.5.33-3.36,1.44-2.75.68,2.71-2,2.07-2.08C10,43.83,8.33,44.88,6.46,46.11c2.57-.59-2,1.84-.24-1.5,2.88-1.11,1.25-1.87,4-2.26-2,1.87,3.64-1.33,4.55-1.8,1.47-.75,1.75-1.21-.27-.57-1.63-.64,2.12-1.14,4-2.31,2.5-1,4.78-2.59,7-2.28,4.19-1.44-1.27-.11,2.34-1.72,1.69-.19,11.93-5,11.09-1.93-.16.38-1.29,0-.62-.33-1.06,1.05-1.34-.2-1.39.82.68.34-6.27,2-6.66,3,2.79.39-3.4,1.94-1.08,2,2.48-1.59,7.19-2.56,1.41-.06C31,37.15,31.5,36.75,32.07,36.83Z"/><path class="cls-4" d="M51.55,12.1c0,1.07-1.67,1.72-2.74,1.08-.12.76-1.56,1.36-2.47.87-3.64,1.62-7.74,2.34-11.71,3.43-.4-.65,3.85-1.64,3.22-1.86a75.37,75.37,0,0,0-10.68,2.64C25.72,18,29.68,17,30.08,16.65c-1.4.38-.82-.43-1.14-1.16-.92,0-4.11,1.46-1.44-.17.69-.16,5.29-1.85,5.64-2.82.5-.47-.23,1,1.58.24.89-.41-1.12-1.05-.1-1.26.72.34,3.05-1.36,3.26-.53-.31.1-3.41,1.06-1.52,2.13,2.28-2.62.24.38,6.86-2.32.72-.58.74.17,1.87-.08.39,0,.71-.81,1.34-.49,0,.4,0,.63.44.58,2.7.05-2.56.88-1.81,1.79-.64.69,5.3-.67,3.74.24-.08.12-1.41.12-1.06.46.84-.37,2.31-.26,3.08-.83C50.64,12.3,50.84,11.7,51.55,12.1Z"/><path class="cls-8" d="M59.53,10c-1.06-.34.81-.41.63-.66-4,.8-3.85-.6-.79-1.09,1.11-.51-2,.31-3.37.59-.66.17.66.68-.66.84-.86-.2-1.93,1-2.4-.15-8.21.08,16.21-4.81,18.27-4.86C72.54,5,77.87,2,75,5.65c4.75.16-5.41,1.2-6.5,1.59C66.15,9.3,62.76,8.68,59.53,10Z"/><path class="cls-9" d="M37.12,52.72c3.34-.94,6.57-2.55,10.29-2.8.69-.56,4.32-2.35,4.15-.36-.31.45-1.75,1.11-2,.38-2.46,0-6.19,1.67-8.07,2.65,2,0,.49.67-.47.9A135.46,135.46,0,0,0,22.34,60.7c-6,2.08,13.11-6.8,13.17-5.55,1.29-1.41-.51-.46-1.42,0-5.46,1.89-11.88,4.3-14.82,6.74-.16-.64-1.41.11-.8-1.08-.24-.24-.78.14-1.11-.25,1.16-1.22-.76-3.17,2.2-3.62,1.7-.5-.2.63-1.16,1.39.63-.12.55.06-.42.73.26,3.49,2.79.19,5.35-.65C28,56,32.36,54.86,37.12,52.72Z"/><path class="cls-10" d="M70.7,18.75c-.18-.49,2.12-.79,2.75-1-1.19-.74.73-.21,1.41-.61-.83-.75.3-.66,1.11-1-4,.69.08-1,3-1.33-.94.07-4,1-3.74,0,1.18-.34,2.72-.34,1.68-1.75,1.8-.28,2.24-1,4.42-.9,2.8.07-.33,1.55.89,1.27.29-.43,1.61-.83,1.55-1-1.45.52-.57-1.8,1.17-1.09-.19,1,3.23,0,2.47,1.07-.07.82-4.57-.12-2.15,1,.48,1.12,6.5-.09,5.69.89-2.38,1.82-2-.42-3,.66-.23.8-1.54,0-2.6.09-.1-1-.55-.55-1.54-.68,1.76,1.75-.15.54-.41,1.43.3.38,1.33.72-.23.66-.78.28.6.2.89.52,0,.22-2.49.38-2.45-.16-.29.06-.64-.52.25-.46,2.42-1.45-.64-1.66-2.09-1.15.13.06,2.09-.41,1.2.28-.14.43-2.39.32-1.49.55,2.71-.22-.46,1.09.29,1.09,2.09.47-2.88.74-2.22-.27-.82.23-.13.62-1.8.71,4.08-.08,4.55,1-.14.93C76.31,17.24,72,18.89,70.7,18.75Z"/><path class="cls-11" d="M77,44.69c-4.74,1.3-.48-2.48-4-1.33,0,.8,2.49-.15,0,1.73-.62.26,0-1-.67-1.21-.54-.71-1.79,0-1.21,1.08.38.91-1.41-.17-1.53-.77.19-.15.72-.43,0-.3-1.59-.2,0,.61-1.23.68-1.2-1.58-.9.41-2.46.67-1.22,0,.89-1.39-2.67-.43-.56-.52-.31-.69.14-1.43-.15,0-1-.35-.26-.51.38.38,16.22-3,11-1,.14-.11,1.3-.14.51.23.18-.41,4.21-.36,3.15-.82-1.57-.45,5.19-1.77,4.08-.65-.83.41-2,.19-3,.75,1.67.2,6.2-1.43,6.13-.5-.58,0-5.63,1.42-3.29,2.44.61.16-1.55,1-1.44.52s.77-.88,0-1a6,6,0,0,0-2.17.88C78.34,43.29,78.26,42.12,77,44.69Z"/><path class="cls-2" d="M6.8,46.56c.26-.4.7-.84-.42-.36-.2-.11,6.84-4.68,5.76-3.33-.32.26-4.51,2.52-2.34,1.89A1.82,1.82,0,0,1,10.88,44c1.61-.43-.41.9,2.23-.65a8.28,8.28,0,0,0,3.13-2.3c.56,0,.46.88,1.37.12,3.29-1.37,2.72-1.88,3.75-1.48,0,.48-.88,0-.6,1.1a4.51,4.51,0,0,0-2.87.58c.21-.15,1.11-.26.49.25.22-.35,2.33-.08-.07,1.33,7.6-3.69,2.28-.36,5-.73.24-.13.46,0-.64.55-2.65,1-5,3.41-7.48,4,.61-1.7-.37.11-1.38,0-.08-.67.91-2.18,1.85-1.1,2.7-2.06-1.39-.52-.29-2.63-2.4.68-4.5,2.62-7.38,2.6C7.65,45.91,7.69,46.87,6.8,46.56Z"/><path class="cls-12" d="M62.78,43.08c1.71.42-.61,1.48-1.61,1.68,4-.22-2.81.85-4.56,2.91C57,46.76,54,48,57.8,46.18c-.41-.36-1.63,1.09-1.35.27-.53-.47-.65.57-1.35.59-.76-.48-1.56.16-2.3.33-1-.75-1.38.94-2.36.52.43-1.26-7.85,2.22-6.38,1.07,1.31-.28,9.93-2.78,4.64-2.1-.07-.11-.36-1.21.22-.9.1.76.09.17,2.81-.59-.78.15.19-.45-.59-.31-.24,0-1,.21-.4-.31.27-.41,3.07-.69,1.2-.75,1-1-.69-.31.22-1.18-2.81.83,1-2.2,1.18.24,2.48-1.36,3.55.37-.17.59.48.64,3.38.06,2.28,1.15-1,.06-1.72-.4-2.61.65,1.85-.07.68-.53,1.38-.65,1.34,1.15.22.51-1.15,1.15,2.47-.3,3.42.74,6-1.5-3.41,1.48-2.74-.67-.49-.18C57.88,43.94,59.92,43.84,62.78,43.08Z"/><path class="cls-6" d="M33.52,13c-.35-.79-.59,0-1,.7-1.45-.52-2,1.52-3,.31-1.3.49,1.1.36,0,.71a93.09,93.09,0,0,0-9.11,3c-.1-.06-.47.55,0,.32,1.78.28-2.65,3.9-3.65,2.1-.42-.53.2-.57.75-.87-1-.17-1.38,0-.54-1-2.66.76,1.64-1.46,2.43-1.15.37.36.16,0,3.86-1.26-.36-1.42,7.4-2.88,10.85-4.19,2.08.22,0,2,.32.82C34.1,12.37,34.09,13.06,33.52,13Z"/><path class="cls-6" d="M10.05,20.8c3.78-2.2,9-3.61,2,1,2.2-1,2.52,1.39,0,.52,1.63.68-12.86,6.55-3.89,1.57-1.14.28-5,2.64-5.65,3.68-1.95-1.14.78-2.59,2.7-3.89a2.69,2.69,0,0,0,2.68-.47C14.77,19.37,11.48,21.33,10.05,20.8Z"/><path class="cls-2" d="M87.85,29.05c6-.38,2.45,0,0,.53,1,.68,4-1.33,4.27.76.14-1.4,3.68.28,4.31,1.17,1.36.95-6.49,1.48-5.2-.44C90.1,31.57,84.71,29.45,87.85,29.05Z"/><path class="cls-1" d="M85,11.5c-.11-.14,0-.25.53-.31-1-.33-4,.87-1.33,1.35-.74.24-.76-.16-1.45.62-.22.16-1.15.78-1,0,1.8-.82-.7-.73.31-1.44,1-.38,6.23-2.61,6.07-.6.81-1,3.89.52,4.49,1.6.61.51-6.89,1.58-5.21-.82-.9.18-2.58.23-.11-.36C87.93,10.42,86.11,12,85,11.5Z"/><path class="cls-11" d="M95.83,32.91c-4.82,1.73-1.21,1.85-5.12,1.91-.46.87-.15.42-1.25.16.57.89-2.7,1.57-2.89.49.66-.63-.21-1-.12-1.65.72-.33.38.31,1.06.47,2.06.23-.65-.86.16-1,2.84-.45.76.78,2.57.58,3.21.87-.92-1.51,2.62-.61C92.72,32.88,95.67,32.58,95.83,32.91Z"/><path class="cls-4" d="M13.85,22.14c0-1.37-2.35.42-1.81-.45,5.55-3.06,1.56-2.9,4.57-3.55,1.71.21-1.64.71,1.18,1.05-.33.25-1.57.26-.88,1,.66.39,2.06.33,0,.75C16.52,21.63,16.4,21.55,13.85,22.14Z"/><path class="cls-6" d="M6.14,28.71c-1.15-.06,1.08-.66,4.47-2.59.31-.33.14-.33-.66.05-.27-.11-.25-.34.32-.71,1.07-.9,3.83-.79,1.32,2.12C10.16,26.51,10.24,29.78,6.14,28.71Z"/><path class="cls-11" d="M19.9,61.63l-.58-.05C21.93,59.4,37.81,53,36,54.65c-.52,1.08-.19,0-2.06.89C29.05,56.67,24.6,59.5,19.9,61.63Z"/><path class="cls-13" d="M4.34,31.05c-1.42-.22,1.75-.21,1-1.38.72.31.62.72-.26,1.24,1.71.22,5.36-2.88,6.57-1.45-.55.73-2.13.6-1.56,2.19-.27.7-2.19.31-1.57-.43-1.42,1-1.71.37-2.91,0C5.36,31.15,5.08,32,4.34,31.05Z"/><path class="cls-11" d="M42.61,52.74c-5,.53,7-3.67,6.54-2.65.66.92-.13.5-1.37.8A10.47,10.47,0,0,1,42.61,52.74Z"/><path class="cls-14" d="M84.06,17c-1.56-.11-1.57-.61,0-.59-.77-.7-1.37-.85.46-1.11-1.54-1.17-.13-1.34.93-.66.1.75-.45.14,1.79.62,1,.36.18-.93,1.5-.62,1.58.69-2.17,1.88-3,1.39C85.56,16.09,85,17.13,84.06,17Z"/><path class="cls-1" d="M10.05,20.8c5.81-1.18-2.33,2.63-4.21,3.41C5.31,23.2,8.92,21,10.05,20.8Z"/><path class="cls-15" d="M13.85,51.52c-.78-.53-2.18.06-2.79-.1-.63-1-1.35-.22-2.35-.59-.66-.56,1-1,1.9-.74,1.32-.27,2.22-2.1,3.79-1.74,0,1-1.13.54-1.77,1.31,1.25-.16-.34,1.07.7.79.2-.3.77-.08.36.64C14.4,50.58,15.47,50.85,13.85,51.52Z"/><path class="cls-9" d="M14.11,39.67c.39.27,1,.52,1.53-.43,1.91.52-5.41,3.9-5.89,3.75C9.64,41.84,12.74,40.06,14.11,39.67Z"/><path class="cls-10" d="M51.08,9c.36.62,1.26.44,2,.47,0,1.36-2.78.44-4.57.82-.2,2,1.49-.82,2.27.56-.92.68-2.94,1.07-3.84-.33A11.29,11.29,0,0,0,48.6,8.94C49.53,9.82,49.43,9.15,51.08,9Z"/><path class="cls-16" d="M87.72,36.3c-.28,1.4-3.94.3-2,2.22,0,.21-.33.15-.41.54.28.3.22-.21.57-.35s.52.75-.19.89c-3.4,1.6.31-1.63-2.58-1.29-.18-.65.33-.26,1.11-1.73.37.56.29.36,1.09.29C85.12,35.49,85.79,36.77,87.72,36.3Z"/><path class="cls-5" d="M14.52,45.34c.3.55-.55.49-.78,1.19.41.46.18.83-.64,1.12C6.44,48.72,11.69,46.22,14.52,45.34Z"/><path class="cls-6" d="M36,11.83a6.75,6.75,0,0,1,2.47-1.23c-.1.14-.5.85.2.39.91-1.32,6.21.22,2.49.27-2.87,1.54-.55.11-2.77.17C37.77,11.65,37.13,13.19,36,11.83Z"/><path class="cls-17" d="M42.44,10.83c-.19,0-1.92-.08-.1-1-.63-.12-.55.47-1.4.6-.77-1.57,2.92-.77,4.33-1.11.79-.14-.2-.88,1-.86.29.4-.91,1,.51,1.18,1.27-.13.88,1-1.9,0-.82.52-.36.65-1.59-.06C42.51,9.34,44.79,10.66,42.44,10.83Z"/><path class="cls-4" d="M2.81,27.58c-1-.65,2-1.68,2.53-2.32.31,1.39.24.16,2.15-.47,1.63.82-1.54,1.76-3.43,1.88C3.88,27.16,3.67,27.78,2.81,27.58Z"/><path class="cls-18" d="M82.26,20.28c.48,0-2.26,1.4-2.34.11.46-.12.8-.87,0-1.08-1.64.59-.82-1.31,1.59-1.39.53-.25-1.07-.34-.18-.72.66-.17.58.49,2.24.34a1.63,1.63,0,0,1-1.25.64c-1-.47-.73,1.48-1.89.65-.49.34.9.83,1,1.31C81.73,20.09,82.12,19.22,82.26,20.28Z"/><path class="cls-19" d="M4.34,31.05c.94.88,1.17-.43,2,.25.26,1.14,3.07-.73,2.31,0-.3.25-.21.85,2.24.56-.28,1.28-1.82,0-2.71.46-1.46.54-1-.12-1.72-.46C5.67,32,4.39,32.25,4.34,31.05Z"/><path class="cls-9" d="M69.8,44.56c1.82,1.06.74,1,1.14-.71.64-.74,1.86-.44,1.78,1.21,1.22-.24,2.1-3.82,1.84-.4.07.22.22.11.52.29-.54.4-1-.77-1.6-.3C73.06,45.41,70.11,46.13,69.8,44.56Z"/><path class="cls-20" d="M17.11,50.86c.4-.12.89.37-.25.84.81.21,2.1-.66,2.79-.55a8.36,8.36,0,0,1-4.07,1.57C12.94,54.2,16.11,51.3,17.11,50.86Z"/><path class="cls-21" d="M10.09,32.45c1-.39.76-.09,1.06-1.58,1.46-.87.68-1.57,1.4-1,.88.45-.69.58-.34,1,1,.1,1.54.25,0,.95-.3.11-.85-.52-.76.24-.22.47.89.49-.37,1.2,1.22.22-2.09.38-.67-.55C10.21,33,9.46,33,10.09,32.45Z"/><path class="cls-22" d="M89,10.7c-.59.47-1.17-.39-1.4-1,0-.1,1.54,0,.87-.46-2.62-.18.41,0-1.51-1.91.12-.22,3.91,1,1.33.79-.11,1.11.42,0,.8.64-1.17.85,2.73.89.74,1.4C89.72,10.27,89.23,10,89,10.7Z"/><path class="cls-23" d="M11.26,47.93c1.91.06-1.82,1.47-2.2,1.92,1.06.07,2.95-1.22,3.83-.93-.27.55-4.38,2.1-4.47,1.16-2-.23,1.41-.07.85-1.47C9.91,48.84,10.43,48.49,11.26,47.93Z"/><path class="cls-16" d="M87.16,41.35c.06.24,0,1.69-.43,1.3.13-1.53-3.21.22-2.14-.81-.54.27.83-2.73,1.89-1.46C86.49,41.05,85.39,41.6,87.16,41.35Z"/><path class="cls-5" d="M63.71,44.74c.66-.7,2.28.17,2.34.63-.9.28-.7.81-1.2,1s-2.61,1-2.31.15,1,.13,1.43-.74c.15.13.12.62.6.38.78-.54.25-1-.9-.88C63.53,45.08,63.57,45.19,63.71,44.74Z"/><path class="cls-17" d="M63.18,4.71c.65-.8,2.26.43,2.86-.9a2,2,0,0,0,2.35-.54c1.2.83.07,1-2,1.15,2.25-.27,0,.94-.58.24C65.13,4.73,63.69,5.6,63.18,4.71Z"/><path class="cls-20" d="M86.39,41.48c-.18.08-.58-.23-.34-.48,1.67-1.54-2.15-.33-1.39-1,1.43-1,2.07-.42,3.69.22C86.28,40.7,88.49,40.91,86.39,41.48Z"/><path class="cls-21" d="M83.57,17.48c-1.06.85-1.88-.82-2.34,0,.64.3,1.07.11,0,.65C75.56,17.23,89.93,16.34,83.57,17.48Z"/><path class="cls-2" d="M51.55,49.56c.39-.73.28-2.18,2.69-1.22-.37.63,1.65-.15.74.39C51.65,48.84,54.31,49.6,51.55,49.56Z"/><path class="cls-13" d="M89.65,9.55c-1.34.16.14-.54-.33-1.2,0-.89-2.36-.3-1.93-1.35.67.76.94.21,1.72.17-2.88-.26-1.47-1.33.69-.25-.17.42-.76,1.13.1,1.34C89.86,8.51,89.51,9.09,89.65,9.55Z"/><path class="cls-2" d="M66.71,44.86c.16-.57.4-1.37,1.52-.68.19.34,0,.93.51,1,.15-.31.48-1.22.66,0,.13.48-2.09,1.36-2,.64C68.34,44.88,68.54,44.27,66.71,44.86Z"/><path class="cls-24" d="M23.16,15.17c.34.6,1.06.58-.35.85-.62-.11-.62,1.11-1.91.29.14.75-.47.83-1.21.5C20.52,15.93,22.09,16,23.16,15.17Z"/><path class="cls-10" d="M81.94,20.5c.5,0,1.33-.18,1.61.56.08,0,1.42-.17.71.23-.55-.28-1.78,2.4-2.26.76C83.14,21,81.59,21.53,81.94,20.5Z"/><path class="cls-4" d="M14.25,39.48c-1.32-.42.72-1.1.57-1.62-2.42.28.65-2.48.4.61C15.73,37.42,18,37.2,14.25,39.48Z"/><path class="cls-17" d="M3.06,27.62c.83.1.59-2,2.63-.77C4.29,27.39,4.72,29.22,3.06,27.62Z"/><path class="cls-16" d="M91.82,26.73c-.69.07-1.25-.68-2.52,0-.06-.39,2-.86,1.14-1-.26-.14-1.31.59-.83,0,.19-.42,3.27-.79,3,0C92.56,26,90.14,25.12,91.82,26.73Z"/><path class="cls-18" d="M82.4,21.27c.17.22.26.45-.14.61-1,1,2.26.17.7,1.14-.81.06-.91.08-1.52-.58-1.28.23-2.75-.08.25-.46C79.93,22.48,81.38,20.64,82.4,21.27Z"/><path class="cls-2" d="M87.72,36.3c-2.11-.44,2.78-.22,1.51-1.44.31-.2,1,.69,1.27.25C90.2,34.22,94.07,34.91,87.72,36.3Z"/><path class="cls-25" d="M92.57,33c-.81.07-3.15.27-2.43-.5-.43.39-1.35.1-.09-.4.87-.64.23,1.1,6,.5C96.74,32.93,93.06,33.15,92.57,33Z"/><path class="cls-25" d="M9.73,47.54c-.33.91-1.66-.45-1.84-.58-.32.06-1.21-.18-.44-.62.19-.45,1-.87.31.22C8.62,45.77,9.06,46.77,9.73,47.54Z"/><path class="cls-26" d="M92.51,28.52c1.1,0-1.8-1.68-.09-1.53.46,0,.84-.3,1.15.46C94.07,28.31,91.28,29.52,92.51,28.52Z"/><path class="cls-25" d="M87.33,41c-.39-.55.29-.67,1-1-2.41.19-2.26-2,.5-1.18-2.53.44-1.92,1,.45,1.29C88.77,40.39,87.5,40.16,87.33,41Z"/><path class="cls-5" d="M62.05,45.08c.52-.18.31-.42-1.15-.25,3.15-2.11,2.63,2,.61.67A2.79,2.79,0,0,1,62.05,45.08Z"/><path class="cls-27" d="M91.73,13.19c.12-.13,1.42.07.46-1,2.64,1.73-4.15,2.45-2.9,1.21C90,13.38,90.73,13.26,91.73,13.19Z"/><path class="cls-25" d="M92.51,28.52c-.12.09-.25.17-.43.31,1.6-.38,3.91-.51.29,1C92.28,28.87,90.35,28.75,92.51,28.52Z"/><path class="cls-28" d="M85.24,16.89c-1.84.39.06-.3.22-.68.1-.05-.54-.35,0-.32.45-.24.77.73,1,.12C87.34,15.35,88.87,16,85.24,16.89Z"/><path class="cls-23" d="M93.57,27.46c-.57-1.08-3.93-.81-.58-1.33-.93,0-1.21-.57.28-.28.22.06.72-.62.42.11C92.85,26.71,94.48,27.22,93.57,27.46Z"/><path class="cls-29" d="M60.59,47.4c-.65-.2-1.19.32-1.93.43C56.73,46.67,60,46.54,60.59,47.4Z"/><path class="cls-5" d="M58.46,46.58c.49-.95,3.93-2.22,2,.11C59.93,45.55,59.12,46.7,58.46,46.58Z"/><path class="cls-12" d="M18.36,54.86c.48-.25,3.17-1.91,2.6-.68C20.51,54.15,18.47,55.79,18.36,54.86Z"/><path class="cls-2" d="M84.31,41.74h.55C84,43.17,77.38,42.12,84.31,41.74Z"/><path class="cls-26" d="M86.1,39.44c-.52-.94-.43-.93-.75-1,.7,1,.66-.32.38.61-.14.57-1-.11-.06-.57-.84-1.51-.89-1.09,1.07-.63C87.06,38.42,86.41,37.76,86.1,39.44Z"/><path class="cls-26" d="M13.85,51.52c1.27-1,2.57-.44.55,1.32-1-.71.35-.67.3-1.24-.51,0-.53.91-1.35.84C13.17,52.26,13.39,52.15,13.85,51.52Z"/><path class="cls-12" d="M55.27,48.61c-1.41.47-1.81-.9.15-.66C57.64,48.08,57.33,48,55.27,48.61Z"/><path class="cls-27" d="M82.26,20.28c-.13-.5-.36-.44-.79,0C80.28,18.65,82.84,17.37,82.26,20.28Z"/><path class="cls-22" d="M84.45,21.19c-1,.16-.88-.58-2-.68.48-.82,1.38-.93,2.5-.78-2.16.67-2.44,1.12.36,1.41C85.19,21.09,85.3,21.31,84.45,21.19Z"/><path class="cls-16" d="M88.18,24.59c.73-.38.27-.21-.46-.84C89.55,24.05,93,25.14,88.18,24.59Z"/><path class="cls-29" d="M18.39,55.11c1.39-.31.26.28-.34,1.41-.33,0,2.26-.25.43.78C16.86,56.44,18.19,56.76,18.39,55.11Z"/><path class="cls-17" d="M88.25,6.33c.44.28,0,0-1.64,1-.8-.39.74-.27,0-.65C84.18,7.13,87.11,6,88.25,6.33Z"/><path class="cls-25" d="M86.79,38.12c-1.77-1,2.55-1.2,2.22-.8C88,37.64,88.31,37.57,86.79,38.12Z"/><path class="cls-28" d="M14.72,36.76c-1.89,1.94.43.18.24,1.43-2.41,0-.24-1-.52-2.35C14.47,36.31,16,35.47,14.72,36.76Z"/><path class="cls-18" d="M84.26,18.21l1.2-.24c-1.39-.26.37-.59.79-.09C86.23,17.93,82.94,19.56,84.26,18.21Z"/><path class="cls-23" d="M87.25,37.23c-.7.07-.85,1.18-2.07.19C85.59,37.3,87.16,36.46,87.25,37.23Z"/><path class="cls-1" d="M46.56,10.11c.2.15,2-1.31,1.65-.59C48,10,45.76,11.84,46.56,10.11Z"/><path class="cls-27" d="M64.44,4.94c.39,0,1-.47,1.63-.26-.54.12.15.12.78.11C66.41,4.65,64,6.34,64.44,4.94Z"/><path class="cls-26" d="M93.11,29.84c-.69-.73.13-.48,1.18-1-.16-.14.68-.56.29,0-1.07.75-1.72.32,0,1.48A5.39,5.39,0,0,1,93.11,29.84Z"/><path class="cls-11" d="M63.89,45.3c.23-.46,1.57,0,.94.72C64,46.72,64.17,45.88,63.89,45.3Z"/><path class="cls-21" d="M11.86,34.5c.82.24,2.35-.94,2,.57C13.76,34.69,11.51,35.43,11.86,34.5Z"/><path class="cls-22" d="M4.34,28.31c.09-.59,1-1.29,1.17,0C6.4,28.77,5.46,29.06,4.34,28.31Z"/><path class="cls-21" d="M90,14c2.08-.81,3.15,0,.2.69l.87-.54C90.93,14.07,90.85,14.08,90,14Z"/><path class="cls-13" d="M82.38,19c-.39.22-.78-1.11,0-.91.41.4,1.18-1.11,1.5-.52A16.74,16.74,0,0,0,82.38,19Z"/><path class="cls-29" d="M14.39,52.79c.09,0,1.54-2.2,1.29-.85-.1.55-2.1,1.36-.57,1.05C14.9,53.17,13.77,53.64,14.39,52.79Z"/><path class="cls-27" d="M89,10.7c-.49-.41,1.21-.89,1.46-.6-.64.08-1.4.39.22,1.23A7.25,7.25,0,0,1,89,10.7Z"/><path class="cls-27" d="M67.37,4.39c.3-.64,2.9.17,1.6.42C68.87,4.73,67.4,4.69,67.37,4.39Z"/><path class="cls-16" d="M88.59,37.46l.54-.32c-.27,0-.18.19-1,.06l1.21-.2c-1.68-.38,1.35-.53.58,0A2.09,2.09,0,0,1,88.59,37.46Z"/><path class="cls-23" d="M14.39,52.79a.47.47,0,0,0-.05.58c-.89-1.31-.53-.64-2-.58C12,52.55,13.86,51.72,14.39,52.79Z"/><path class="cls-15" d="M69.29,45.41c.44-.46-.6-.73,0-1.06C69.29,44,71.39,45.59,69.29,45.41Z"/><path class="cls-16" d="M60.88,46c-.46-.69.69-1,1.15-.84-.15.29-.91.4.16.58Z"/><path class="cls-18" d="M5.47,29.72c-.75-.12.68-1.34,1.92-.85C7.17,29.15,6.09,29.38,5.47,29.72Z"/><path class="cls-3" d="M85.91,42.62c.84.93-2.08.78-.68,0C85.28,42.67,85.47,42.22,85.91,42.62Z"/><path class="cls-18" d="M75.75,4.11c-.58-.28-1.38-1.15,0-1.06C75.77,3.26,76.24,3.4,75.75,4.11Z"/><path class="cls-21" d="M83.2,18.37c1.86-.87.6,1.1-.51.56C82.6,18.63,82.71,18.51,83.2,18.37Z"/><path class="cls-18" d="M82.9,4.2c-1.62-.34.77-1,1.74-.9C84.27,3.77,83.07,3.35,82.9,4.2Z"/><path class="cls-18" d="M10.39,32.64c-.48.63-.34.6.53.38-.39,0,.19,1.18-.59.68-.08-.62-.85.17-1-.31C9.59,32.91,9.86,32.88,10.39,32.64Z"/><path class="cls-16" d="M9.46,48.67c-1.39-.22,2-1.46,1.09-.54C10.23,48.29,9.93,48.46,9.46,48.67Z"/><path class="cls-26" d="M86.83,23.21l-.73-.31c.55-.58,4.1-.81,1.13-.25C87,22.72,86.92,22.84,86.83,23.21Z"/><path class="cls-15" d="M88.32,24.62a1.51,1.51,0,0,1,1.26.17L89,25C90.73,25.56,88.48,25.55,88.32,24.62Z"/><path class="cls-27" d="M47.84,9.53c-.65.59-2.91-.3-1.42-.6C46.68,9.5,46.86,9.68,47.84,9.53Z"/><path class="cls-22" d="M20.1,16.5c-.29.27-.45.15,0,.51C20,17.79,18,16.87,20.1,16.5Z"/><path class="cls-27" d="M48.29,9.27c-.6-.15,0-1.71.45-.9C48.36,8.79,49.79,8.43,48.29,9.27Z"/><path class="cls-26" d="M15.71,53.25s-.07.53.37.55c.3-.43,1.73.43.5.36C16.1,54.2,15,54,15.71,53.25Z"/><path class="cls-18" d="M41,9.9c.44.44-1.65,1.07-1.46.33C40,10.37,40.11,10.08,41,9.9Z"/><path class="cls-17" d="M50.35,7.77c-1.22-.41,0-.8.8-.36C51,7.62,50.86,7.69,50.35,7.77Z"/><path class="cls-13" d="M82.8,19.14c.77-.51.86.37-.46.62C82.22,19.52,82.16,18.91,82.8,19.14Z"/><path class="cls-23" d="M96.11,32.85c-1-.75.2-.43.51-1.2C96.88,32.1,96.57,32.38,96.11,32.85Z"/><path class="cls-22" d="M39.25,10.77c-.28.09-1.58.81-1-.21C38.47,10.57,39.33,10.09,39.25,10.77Z"/><path class="cls-16" d="M78.81,44.4c-.79-.33.18-1.06.66-.28C79.35,44.26,79.29,44.32,78.81,44.4Z"/><path class="cls-13" d="M64.44,4.94c.33.46-.15,1-.69.42C63.61,5,64,5,64.44,4.94Z"/><path class="cls-28" d="M52.8,8.49c.13.6-.8.7-1.33.36Z"/><path class="cls-26" d="M81.81,43.49c-.59-.38,2-.26,1.54.11C82.88,43.79,82.48,43.57,81.81,43.49Z"/><path class="cls-23" d="M86.79,38.12c1.14-.62-.08,1.17-.66.23A1.92,1.92,0,0,1,86.79,38.12Z"/><path class="cls-26" d="M82.07,22.94a8.21,8.21,0,0,1,2.32.08C84.23,23,82,23.58,82.07,22.94Z"/><path class="cls-18" d="M84.45,21.19h.49c-.43,0-1.28.7-1.61.6C83.09,21.53,83.8,21.25,84.45,21.19Z"/><path class="cls-13" d="M85.46,6.36c-.18-.09-1.39-.21-1.31-.71C84.57,5.64,84.29,5.4,85.46,6.36Z"/><path class="cls-18" d="M11.92,34.91c.12-.29,1.86,0,.89.26C12.63,35.16,12,35.28,11.92,34.91Z"/><path class="cls-28" d="M68.57,3.46c-.71-.19.9-.76.87-.36C69.34,3.34,69.12,3.43,68.57,3.46Z"/><path class="cls-26" d="M63,45.28c-.13-.27.58-1,.74-.3C63.7,45.28,63.52,45.27,63,45.28Z"/><path class="cls-22" d="M26.36,14c-.06-.07-.66.7-1.41.55C25.28,14.45,25.69,13.77,26.36,14Z"/><path class="cls-19" d="M49,8.77c-1.21-.24.47-.86.49.21C49.3,9.19,48.72,9.48,49,8.77Z"/><path class="cls-18" d="M54.93,6.39c.49.18.61,1.15,0,.75C54.93,6.84,54.19,6.31,54.93,6.39Z"/><path class="cls-13" d="M55.59,6.51c.59-.2,1.13-.38,1.68-.55A1.91,1.91,0,0,1,55.59,6.51Z"/><path class="cls-23" d="M93.64,28.58c-.78.1-.67-.16-.07-1.06C94.07,27.81,93.19,28.12,93.64,28.58Z"/><path class="cls-21" d="M19,16.85c0,.35-.88.68-1.53.76Z"/><path class="cls-27" d="M5.19,29.52c.46.14-1.18.82-1.43.44Z"/><path class="cls-5" d="M48,50.85a16.62,16.62,0,0,0,1.81-.59C49.35,51.05,49.12,50.71,48,50.85Z"/><path class="cls-13" d="M9.72,32.91c.17.2-.65,1.2-1,.6Z"/><path class="cls-18" d="M54.4,6.51c-.51-.1-1,.3-1.66.52C52.61,6.75,54.29,6,54.4,6.51Z"/><path class="cls-18" d="M78.29,4.19c-.22-.27.7-.33,1.78-.19C79.9,4.21,79.23,4.25,78.29,4.19Z"/><path class="cls-26" d="M7.13,46.59c.19.52,1,0,1.22.23C8.21,47.34,7.14,47.28,7.13,46.59Z"/><path class="cls-13" d="M9.52,33.57c.63-1,1.28,1.17.67.48C10.15,33.71,10,33.45,9.52,33.57Z"/><path class="cls-19" d="M84.45,18.67c.26,0,1-.63.67.39C84.92,19.1,84.73,18.86,84.45,18.67Z"/><path class="cls-13" d="M54.4,6.51c-.59-.18.78-1.13.53-.12C54.79,6.4,55,6.46,54.4,6.51Z"/><path class="cls-28" d="M88.05,15.81c.23-.07.63-.58,1.15-.65A1.05,1.05,0,0,1,88.05,15.81Z"/><path class="cls-19" d="M50.35,7.77c.08,0,1-.44.58.2C50.8,8.08,50.64,8.22,50.35,7.77Z"/><path class="cls-15" d="M92.78,25.79c-.15.11-2.15,0-1-.16C91.92,25.8,93.15,25.16,92.78,25.79Z"/><path class="cls-9" d="M20,61.62c.17-.4.52-.39.86-.39C20.53,61.76,20.48,61.78,20,61.62Z"/><path class="cls-27" d="M46.37,8.65c-.23-.29.9-.47,1.23-.38A3.52,3.52,0,0,1,46.37,8.65Z"/><path class="cls-17" d="M39.25,10.77c.14,0-.87-.73.26-.53C39.45,10.28,39.91,10.5,39.25,10.77Z"/><path class="cls-25" d="M81.13,42.22c.44.18.46.16,0,.93C81,43,81,42.78,81.13,42.22Z"/><path class="cls-13" d="M55.33,7.17c.09-.33-.25-.47-.33-.72C55.19,6.63,56.47,6.81,55.33,7.17Z"/><path class="cls-13" d="M90.44,10.1A.49.49,0,0,0,90,9.63C90.18,9.56,91.36,9.45,90.44,10.1Z"/><path class="cls-26" d="M66.93,46c-.12,0-.86-.36-.49-.58C66.66,45.48,66.77,45.61,66.93,46Z"/><path class="cls-26" d="M9.06,48.47c.37.26-.26.3-.79.47C8.11,48.7,8.64,48.67,9.06,48.47Z"/><path class="cls-13" d="M52.9,6.73c-.12.31-.3.4-.87.62C52,7.09,52.48,7,52.9,6.73Z"/><path class="cls-18" d="M68.38,3.2c.07.13-.53.91-.53.34C67.88,3.32,68,3.25,68.38,3.2Z"/><path class="cls-16" d="M89.29,41c-.3.28-.33.28-.66-.07C88.93,40.67,89.09,40.69,89.29,41Z"/><path class="cls-23" d="M15.45,53.59c.28.39.51.63-.48.4Z"/><path class="cls-17" d="M41.06,9.33c-.24.12-.41.35-.69.15C40.56,9.13,40.7,9.09,41.06,9.33Z"/><path class="cls-23" d="M8.2,48.8c.13.26-.31.36-.75.38C7.4,49,7.54,49.05,8.2,48.8Z"/><path class="cls-18" d="M4.79,28.53l.8.22C5.19,29,5,29,4.79,28.53Z"/><path class="cls-23" d="M9.4,42.56c-.15.31-.4.13-.61.11C9,42.3,9.16,42.27,9.4,42.56Z"/><path class="cls-13" d="M5.54,23.59c-.17.3-.39.16-.6.06C5.13,23.33,5.29,23.32,5.54,23.59Z"/><path class="cls-13" d="M11.92,34.91c.07.19-.52.23-.72,0C11.41,34.8,11.47,34.47,11.92,34.91Z"/><path class="cls-27" d="M27.7,13.51c-.19.16-.3.44-.62.38C27.11,13.53,27.19,13.48,27.7,13.51Z"/><path class="cls-23" d="M84.09,21.89c.08.19-.81.79-.3.1C83.82,22.07,83.83,21.65,84.09,21.89Z"/><path class="cls-23" d="M31.38,56.82c.11-.3.36-.31.63-.29C32,57,31.64,56.83,31.38,56.82Z"/><path class="cls-27" d="M77.82,3.84c-.1.15-.68-.27-.22-.43C77.74,3.37,77.75,3.45,77.82,3.84Z"/><path class="cls-23" d="M17,54.18c.06-.26.43-.63.73-.06Z"/><path class="cls-16" d="M60.92,46.38h0C60.58,46.11,62.07,46,60.92,46.38Z"/><path class="cls-25" d="M85.91,42.62h0C85.34,42.72,85.6,41.76,85.91,42.62Z"/><path class="cls-18" d="M11.86,34.9h0C11.55,35.1,11.54,34.12,11.86,34.9Z"/><path class="cls-19" d="M9.3,35.22l-.7.35C8.53,35.37,8.85,35.17,9.3,35.22Z"/><path class="cls-27" d="M8.73,33.51c.22.1-.13.69-.4.12Z"/><path class="cls-21" d="M10.31,34.31c.17-.34.06-.68.44-.06Z"/><path class="cls-15" d="M88.59,37.81c.29-.17.42-.09.52.34Z"/><path class="cls-27" d="M63.18,4.71c0,.23-.51.4-.7.2Z"/><path class="cls-18" d="M83.39,19c-.16,0-.16-.05-.31-.34l.61.16Z"/><path class="cls-18" d="M85.32,21.14,84.64,21C84.77,21.13,85,20.83,85.32,21.14Z"/><path class="cls-23" d="M13.58,51.86c.2.33,0,.33-.26.33A3.17,3.17,0,0,0,13.58,51.86Z"/><path class="cls-19" d="M49.49,8.64h0C49.37,8.28,50.45,8.51,49.49,8.64Z"/><path class="cls-28" d="M51.08,9h-.55C50.57,9.09,51,8.75,51.08,9Z"/><path class="cls-19" d="M4.08,30.79c-.17,0-.22.09,0,0C4.14,30.8,3.85,31.45,4.08,30.79Z"/><path class="cls-5" d="M63.89,45.3c.07.09.35.05.1.37A1.08,1.08,0,0,0,63.89,45.3Z"/><path class="cls-6" d="M22.88,15.42c.05.1.2.18-.2.1Z"/><path class="cls-19" d="M50,8.31Z"/><path class="cls-9" d="M75.22,44.94c.1-.2.22-.2.33,0Z"/><path class="cls-9" d="M77,44.69c.07-.1.13-.2.21-.3C77.29,44.63,77.07,44.63,77,44.69Z"/><path class="cls-18" d="M5.73,28.74Z"/><path class="cls-2" d="M82.07,22.94c1.64,2.19-3.26.64-3.45,1.76,1.07.08,3.32-.61,3.66.11-17.28,1.68-5.81,2-14.78,3.13-12.34,3.35-25.31,6.32-37.1,9.2.29-.41,3.86-1.09,2.66-1.55-.62.09-6.19,3-3.94,1,.18-.13.95,0,1.49-.65,1.17-1.48-1,0-.36-1.11,1.93-.4,4.32-2.11,6.38-2.2.78-.5-.45-.19.52-1.07.24.49,1,.53,1.76.12.49-1.69-3.17-.17,1.87-2,2.64-.35-.42.89-1.25,1.35.63.39-.26,1.21.68,1.08.83-.59.77-1.94,2.6-1.12,7.73-1.06,2-3.67,5.19-2.13.91,2.23,1.15-.46,2.44.44-.18.7.49.3,1,.49-.24.58.65.83,1.18.54.12-.2,2.16-.4,1.55-.7-1.11.35-3.28.52-.79-.73,1.25,0,2.62.47,3.92-.52C46.13,28.74,80.26,21.82,82.07,22.94Z"/><path class="cls-12" d="M89.9,32.72c.4.45,1.24.23,2,.33a2.3,2.3,0,0,1-.77.24c.33-.11,1.74,1.43-1.8.55,0-.91-.91-.51-1.8-.49,2.4,2.25-.92-.24-3.84.88,2.69-.4.92.75-.7.73,2,.37,4.2-.54.47,1.15,1.85.36.39.44-1.15.62,1.38.83-4.58,1.5-2,.26-1.91-.13-9,2-3.56-.23-2.41.15-3.68-.45-.25-1.55,3.8.14-2.24,1.08,1,1.16s-.4-.62,1.24-1.64c.87-.07,4.73-1,2.58-.76-3.86.1-.67.21,0-1.39-1-.72,1.38-1,1.33-.41-.61.09-1.67.6.12.39,3-.14-.22-1.2,2.93-1.43,2,.84-.2.46.14,1.45.68.14.77-.93,1.5-1-1.6-.69,2-1.91,1.28-1,1.53,1,2.88-.06,2.8.58-.52,1.24-1.89.15-3,.81A3.07,3.07,0,0,0,89.9,32.72Z"/><path class="cls-11" d="M44.23,46.67c-.26.57-5.34,1.68-4.15,2.12,1.39-.71.64,1.09,2.2,1.13,1.14.89-3.22.69-3.87,1.54-.9,1.27-.79.08-1.89.59-.41.38-.67.68-1.4.43-1.08,1.08-8.71,3.46-4.18,1.3-2.74-.23,11.36-3.65,9-4.17-2.38,0-4.56,1.91-7.1,2.45-.34-.52,2.56-.8.67-.93-.6-.44,1.43-.64-.61-.88-2.76.22-.84,1.51-3,.48,0-1.15,1.68-1,2.63-.75,1.52-2.27,4.81-1.62,1.68-.19,2.28.43,2.41-.35,4.54-1.47C40.58,47.58,42.33,47.32,44.23,46.67Z"/><path class="cls-20" d="M29.94,50.73c.42-.44.82.91,1.18.16s4-1.29,2.48.19c3.28-.46-7.24,4-8.45,3.71l.61-.36c-.63-.07-5.21.74-2.76,1.34,1.16.45-1,.37-3.17,1.54,1.08-1-1.09.15.12-1,2.06.15-.4-.45,3.4-2.34.55-.77-1.2.52-1.69.33,1.19-1.47.42-1,2.42-.75.05-.19,2-.8,1-.2-.17.12-1.39.31-.67.6,1.59-.35,1.21-1,2.69-.19.67-1.49.67-.7,2-.7.4-.29,3.19-1.26,2-1.15-.63-.09-2.68,1.52-2.22.69-.12-.56,2.68-1.26,1.38-1.42C29.82,51.24,30,51.23,29.94,50.73Z"/><path class="cls-25" d="M13.19,47.59c.8-.51.73-1.05,2-1.52-.38,2,3.92-2,2.73-.27.15-.14,1.5.07,1.17-.52-3,.37,10.18-5.44,10.34-4.88-1.81,1.34-4.29,1.94-6.54,3,1.11-.36,2.69.06.46.81-.76,0-.51-.69-1.35,0s-3.34,3-5,2.35c-2.42.61-.19.41-.84,2.1-.63-.58.48-1-.91-.85C15.55,46.31,13.9,47.93,13.19,47.59Z"/><path class="cls-9" d="M53.28,42.42c-.36-.71-4,.81-1,.34-.91.72.19.33.18.85-.5.27-1.14,1.26-1.31-.26-.43-.19-1.38.82-1.69.38.33-1.09-2.06-.52.09-1.58.55,0,9.23-2.86,6.89-1.46-1.95.1,2.5.74-.25,1.52-.58-.29.43-.13.59-.67C56.49,41.74,54.1,41.57,53.28,42.42Z"/><path class="cls-9" d="M39.25,48.07a29.72,29.72,0,0,1-3.87,2.24c.06-1-2.26.13-.63-.88A2.63,2.63,0,0,0,35.81,48c0-.21-.88-.23-.12-.78.24.14,3.65-2.48,3.19-1.09C39.91,47.54,35.29,47.76,39.25,48.07Z"/><path class="cls-2" d="M49.82,33.24c-10,3.27-21.54,6.11-11.19,3.07C38.77,35.89,52.11,31.12,49.82,33.24Z"/><path class="cls-20" d="M22.69,41.15c-.83.31-7.34,3.27-3.41,1.07.26-.27.12-.6-.46-.69-.12-.14-1.16.65-.49,0,0,0,.65-.45-.07-.21-1.67.6.82-1.08,2.47-.58-.8-.55,1.65-1.85,2.46-1.56.22.5.41.5,1,.23C24.66,39.35,23.86,40.32,22.69,41.15Z"/><path class="cls-9" d="M17.24,46.54c3,.6,3.76-1.53,6.19-1.63.83.54-2.79,2-3,2.76-1.21-.44-2.43.5-3.4,1.29C17.4,47.85,15.35,47.65,17.24,46.54Z"/><path class="cls-2" d="M48.69,42.62c0,.07-.16.17.13.33-.46.2-2.46.61-.47,1-1.1.41.48.25-.15,1,2.47.06-1.61,1.13-2.58,1.19-.59-.9,1.79-.25,1.54-1.21-.72-.4-1.24-.49-1.65.53-.45,0-1.26-1.16,1-1.27.3-.21.3-.75-.64-.52-.26.54-2.65.53-1.85-.11C45.24,43.63,48,41.79,48.69,42.62Z"/><path class="cls-20" d="M46.3,45.54c-.06,0-.86,0-.67.53-.83-1.38-3.05,1.45-2-.32-.26-.09-2.1.5-.79-.21,2.26-1.24-1.14.55-1.53-.65-.3-.51,3.26-1.62,3.27-.79-.32.24-1.53.88-.11.55.2-.19,2-2.18,2.34-.73-.16.65-1.18.17-1.72.64.19.23-1.64.95-.39.61.46-.72.71.74.9-.21C46.26,44,45.84,44.94,46.3,45.54Z"/><path class="cls-20" d="M62.05,41.22c-2.13.42,1.43-1-3.71-.26-.18-.79,2.54-.53,4.1-1.09.73,0,.88-.79-.16-.39-.29.18-.76.79-1.19,0-.51-.59,3-.58,4-.64-.37-.42,4.06-1.71,4.24-1,0,.36-4,.6-3.22.89,1.56-.35.65.14-.32.59-1.25.84-1.19-.5-1.85.16C64.81,40.87,60.87,39.86,62.05,41.22Z"/><path class="cls-29" d="M24.42,43.68c.32-.81-3.51.59-.78-.77,1.23-.24,7.77-3.22,4.44-2.16.63-1,6-1.7,2.11-.14.07.12.36,0,.59.39-1.86.25-3.11.1-4.49,1.66-1.53-.45-.3.29-1,.21C24.16,42.62,25.11,43.24,24.42,43.68Z"/><path class="cls-7" d="M22.23,54.32c.1-.48,2.56-.89,1-.19-2.12,1.24-1.14.59-2.49,2.32-.24.08-.84-.11-1,.12-1.06,1.52-.26-1.07-1.77.27C18.19,55.12,20.79,55.27,22.23,54.32Z"/><path class="cls-11" d="M42.31,45.87a6.62,6.62,0,0,1,1.6-.2c-.37.56-3.13,2.62-3.56,1.17.11-.75-1.45-.14-.81-.89C41.66,44.46,40.13,47.3,42.31,45.87Z"/><path class="cls-12" d="M39.51,46.34c1.21-.51.42,1.14,1.59.74-.61,1,2-1.15,2.8-.34C42.23,47.39,38.14,49.28,39.51,46.34Z"/><path class="cls-25" d="M73,37.76c0,1.38,1,.47,4,.27,2.17.2-.42,1-1.55.94C76.63,39.86,70.78,39,73,37.76Z"/><path class="cls-7" d="M29.14,52.12c-.08.26-.17.5-.27.8.06-.48,3.63-1.79,2.42-.67-.84,0-1.74,1.23-2.86.86s-.56.21-1.27.75C25.15,53.63,27.35,52.82,29.14,52.12Z"/><path class="cls-7" d="M67,38.69c-3.9.38,4-2,4.68-.52C70.34,38.43,68.52,38.5,67,38.69Z"/><path class="cls-25" d="M62.05,41.22c-.4-.95,2.84-1.78,1.57-.57-.16.18-1.79.06-.37.2.66.08-.46.77,0,.6s.77.89-1.1.79c-.23.43-1.25-.48-.47-.46C62.07,41.83,62.42,41.84,62.05,41.22Z"/><path class="cls-26" d="M61.45,41.75c.49.87,0,.91-1.15,1.39-.51,0-.44,1.16-1.31.68,1-.77-.34-.16-.34-1.26.09-.65.06-.06,1.17,0C60.26,42.2,60.58,41.66,61.45,41.75Z"/><path class="cls-11" d="M39.31,46.67c-.41.87.58.33.22,1C37.51,48.67,36.08,47.87,39.31,46.67Z"/><path class="cls-25" d="M15.45,51.52c-.6-.29-1.27-2,1.12-2.6.63.34-1.3.86-.1.9,1.65.47-1.32.29-.45.55,1.05-.18.52.76-.75.38A.81.81,0,0,1,15.45,51.52Z"/><path class="cls-7" d="M56.2,45.81c-.16,0-3.87.59-3.08,0C53.47,46,56.37,44.44,56.2,45.81Z"/><path class="cls-12" d="M61.06,39.16c.85.86-2.38,1.56-3.12,1.19C57.85,40.06,60.6,39.28,61.06,39.16Z"/><path class="cls-12" d="M75.55,33.28c-1,1-.49-.08-2.12.37C73.72,35.83,70.27,33.05,75.55,33.28Z"/><path class="cls-20" d="M32.8,49.4c-.19.52-.13-.4-1.31,0-.18,0-1.39.65-.92,0C30.86,49,33.88,47.79,32.8,49.4Z"/><path class="cls-25" d="M29.15,42.81c-1,.53-2.29,1.51-3.68,1.59C26.4,43.89,28,42.71,29.15,42.81Z"/><path class="cls-9" d="M71.16,38.29c1.45-.23-1-.38-.13-.73C75.05,36.65,71.47,39.1,71.16,38.29Z"/><path class="cls-26" d="M16.18,48.8c-.75.52-3.87,1-.55-.39C14.26,49.12,15.83,46.5,16.18,48.8Z"/><path class="cls-25" d="M17.57,53.91c-.26-.13-1.85.23-1.86-.39C16.29,53.62,18.33,52.69,17.57,53.91Z"/><path class="cls-11" d="M54.21,44.81c.17.51-1.7,1.12-1.37.52C53.58,44.38,55.45,44.6,54.21,44.81Z"/><path class="cls-7" d="M75.87,33.67c.48-.16,1.43-.85,1.79.08C77.26,33.66,76.47,34,75.87,33.67Z"/><path class="cls-5" d="M15.45,51.52c-.22-.88-.41-1,.86-.73C16.51,51.17,16,51.61,15.45,51.52Z"/><path class="cls-16" d="M59.13,42.55c-.44-.72-.36,1.11-1,.25C58.15,42.29,59.25,41.33,59.13,42.55Z"/><path class="cls-7" d="M65,38.43c1,.4-.87.73-1.19.33Z"/><path class="cls-11" d="M80.48,33.15c-.39,0-1,.42-1.52.18C79.08,32.9,80,32.89,80.48,33.15Z"/><path class="cls-16" d="M75.15,38.09c-.43.24-1.84-.24.47-.46C75.69,37.74,75.54,38,75.15,38.09Z"/><path class="cls-23" d="M59,43.25c1.18-.24-.38,1.33-.53.15A.47.47,0,0,1,59,43.25Z"/><path class="cls-25" d="M59.13,42.55c-.19-.22,1-.62,1-.17C59.91,42.75,59.74,42.71,59.13,42.55Z"/><path class="cls-26" d="M16.64,50.39s-1.36.22-.92-.26C15.94,50,16.85,49.94,16.64,50.39Z"/><path class="cls-25" d="M15.65,51.52a3.18,3.18,0,0,1,1.46-.66C16.92,51.2,16.14,51.82,15.65,51.52Z"/><path class="cls-25" d="M59,43.25c.09.1-1.46,0-1.06-.5C57.94,42.83,58.82,42.79,59,43.25Z"/><path class="cls-16" d="M57.27,43.12c0,.15-.82.5-1,.05C56.37,43.05,57.11,42.74,57.27,43.12Z"/><path class="cls-12" d="M16.71,49.86c-.31.14-1.82-.28.07-.4C16.76,49.55,16.75,49.62,16.71,49.86Z"/><path class="cls-12" d="M72.89,37.76c-.65-.25.68-.79.43-.06C73.23,37.72,73.26,37.79,72.89,37.76Z"/><path class="cls-25" d="M58.13,40.55c.15,0,.93-.69.86,0C58.79,40.45,58.62,41,58.13,40.55Z"/><path class="cls-5" d="M27.15,41c-.24.41-.65.46-1.07.53A1.17,1.17,0,0,1,27.15,41Z"/><path class="cls-16" d="M60.77,41.12l-.76.09C60.06,41,60.59,40.69,60.77,41.12Z"/><path class="cls-26" d="M58.46,43.39h0C58.62,43.37,58.82,44.13,58.46,43.39Z"/><path class="cls-5" d="M25.15,41.82l-.93.46Z"/><path class="cls-24" d="M19,20.08c.07-.69,1.67-.36,1.41-1.16.92-1.75-1.51-.12.24-1.49,2.09-.21,5.74-2.8,6.39-1.88,0,.28-1.1.6-.18.54.71-.42,2.61-1.63,2.24.36,2.91.54-1.8.71-2.23,1.75.75,0,1.86-1,2.72-.72,1-.08,9.64-3.07,8.22-1.53-.19.05-3.16.8-3.06,1.59-2.39-.1-5,1.77-7.44,3.66.88-2-11.64,5-10.94,3.72,7.32-3.68-1.41.67,3.94-4.24-.24.06-1.4.15-.85-.45C19.34,20.26,19.13,20.35,19,20.08Z"/><path class="cls-10" d="M14.25,39.48c-.17-.43,3-1.65,1.77-1.63-.31.23-.5-.13-.2-.45.64-.47,1.3.52,1.61-.75-2.87.51,2.88-1.63,2.16-1.92a.65.65,0,0,0-.79.35c-.61,1.07-.93-1.13.55-1,.46,1.44,1.85-1,2.31.06-4.46,2,4.7-.68,2.67-1.26.5-.67.62-.35,1.36.06,3-.85-1.83-.91,1.6-2.17.52-.38,1.27.73,1.55-.21-.8-.8-3.71.67-1-.77,2.19-1,.66,1,1.54.48,1.06-1.11,2.22-.77,3.63-1,.8-.61.84-.31,1,.29.11-.78,1.13-.34,1.31-1.12-.2-1.11,1.32.62.63,1.17-.89,1,1.93-.48.56.64-1.21.92-.63-.94-2.7.35.21.14,1.22-.06.12.5C27.37,34,21.13,36.82,14.25,39.48Z"/><path class="cls-14" d="M30.07,32.86c1.19-.88,2.88-1.24,4.28-2.19-1.34.2.12-.85,1.12-.69.11.78,1.14.3,1.35-.19.1-.19-2.23,1.45-.48-1.05.47.27,5.67-1.63,4.08-1.59s-2.51,1.5-4,1.14c.16-1.76-1.22-.06-.87-1.3,1.9-1.52,1.38.73,2.27.14,6.39-3.1,1,.17,5.11-.3,1.32-.86,1.15,1.6,1.77,1.51,0-.91,1.12-1,1.89-.47C48.15,28.27,31.5,32.52,30.07,32.86Z"/><path class="cls-1" d="M25.65,26.06l-.44-.14c4.32-1.39-1.37-1.48,6.61-3.93.68.43,2.22-1.59,2.91.09.5.08,2-1,.86.34-.42,1.08-1,.72-2.09.77a14.34,14.34,0,0,1-4.92,2.15c-1.35,0-2.91,2.16-4.72,2-.52,0,.07-1.79.76-1.48A.65.65,0,0,0,25.65,26.06Z"/><path class="cls-1" d="M77.14,13.89c-.37,1.15-1,.47-2,1.07.38.51,4.83-.68,3.91-.15-1.54.29-7.6,1.4-2.87,1.36-3.26.62-.21.6-1.63,1.16-.42.09-2.35-.16-.92.38-2,.88-1.5.31-3,.39.2,1-.78.47-1.21-.29.12-.57.65.36,1-.16-1.24-.29,1.17-.15-.17-1.5.44.05,1.87-.57.28-.52.87-1-.38-.61-1.39-.07-1.31,0,.08-.46-.06-.63-.87-.35,1.52-.6,3.31-.81.72,0-1.21-1.68,2.26,0a1.06,1.06,0,0,0-.58,1.14c1.57-.35.31-.8.79-1C76.69,14.56,76,13.49,77.14,13.89Z"/><path class="cls-1" d="M53.28,23.91c1.3-.56-.19,1.12-1,1.42-1.18.88,8.81-2.7,7.14-.43-2.69.77-.14.05-.54,1.71-.71.27-1,.19-1.21-.41-1.71.73-3,.51-.2-.66-1.11.5-.81-.47-4.26.83,1.37-.13,1.29,1.6-.37.95.28-1-4.33-1-2.25-1.67-.87-.23-4.08,2.92-4.56,1.3-.16-.36,2-.36,1.49-.52-1.05-1.71,2,0,2.27-1.44a2.6,2.6,0,0,0,1.65-.15C49.17,24.13,53.34,24.46,53.28,23.91Z"/><path class="cls-1" d="M14.58,27.66A24.48,24.48,0,0,0,19,25.8c1.51-.51.28,1.4-1.73,2.08-.29.17-.69.36,0,.69,3.11,1.15-.18,1.86-1.69,2.33-1.83.43,4.36-2.33,1-1.59,1.15-.76-1.15-1.17-2.8,0-.24.18-1,1.35-.6.14-.07,0-1,.22-.37-.13C13.77,29.43,10.33,27,14.58,27.66Z"/><path class="cls-10" d="M54.27,21.54c-1.94-1.06,20.27-4.59,7.88-2,3.12-.13-2.47,1.08,2,.22.81.5-3,2.1-3.88.42,0,1.47-1.67,1.12-5.22,2-2.26-.64,2.75-.94,4-1.44C57.47,20.66,55.91,21.36,54.27,21.54Z"/><path class="cls-28" d="M16.44,25.13c2.22-.84,7.78-4.05,8.88-3.46-1.34,1-2.59,1.07-4.12,1.95-.61,0-.18,2.33-2.67,1.34-1.32.78-2,2.24-3.64,2.06-.27-.1,1.09-.91-.05-.67C14.49,25.91,15.91,25.33,16.44,25.13Z"/><path class="cls-8" d="M43.7,26.73c-1.09.08-.33,0-.21-.74-.57-.59-.09-1.63-1.08-1.91a.69.69,0,0,1-.16-.75c.5-.2,6.57-2.25,5.64-1.21-.5.07-4.39,1.29-1.87.81-.22.42-1.09.47-1.26,1.19-.54-.93-1.45-.63-1.12.84C44.55,26,46.59,25.74,43.7,26.73Z"/><path class="cls-1" d="M35.46,27.19c.31.77,1.18-.94,1,1.06-.25.42,6.84-2.42,3.63-.53-.26.24-5.17,1.88-4.25,1,.76-.91-2.8-.39-2.2-1.51C35.27,25.88,34.82,28.11,35.46,27.19Z"/><path class="cls-1" d="M44.9,24c-.4-2.23,9.88-1.16,3.49-.65,0,0-1.51.38-.73.45.16,0,1.35-.45.87.1C43.3,26.08,46.69,24.19,44.9,24Z"/><path class="cls-10" d="M41.24,25.73c-.16-.14-2.73,1.51-2.4.8.6-.08,1.56-.9.13-.23-5.45.13,4.23-2.91,1-.78-.24.18-.14.33.47.18s.1-.72,1.76-1.63C44.19,25.09,42.34,25.19,41.24,25.73Z"/><path class="cls-14" d="M18.31,35.3c.17-.19,1.92-1.27,1.48-.34-1,.3-1.58,1.07-2.69,1.46-1.51.2-1.78.74.57.14-.65,1.77-1.6-.09-2,1.4,0,.13-.8,1-.54.37C15.49,36.6,12.41,37.43,18.31,35.3Z"/><path class="cls-22" d="M14.38,27.66c-.6,0-2.19-.17-2.44.57.53-.21,1,2.26-.91-.11-.66-.34-1.18,1.1-1.84.4.43.05,2-2.17,2.21-1.16C10.73,28.2,15.94,25.35,14.38,27.66Z"/><path class="cls-1" d="M13.32,31.84c.15,0,.6,0,.39.37-.76.92,1.62,0,2.06-.11-.47.47-1.7.89-2.27,1.39,1.3-.28-.75,1.29-1,.66-.2-.09,1.41-.66.36-.66C10.24,33.94,12,32.55,13.32,31.84Z"/><path class="cls-10" d="M47.09,24.4c.11-.11,2.22-.81,1.19-.67-1.84.63-1-.45.63-.54.66.16.48.45.34,1.52.51-.17.83.35.22.92-1,.54-1.47-.68-2.28.61-1.47.16.23-1,1.65-1.14-1.83.1.58-1.13-1.52-.43A.75.75,0,0,1,47.09,24.4Z"/><path class="cls-24" d="M68.9,10.5c.51-.84,8.9-1.93,8.44-1.44a13.2,13.2,0,0,1-5.47.74C73.18,10.53,69.77,10,68.9,10.5Z"/><path class="cls-1" d="M49,22.2c.63.08,4.93-1.95,3.86-.4-.25.09-1.24-.2-.35.33,2-.24-.21,1.94-.4.83,2-.73-1.59.33-1.37-.18C51.69,21.35,49.77,22.65,49,22.2Z"/><path class="cls-28" d="M54.61,22.14a8,8,0,0,1,2.72-.29c-.73,1.29,1.27-.16,1,1-1.38.22-.72-.76-2.65.82C55.44,23.61,53.42,22.58,54.61,22.14Z"/><path class="cls-1" d="M41.24,25.73c-.32-1,2.7.48,1.3-1.72C45.84,27.52,40,27.82,41.24,25.73Z"/><path class="cls-6" d="M86.59,7.31c3.16,1.37-1,1.75,1.86,1.93-3.49.27-.72-.35-3-.67C86.5,8.13,85.47,7.06,86.59,7.31Z"/><path class="cls-14" d="M63.85,19.74c-5.94.36,4.33-2.14,3.85-.49C67.51,19.45,64.55,19.21,63.85,19.74Z"/><path class="cls-6" d="M23.23,22.87c-.12-.65,6.42-3.31,3.72-1.64-.33.22-.16.3-.08.8A9.36,9.36,0,0,0,23.23,22.87Z"/><path class="cls-21" d="M69.29,19.68c1.63-.85,8.29-.67,2.26.26.66.76-.25.44-1.19,0C70,19.83,69.27,20.43,69.29,19.68Z"/><path class="cls-14" d="M68.1,19.35c1.15.44-.35.48-1.95.82C68.52,22,59.81,19.76,68.1,19.35Z"/><path class="cls-27" d="M11.38,28.26c0,.15,2.31,2-.22,1.77-.11,0-1.21.91-.79.22.13-.4,2-.91.82-.75,0-.67-.09-.29-1-.49C9.92,28.48,10.79,28,11.38,28.26Z"/><path class="cls-6" d="M87.58,9.7c.28.14.63,1.26,1.27,1.08-.74.51-.7.83-1-.5-1,.47-2.56.35-3.83.47C84.52,9.9,86.87,10.23,87.58,9.7Z"/><path class="cls-24" d="M31,21.07c.18,0,3.39-1.51,2-.4-.68.06-.28.93-.86.92-.5-.74-1.39,0-2.16.47C29.72,22.36,29.58,21.34,31,21.07Z"/><path class="cls-10" d="M49,22.2c.4.28,1.88-.67,2.12,0-.14.29-.14,1-.94.71-1.23-.78-1.38-.22-2.57-.14A2,2,0,0,1,49,22.2Z"/><path class="cls-10" d="M68.1,19.35c-2.16.47,1-.31-2-.8.4,0,5.42-.51,2.76.39C68.73,19,67.9,18.79,68.1,19.35Z"/><path class="cls-1" d="M82.12,11.35c-.06.33-1.22.64-1.56,0C80.71,10.49,81.88,9.64,82.12,11.35Z"/><path class="cls-14" d="M34.53,28c.9-.4,1.91,1.61-1.13.93C33.79,28.72,34,28.15,34.53,28Z"/><path class="cls-10" d="M33.41,28.4c-.54.47-1.12.86-1.95.29a1.17,1.17,0,0,1,1.95-.29Z"/><path class="cls-14" d="M51.48,24.27c-.36,0-1.16.55-1.66,0C49.61,23.08,52.65,23.45,51.48,24.27Z"/><path class="cls-10" d="M15.25,36c-1.75.43,1.31-1.71,2-1.07C17,35.55,15.84,35.44,15.25,36Z"/><path class="cls-6" d="M14.38,27.66c1.06-1.67-.78-.05-.74-.81C13.25,26.08,17.16,25.44,14.38,27.66Z"/><path class="cls-1" d="M87.12,9.9c.94.14-4.32,1.1-4.19.34A32.72,32.72,0,0,1,87.12,9.9Z"/><path class="cls-1" d="M31,21.07c-.31-.06-1.78,1.35-2.11.5C29.1,21.57,29,20.44,31,21.07Z"/><path class="cls-28" d="M21.68,25.3l3.47-1.64C25.59,23.76,21.88,25.86,21.68,25.3Z"/><path class="cls-10" d="M23.59,32.64c.13.83-.19.81-1.08,1C23.36,33.37,21.16,32.63,23.59,32.64Z"/><path class="cls-8" d="M82.93,10.24c.29.41.36.26,1.33.2-.91.47,1.16.12-1.26,1.06C84,10.8,81.69,10.55,82.93,10.24Z"/><path class="cls-27" d="M67.92,19.84c.27-.07,2-.46,1.23.42C68.94,20.28,67.4,20.62,67.92,19.84Z"/><path class="cls-28" d="M34.73,18.28c-1.84.2.14-.54,1.15-.69C36.12,18,35.26,18,34.73,18.28Z"/><path class="cls-1" d="M41.58,24.4c.15.94-.79.66-1.53.33C40.5,24.33,40.8,24.55,41.58,24.4Z"/><path class="cls-6" d="M84.52,9.61A1.1,1.1,0,0,1,86,9.23l.18.14Z"/><path class="cls-28" d="M13.32,31.84a2.4,2.4,0,0,1-1.6.87C11.65,32.54,12.11,32.12,13.32,31.84Z"/><path class="cls-21" d="M54.41,23c.22-.08.45.73,0,.89C54.87,23.89,52.8,25.08,54.41,23Z"/><path class="cls-8" d="M50.35,23.53c0,.22-1.37,1.13-1.06.3C49.41,23.35,49.77,23.56,50.35,23.53Z"/><path class="cls-14" d="M76.35,14c.66.23-2.1.65-1,0A4.18,4.18,0,0,1,76.35,14Z"/><path class="cls-14" d="M23.84,31.65A1.15,1.15,0,0,1,25,31.11,1.19,1.19,0,0,1,23.84,31.65Z"/><path class="cls-18" d="M71.23,19.08c-.89.26-1-.43.45-.46C71.75,18.64,71.81,19,71.23,19.08Z"/><path class="cls-18" d="M53.28,23.91c.57.32-1.11.81-.79.16Z"/><path class="cls-14" d="M70.83,14.23c.4.14-.63.71-1.33.2A5.42,5.42,0,0,1,70.83,14.23Z"/><path class="cls-22" d="M86.59,7.31c-.7,0-.39.55-1.37.45C85.27,7.84,86,6.63,86.59,7.31Z"/><path class="cls-21" d="M54.27,21.54c.13-.23,1.46-.34.47.11C54.71,21.51,54.55,22,54.27,21.54Z"/><path class="cls-10" d="M68.9,14.82h0C69.56,14.87,69.39,15.4,68.9,14.82Z"/><path class="cls-17" d="M68.92,19.64c-.19.24-.44.19-.68.18C68.38,19.8,68.19,19.67,68.92,19.64Z"/><path class="cls-3" d="M49.82,33.24c1.12-1.32-3.9.57-4.71.71-1.41.53-2-.2.09-.49,1.76-.5,14.55-3.9,8.89-1.19C51.55,32.22,53.82,33,49.82,33.24Z"/><path class="cls-29" d="M37.51,37.23a4.41,4.41,0,0,1,2.25-.55C39.43,36.92,38,37.73,37.51,37.23Z"/><path class="cls-15" d="M82.46,23.48c-.87-.14.57-.73,1.09-.27C83.35,23.57,83.25,23.45,82.46,23.48Z"/><path class="cls-23" d="M88.32,24.62h0C88.71,24.72,87.61,25.29,88.32,24.62Z"/><path class="cls-1" d="M47.63,10.9c-.14.91,4.34.22,2.59-.36-1.17-.14-1.74,1.64-1.87-.44a27,27,0,0,0,6.95-.57c.56-.72,2.45-1.51,4.59-1.61-.5.85-2.08.16-2.59,1.23-.45.8,1.74,0,2.88,0s-2.35,1.27-3.89,1.43c-2,.31-11.78,3.61-11.22,1.66C44.3,11.75,45.92,11.77,47.63,10.9Z"/><path class="cls-8" d="M51,12c.43-.94,1.68.19,2.38-.75,1-.5,3.56-1.13,4.16-.71A16.93,16.93,0,0,1,51,12Z"/><path class="cls-8" d="M31.14,18.81c-1.92-.1,5.71-2.63,2.24-.79Z"/><path class="cls-19" d="M78.29,4.19c.16,0,1.47-.43,1.25.19C79.3,4.47,78.52,4.77,78.29,4.19Z"/><path class="cls-1" d="M54.94,11.43h0C54.59,11.44,54.75,10.92,54.94,11.43Z"/><path class="cls-4" d="M50.54,14h0C50.5,13.9,51.17,14.23,50.54,14Z"/><path class="cls-4" d="M59.53,10l.26-.07Z"/><path class="cls-4" d="M59.93,9.9l.13-.06Z"/><path class="cls-12" d="M37.12,52.72a25.94,25.94,0,0,1-6.51,2.53A56.54,56.54,0,0,1,37.12,52.72Z"/><path class="cls-2" d="M51.35,44.08c2.3-.5-1.08,1.44-1.8,1.21C48.43,44.44,50.81,44.73,51.35,44.08Z"/><path class="cls-9" d="M43.9,46.74c-.2-.39-2.74.72-2.12,0C42.19,46.58,46.86,45.39,43.9,46.74Z"/><path class="cls-9" d="M47.17,46.82c-.5,0-.92.64-1.61.5C44.77,46.91,46.71,46.19,47.17,46.82Z"/><path class="cls-3" d="M48.56,45.94c-.16.23.57,1-.22,1C48.1,46.81,47.76,46.22,48.56,45.94Z"/><path class="cls-15" d="M51.75,48.55c.54.44,0,1.51-.51.13Z"/><path class="cls-3" d="M56.6,46.67c.23-.54.43-.57,1.32-.55A2.17,2.17,0,0,1,56.6,46.67Z"/><path class="cls-5" d="M55.8,47.2c.36.1,0,.56-.39.34C55.36,47.38,55.4,47.25,55.8,47.2Z"/><path class="cls-2" d="M20.7,57c.18-.42.44-.52.66-.27Z"/><path class="cls-9" d="M24.93,55s-1,.4-.3,0C24.62,55.11,24.83,54.73,24.93,55Z"/><path class="cls-11" d="M44.23,46.67l.34-.2Z"/><path class="cls-11" d="M44.7,46.4l.2-.19Z"/><path class="cls-12" d="M37.39,52.65l-.14.07Z"/><path class="cls-2" d="M24.36,39.56c-3.38.36.67-2.3,1.91-1.6,0-.27,1.66-1.24,1.74-.42C27.67,38.53,25.24,38.68,24.36,39.56Z"/><path class="cls-3" d="M24,35.45c.38-.33,4-1.58,3.12-.63a7,7,0,0,1-2.43.59C24.77,35.77,23.69,36.13,24,35.45Z"/><path class="cls-2" d="M27.32,35.61a4,4,0,0,1-1.79.85A3.13,3.13,0,0,1,27.32,35.61Z"/><path class="cls-2" d="M25,36.26c.14.52-.3.82-1,.65A1.4,1.4,0,0,1,25,36.26Z"/><path class="cls-2" d="M33.49,32.72c.57.07-.35,1.17-.66.59C32.83,33.17,32.89,33.11,33.49,32.72Z"/><path class="cls-2" d="M28.36,35.06c.05.06,1-.54.9,0C29.21,35.27,28.55,35.35,28.36,35.06Z"/><path class="cls-16" d="M38.32,31.84c-.16,0-.32.35-.93.07C37.61,32,37.77,31.29,38.32,31.84Z"/><path class="cls-26" d="M30.88,32.84c0-.47.4-.3.66-.33C31.35,32.7,31.24,33,30.88,32.84Z"/><path class="cls-9" d="M38.12,31.64c-.34.07-.32-.45.42-.33C38.58,31.43,38.47,31.45,38.12,31.64Z"/><path class="cls-24" d="M33.8,14.85c-.35,1-1.21.8-2.16.85-1.92,2.28-3.14-2,.45-.55C32.65,13.69,32.52,14.23,33.8,14.85Z"/><path class="cls-28" d="M46.56,10.11c-2.19-.31-4.72,2-4,.54,0,.39.8,0,1-.67-.07-.11-1.06-.21-.44-.51C45.07,10.42,44.47,8.85,46.56,10.11Z"/><path class="cls-6" d="M50.48,12.3c2,0-1.92,1.21-3,.85A9.21,9.21,0,0,1,50.48,12.3Z"/><path class="cls-22" d="M38.92,11.23c1.28.75.45.91-.64.86C37.69,11.77,38.44,11.91,38.92,11.23Z"/><path class="cls-17" d="M36.79,12.7c-.06.43-1.36.93-1,0C36,12.36,36.63,12.16,36.79,12.7Z"/><path class="cls-21" d="M44.17,10.7c-.06-.78,2.77-1.09,1.13-.06C44.87,10,45,10.83,44.17,10.7Z"/><path class="cls-22" d="M36.79,12.7c-.43-.5-.8.07-1.4-.77C35.7,11.75,37.07,12,36.79,12.7Z"/><path class="cls-14" d="M43,12.37c-.33-.12-.12-.65.71-.45C43.88,12.1,43.83,12.34,43,12.37Z"/><path class="cls-19" d="M44.57,10.76c-.42-.3,1-.8.73-.12C45.16,10.61,45.4,10.78,44.57,10.76Z"/><path class="cls-21" d="M27.08,15.55c-.44-.15.19-.69.8-.26A3.12,3.12,0,0,0,27.08,15.55Z"/><path class="cls-17" d="M33.52,13c.22.07.38-.68.94-.13A.89.89,0,0,1,33.52,13Z"/><path class="cls-21" d="M40.91,11.29c.26-.3,1.16.2.07.28C40.94,11.53,40.89,11.49,40.91,11.29Z"/><path class="cls-18" d="M40.91,11.29c.31.2-.55.72-.49.14Z"/><path class="cls-21" d="M40.42,11.42c.35.16-.55.71-.37.18A.8.8,0,0,1,40.42,11.42Z"/><path class="cls-21" d="M29.8,14.15c.21,0,.45.66-.33.28C29.48,14.29,29.55,14.16,29.8,14.15Z"/><path class="cls-21" d="M44.9,10.78l.2-.07Z"/><path class="cls-8" d="M50.82,12.3h-.2C50.62,12.37,50.79,12,50.82,12.3Z"/><path class="cls-24" d="M69,6.84c-.75-1.58,4.28-.71,2.06-.37A2.27,2.27,0,0,0,69,6.84Z"/><path class="cls-15" d="M49.77,50.26c-.22.31-1.24-.13-.44-.47C49.55,49.74,49.67,49.84,49.77,50.26Z"/><path class="cls-2" d="M51.36,49a1.28,1.28,0,0,1,.11.2C51.41,49.18,51.06,49.34,51.36,49Z"/><path class="cls-2" d="M49.48,49.26Z"/><path class="cls-14" d="M81.67,17.07c-.11.08-2.44.66-2.18-.09,1.47-.63,1.42-.84-.54-1,.9-.49,1.72,0,2.27-.85-.39.14-2.69.24-1-.08,1.43-.75,4.5.38,1.18,1.45C80.87,17,82.37,16.33,81.67,17.07Z"/><path class="cls-8" d="M71.61,18.87c-.21-.64,6.06-1.51,3.33.25,1.85.22.49.84-.93.81-.7-.29.19-.25-.28-1C74.78,18.71,72.76,18.85,71.61,18.87Z"/><path class="cls-6" d="M87.18,12.56c.76.29-.37.47-1.64,1.31C82.75,12.17,85.58,13,87.18,12.56Z"/><path class="cls-14" d="M78.27,17.75c-.1,0-3.67.2-2.38-.28.79.14,1-.43,1.7-.65.65-.05-.51.45.22.44C78.32,17.23,79.27,17,78.27,17.75Z"/><path class="cls-4" d="M85,11.5c1.84.35,1.56-1,2.65-.24C87.81,12.06,84.07,12,85,11.5Z"/><path class="cls-17" d="M86,13.82c-1.21-.91,1.74,0,3.79.07A9.49,9.49,0,0,1,86,13.82Z"/><path class="cls-4" d="M80.58,13.3c-.45.14-4.58.6-1.73-.08C78.33,13,80.49,12.84,80.58,13.3Z"/><path class="cls-28" d="M79.14,19c.5,1-2.28-.32-1.6-.71A1.44,1.44,0,0,1,79.14,19Z"/><path class="cls-21" d="M79.14,19c-.3-.33-1.19-.38-.14-1.09,0,0-1.09,0-.53-.31.73-.13,1-.39.71.86C79.58,18.49,80,18.47,79.14,19Z"/><path class="cls-28" d="M75.55,19.35c-2.53-.22.66-1.14,1.52-.72C76.65,19,75.2,18.51,75.55,19.35Z"/><path class="cls-8" d="M70.76,18.48c-1.41-.32,1-1.1,1-.13Z"/><path class="cls-27" d="M79.09,18c.13-.25.63-.95,1.18,0A1,1,0,0,1,79.09,18Z"/><path class="cls-21" d="M76.47,18.69c1-.83,2.44.9.83.33C77.44,18.53,76.61,19.18,76.47,18.69Z"/><path class="cls-4" d="M84.33,11.3c.19-.38.82-.3,1.42-.17C85.79,11.29,85.24,11.41,84.33,11.3Z"/><path class="cls-28" d="M75.68,18.35c-1,.45-.55-.81.46-.09Z"/><path class="cls-29" d="M83.26,41.9c-3,.82-.71-.8,1.71-1.21-1.89,0-4,.66-6.14.83-1.71-.22,4.41-1,3-1.2-.68-.67,1-.2,1.8.1.5-.32,2.12-.66,2.78-.13-1.55-.4-1,.56-1.57,1.09C84.54,41.39,82.18,41.47,83.26,41.9Z"/><path class="cls-5" d="M75,41.29c-.83-.4-10.18,2.51-7.17-.16C70.44,41.19,72.65,40.49,75,41.29Z"/><path class="cls-5" d="M79,40.54c-.7.54-2.17-.19-.91,1-1.35-.1-2.72,1.15-1.31-.53-1.55.13-1.84-.8.94-.59C78.14,40.49,79.48,39.51,79,40.54Z"/><path class="cls-20" d="M75.82,41c2.67-.29.78.79-1.48,1.19C76.21,41.33,71.58,42.67,75.82,41Z"/><path class="cls-16" d="M83.4,40.48c-.52-.25-1.23-.68-1.93-.26-.06-.5,2.14-1.1-.18-1.16,1.81-.93,1.59-1.23,2.11.92C83.69,40,83.69,40.35,83.4,40.48Z"/><path class="cls-16" d="M62.12,42.22c.24-.23.88,0,1.4-.21.14-.31,0-.86.7-.57.13,1,1.36,0,.35,1.05.41-.11.77.34-.12.54-.31,0-3.06-.25-.5-.38C63.36,42.42,63.06,42.5,62.12,42.22Z"/><path class="cls-5" d="M65,42.68c-1.45-.06-.12-1,1.2-1C67.78,42.48,66.13,42.44,65,42.68Z"/><path class="cls-25" d="M67,42.23c.07-.29-3.94-1-2.06-1.24.73.06,1-.28,1.5-.73.34.33-.13,1,.24,1.34C66.81,41.53,68,42.25,67,42.23Z"/><path class="cls-5" d="M62.12,42.22c1.06,0,1.51.57-.13,1C61.38,43.49,60.78,42.49,62.12,42.22Z"/><path class="cls-16" d="M81.13,40.29c-.26-.33-2.18.89-.86-.57C80.33,38.56,81.12,39.36,81.13,40.29Z"/><path class="cls-26" d="M81.13,40.29c-.39-.35-.58-2,.26-.93C81.49,39.18,82.07,39.93,81.13,40.29Z"/><path class="cls-16" d="M74.35,43.16c.3.63-1.64.92-.92.31C73.06,43.5,72.85,42.87,74.35,43.16Z"/><path class="cls-7" d="M69,44.48c.17.54-.78,1.41-.74.06C68.47,44.6,68.52,44.29,69,44.48Z"/><path class="cls-2" d="M69,44.48c-.55-.41-.69-.77.59-.55C69.79,43.45,70.58,44.09,69,44.48Z"/><path class="cls-26" d="M80,40c.22.37-1,.88-.91.3C79.12,40,79.6,39.84,80,40Z"/><path class="cls-25" d="M77.15,42.69c.25-.33.44-.36,1.08-.17A1,1,0,0,1,77.15,42.69Z"/><path class="cls-25" d="M65.38,44.68c-.84,0-.7-.63.39-.2C65.66,44.5,65.81,44.59,65.38,44.68Z"/><path class="cls-5" d="M73.29,43.15c-.11.16-.09.23.28.31C73.18,44,72.3,43.23,73.29,43.15Z"/><path class="cls-5" d="M63.25,43a8.9,8.9,0,0,1,1.46,0A2.59,2.59,0,0,1,63.25,43Z"/><path class="cls-16" d="M69.57,43.81l.21.17C69.38,44.19,68.05,43.94,69.57,43.81Z"/><path class="cls-15" d="M73.56,43.81c-.24-.2.87-.4.45,0C73.91,43.8,74,44,73.56,43.81Z"/><path class="cls-16" d="M77.54,41c-.06-.06-.44,0,0-.26C77.37,40.78,78.11,40.76,77.54,41Z"/><path class="cls-9" d="M73.56,43.81l.13.06h-.21Z"/><path class="cls-5" d="M12.19,44.48c1.1-1.38,1.73-.69,3.34-1.53-.94.86.3.58-.15,1.35,1.83-.46,1.44.59.37,1.42-.82,0-1-.81-1.31-.82-.76.62-1.23-.18.14-.64-1.17-1-1.89,1.76-4.5,2.07C9.76,45.4,11.8,45.29,12.19,44.48Z"/><path class="cls-25" d="M14,43.94C15.79,44,12.88,45,14,45c2.52-1-1.59,1.62-2.92,1.88C10.23,46.62,12.6,44.73,14,43.94Z"/><path class="cls-29" d="M12.19,44.48c.24.72-2.41.93-2,1.83.21,0,1.29-.6.78.1-1,.91-3.57.25-1.74-.52.26-.18.12-.28-.29,0C7.27,45.78,11.59,44.72,12.19,44.48Z"/><path class="cls-3" d="M19.83,44.34c-.06.09-1.79,1-.79.84.61,0,.07,1-1.39.65.12-.08,1.11-.6,0-.29A6.64,6.64,0,0,1,19.83,44.34Z"/><path class="cls-16" d="M8.8,45.47c-.55.75.5-.17.62.32-.21.34-.46.28-1.45.75-.53.21-.26.12,0-.49C7.66,45.54,7.8,45.45,8.8,45.47Z"/><path class="cls-5" d="M15.25,46.54c0-.16-.26-.81.4-.62Z"/><path class="cls-25" d="M61.31,42.67c.77,1-.87,1.26-1.94,1.25A2.79,2.79,0,0,1,61.31,42.67Z"/><path class="cls-9" d="M52.28,44.28c-.48-.22.38-.57.58-.13Z"/><path class="cls-1" d="M19,20.08c1.46.12,0,.14.54.52.23.22,1.63-.34.31.43-1.23,2.14-3,1.87-5.55,3.14-1.17-.08,2.09-1.41.63-1.13-1.4.89-1.43.26-3.11,2-1.2-.05,0-1.23-.58-.89-1.16.48-2.18.43-3.14,1.5-1.49-.4,3.61-2.37,4.17-3.18-.7.16-.33-.69.76.08C15.24,21.69,16.78,21.1,19,20.08Z"/><path class="cls-4" d="M19,18.48c.63-.39-.32,1.16-.87.67C17.51,19.35,18.54,17.86,19,18.48Z"/><path class="cls-10" d="M29.8,14.15c-.27.57-1.56.24-.22-.3C29.73,13.83,29.83,13.91,29.8,14.15Z"/><path class="cls-1" d="M34.26,12.63c-.12,0-.43-.13-.08-.26C34.22,12.38,35.15,12.26,34.26,12.63Z"/><path class="cls-1" d="M5.54,25.46c-.46-.35,1.15-.82,1.86-1.37C10.07,22.75,6.33,25.16,5.54,25.46Z"/><path class="cls-1" d="M8.88,23.21a5.37,5.37,0,0,1,2.15-1C10.88,22.4,8.93,23.88,8.88,23.21Z"/><path class="cls-26" d="M96.43,32.05c-1.54,1-1.11.54-3.17.56,1.88.25-1.65.72-2.47-.36C91.76,31.79,94.63,32.41,96.43,32.05Z"/><path class="cls-5" d="M91.51,32.12c-.85-.38-1.74.56-2.33.49-.05-.23-1.42-.43-.7-.89C89.23,31.7,91.45,31.21,91.51,32.12Z"/><path class="cls-18" d="M89.25,13.89c-5-.35-.79-1.33,1.53-.59C90.55,13.86,88.9,12.92,89.25,13.89Z"/><path class="cls-21" d="M87.33,13.14l-.46.08c.92.27-.14.59-.62.14C86.35,13.17,87.26,12.68,87.33,13.14Z"/><path class="cls-21" d="M90.78,13.3c-.32-.2.55-.34,1-.11A2.59,2.59,0,0,1,90.78,13.3Z"/><path class="cls-7" d="M84.39,36.37c-2.06,0-.3-1,1.09-1.15.1-.27-.92,0-2.34-.1-1.13-.24,1.59-.35,1.86-.82.58-.19-.69-.12-1.56.07,1.08-1.38,5.92,0,1.85,1.27C86.44,35.57,85.64,36.37,84.39,36.37Z"/><path class="cls-12" d="M85.72,36c.39-.62-.38,0-.66-.41.55.15,1.73-1,2-.72C86.15,35.89,88.45,36.22,85.72,36Z"/><path class="cls-12" d="M92.57,33c.23-.16.63.58.13.43C92.56,33.31,92.56,33.43,92.57,33Z"/><path class="cls-8" d="M16.58,23.2a3.46,3.46,0,0,0,2.26-1.06c-.86,1.8,1.21.64.83,1.23-2.85,1.43-5.29,2.86-8.21,4.51-.55,0,1.17-1.72,1.57-2.91C14.34,25.14,15.53,24.23,16.58,23.2Z"/><path class="cls-4" d="M16.58,23.2c-2.18,2.66-2.89,1-4,2.73,0-.87,0-.48-1.47-1-.95.71-.08-.36-.35-.36-.44.3-1.67,1-2.07.28.72-.06,2.46-1,2.92-.79-.7.59.5,1.47.7.24.58-.72,5.59-2.57,1.94-.46C13.6,24.7,16,23,16.58,23.2Z"/><path class="cls-22" d="M9.53,25.13c2-1.22,1.87-.59.23.95,3.94-1.51-4.07,3.31-2.49,1.31C4.3,28.25,8.83,26.07,9.53,25.13Z"/><path class="cls-18" d="M11.38,28.26c-1.58-.41-.65,1.5-1.76,1-1.74.42-2.1-.79,0-.57C10.2,28.45,10.69,27.58,11.38,28.26Z"/><path class="cls-21" d="M6.27,27.59c.23.05.71-.29,1.09-.23-.83.36.27.44-.32.66C6.84,28.25,5.75,28,6.27,27.59Z"/><path class="cls-13" d="M7.73,28.91c.44-.17.24.77-1.27.93C6.35,29.8,6.5,29.22,7.73,28.91Z"/><path class="cls-17" d="M5.87,28.52c-.48.14-.84-.79-.06-.66C5.91,28.25,6.77,28.08,5.87,28.52Z"/><path class="cls-18" d="M6.33,28.25c-.72.24-.87-1,.47-.13Z"/><path class="cls-17" d="M8,29.05c.07.14.14.17,0,0C7.89,28.61,8.64,28.93,8,29.05Z"/><path class="cls-17" d="M7.73,28.91,7.4,29C7.43,28.84,7.35,28.85,7.73,28.91Z"/><path class="cls-27" d="M8.07,29.18c4.29-.47-1.16,1.65-3.19,1.85,1.9-1.15-.58-1.54,2.53-2-1.23.77-1.21,1.07.32.31C6.94,30.28,7.81,30,8.07,29.18Z"/><path class="cls-18" d="M10.19,30.45c.44.35,1.47-1.22,2-.2-.56.39-1.31.46-1.1,1.53-.43-.65-1.36.9-1.34.14C10.65,31.33,9.14,31.29,10.19,30.45Z"/><path class="cls-6" d="M6.92,23.11c0-.17,1.64-1.11.83-.37C7.49,22.84,7.43,23.31,6.92,23.11Z"/><path class="cls-26" d="M14.45,47.14c4.08-.21-5.21,3.29-5.61,2.71,1.3-.76,2.64-1.52,3.95-2.32C14,47.21,10.73,49.54,14.45,47.14Z"/><path class="cls-23" d="M13.85,48.33c.37-.08,2.28-1.11,1.16.16,2.18-.48-.58.2-.9,1-.9.63.85,1.24-1.28,1.11-.14-.43.8-1-.35-.8C12.24,49.2,15.39,48.78,13.85,48.33Z"/><path class="cls-26" d="M13.78,50.73c-.35-1.93,1.45-1.2,1.14.06-.94-.39-.28,0-1.36.4Z"/><path class="cls-23" d="M14,51c0-.61,1.31-.59.88.22C14.15,51.23,15.35,50.63,14,51Z"/><path class="cls-5" d="M13.56,40.76a.68.68,0,0,1-.83.27C12.75,40.77,12.84,40.84,13.56,40.76Z"/><path class="cls-8" d="M50.94,9.34h0C51.22,9.34,51.61,9.87,50.94,9.34Z"/><path class="cls-30" d="M49,8.77h0C49.27,8.64,49.11,9.23,49,8.77Z"/><path class="cls-29" d="M85.72,36c.72-.33,2.73.35.72.5-.29.53.12-.34-1.08-.22-.21,0-.3.37.44.35C85.07,37.56,82.25,36.45,85.72,36Z"/><path class="cls-23" d="M83.07,39c-.63-1.08,1.83-.61.91-.46-1.08-.4-.44,1.18.29.06C85,38.55,83.08,41.21,83.07,39Z"/><path class="cls-25" d="M83.14,38.31c-.76-.09-1.61-2,.45-.81C83.55,37.81,83.09,37.8,83.14,38.31Z"/><path class="cls-15" d="M84.27,38.55c.1.55-1.35.73-.9-.13C83.66,38.31,83.74,38.23,84.27,38.55Z"/><path class="cls-26" d="M83.84,36.51c1.07.57-1.32,1.11-.77.19C83.19,36.55,83.37,36.46,83.84,36.51Z"/><path class="cls-23" d="M82.94,37c.08.14,1.19-.15,1,.33C83.75,37.5,82.85,37.77,82.94,37Z"/><path class="cls-15" d="M83.39,40c-.24-.42.76-.55,1-.1C84.27,40,84.11,40.31,83.39,40Z"/><path class="cls-26" d="M84.13,39.68c0-.1-.58.07-.3-.3C84,39.38,84.31,39,84.13,39.68Z"/><path class="cls-16" d="M9.26,46.87a3.9,3.9,0,0,0,2.19-1.06C11.48,46.27,9.47,48.72,9.26,46.87Z"/><path class="cls-26" d="M9.46,48.67c.49-.14,1-.82,1.8-.74C10.85,48.11,10.24,49.14,9.46,48.67Z"/><path class="cls-16" d="M13.32,47.67c-.05.08-.77,1.2-.85.43C12.59,47.91,12.89,47.51,13.32,47.67Z"/><path class="cls-16" d="M12.2,47.74c0,.19-.08.51-.48.17Z"/><path class="cls-22" d="M41.18,10.43c.16-.45,1.58-1.06,1.18-.4C41.91,10.12,41.67,10.66,41.18,10.43Z"/><path class="cls-17" d="M38.92,11.23c.06.1-.44,1.13-1.05.28A2,2,0,0,1,38.92,11.23Z"/><path class="cls-17" d="M38.12,11h.54S38.19,11.55,38.12,11Z"/><path class="cls-6" d="M6.14,27.78c0,.07-3,.38-.51-1.11C3,27.17,6.91,25.94,9.34,25,10,25.87,6.36,26.85,6.14,27.78Z"/><path class="cls-21" d="M82.4,21.27c.19-.12-8.79,2-4.45.18-.67,0-.65-1,1.84,0A2.36,2.36,0,0,1,82.4,21.27Z"/><path class="cls-13" d="M79.4,19.41c2.2-1.06.24,2.6-.25,1.25-.12-.1-.25-1.48.24-.91C80.13,20.3,80.74,19.61,79.4,19.41Z"/><path class="cls-21" d="M81.27,19c.16,1-.38,1-1.12-.07C80.43,18.59,80.42,18.77,81.27,19Z"/><path class="cls-19" d="M79.4,19.41c1.79,0,.25,1.56-.25,0Z"/><path class="cls-13" d="M79.09,18c.07.14,1.15-.16,1,.35C79.8,18.53,78.93,18.76,79.09,18Z"/><path class="cls-19" d="M79.47,21c-.21-.46,1.18-.63.92,0A1.13,1.13,0,0,1,79.47,21Z"/><path class="cls-19" d="M81.94,18.09c.48,0,.36.6-.66.51C81.37,18.37,81.38,18.28,81.94,18.09Z"/><path class="cls-10" d="M81.6,20.94c-.19,0-.33.47-1,.07C80.57,21.17,81.77,20.19,81.6,20.94Z"/><path class="cls-28" d="M81.6,20.94c0-.21-.07-.28-.27-.27C81.59,20.27,82.54,21,81.6,20.94Z"/><path class="cls-22" d="M81.21,20.7a.43.43,0,0,1-.49.29A.42.42,0,0,1,81.21,20.7Z"/><path class="cls-13" d="M10.12,32c0-.92,1.64-.15.73.28C10.62,31.86,11.08,31.76,10.12,32Z"/><path class="cls-30" d="M71.62,44.92c-1.2-.62-.78-.93.66-.9C72.87,44.24,72.26,44.64,71.62,44.92Z"/><path class="cls-18" d="M12.83,31.16c-.18.35-.41.39-1.12.19A.82.82,0,0,1,12.83,31.16Z"/><path class="cls-18" d="M89.17,8c1.15.57-.91,2.24-.12.56C88,9,87.58,7.74,89.17,8Z"/><path class="cls-27" d="M87.13,7.24c-.13-.65.91-.58,1.25-.19C87.9,7.32,87.86,6.89,87.13,7.24Z"/><path class="cls-23" d="M83.33,41.41c.13.05,1.41-.34,1.13.16C84.31,41.83,83.08,42.14,83.33,41.41Z"/><path class="cls-15" d="M86.39,41.48c.13-.33.36-.21.57-.11C86.84,41.69,86.62,41.6,86.39,41.48Z"/><path class="cls-26" d="M85.36,40.7c-.06.07.59-.28.35.14C85.69,41,85.3,41,85.36,40.7Z"/><path class="cls-6" d="M67.37,4.39a1.12,1.12,0,0,1-1.17,0C66.57,4.45,66.76,4.07,67.37,4.39Z"/><path class="cls-19" d="M87.46,7.05c.26,0,1.83-.12,1.68.19C88.38,7.15,88.47,8.24,87.46,7.05Z"/><path class="cls-27" d="M88.31,6.63l.16-.19C88.53,6.54,88.78,6.61,88.31,6.63Z"/><path class="cls-16" d="M67.74,44.25c-.08-.07-.38.29-.49,0C67.32,44.13,67.45,44,67.74,44.25Z"/><path class="cls-13" d="M83.07,22.4c-.15.27-.85.34-.37-.31Z"/><path class="cls-15" d="M92.24,26c1.77-.18.62.62-.95.35C91,26.14,91.47,25.69,92.24,26Z"/><path class="cls-26" d="M92.24,26c-.23-.2-1,.4-1.18,0S92.15,25.61,92.24,26Z"/><path class="cls-30" d="M81.45,22.84c-.24.41-2.55.54-1.55-.34C80.16,22.54,81.67,22.11,81.45,22.84Z"/><path class="cls-4" d="M78.94,21.94a5.31,5.31,0,0,1,2.2-.26c-.65.34.5.16-.07.62C80.12,22.42,81.11,22.22,78.94,21.94Z"/><path class="cls-26" d="M79,22.08c.14-.08,1.79-.2.63.94C79.39,22.45,78.47,23.11,79,22.08Z"/><path class="cls-19" d="M80,22.4c-.7-.06.08-.83.4-.13C80.4,22.36,79.94,22,80,22.4Z"/><path class="cls-23" d="M81.45,22.84c.07-.4-.24-.34-.46-.38C81.19,22.17,82.44,22.65,81.45,22.84Z"/><path class="cls-15" d="M81.26,22.14c-.06-.26.31-.37.65-.1Z"/><path class="cls-23" d="M93.83,32.84c-.67,0-1-.66.59-.32C94.4,32.75,94.28,32.84,93.83,32.84Z"/><path class="cls-16" d="M89.9,32.72c-.16-.12.18-.43.63,0Z"/><path class="cls-18" d="M89.78,13.89H89.5C89.53,14,89.66,13.64,89.78,13.89Z"/><path class="cls-26" d="M83.33,41.41c.14.39.28.55-.59.48C82.68,41.76,82.82,41.76,83.33,41.41Z"/><path class="cls-25" d="M14.05,52.3c-.26.21-.13-.76.8-.74C15,51.76,14.89,51.9,14.05,52.3Z"/><path class="cls-18" d="M82.8,19.14c-.76.2,0-1.12.38-.71C82.84,18.46,82.67,18.72,82.8,19.14Z"/><path class="cls-14" d="M58.93,25c1.89-.81-1.32-.93.53-1,4,.12,7.45-1.7,11.75-1.81.42.46-3.69,1.94-3.86,1.26a10,10,0,0,1-2.86.54c1.28,0,5.91.27,1.47,1.26-1.14.23.73-.45-.33-.4,0,.08-1-.19-.64.23.63.39-1,1-1.11.33.45-.49.08-.38-.54-.3-.14.18-1.72,1.69-1.88.73,1-.33,0-.33.26-.95C61.73,24.18,59.07,26.41,58.93,25Z"/><path class="cls-12" d="M54.77,27.9c1.3.9,1.31.32,2.61.36-.3,1.31-2.89.52-4.36.81-2.46,1.83,2.16-.34,1.39.84-.7.21-3.59,1.25-3-.1h-.74c-1.29-.14.77-1.47,2-1.92C53.08,28.83,53.42,28,54.77,27.9Z"/><path class="cls-5" d="M41.77,29.62c1.06-.61,1.67.16,3-.32.41-.45,3.12-1.08.81.1,2.61.9.11.56-2.11,1.58-.85-.05-.62-1.56-1.33-.59-.26-.09-1.73,1.94-1.51,1.12C38.72,30,41.34,30.77,41.77,29.62Z"/><path class="cls-25" d="M46.76,30c.08-.26-2.62-.25-.59-.91.11-1.27.46-.82,2.39-.75.7.09.82-.68,1.16-.92.57,0,.73.2.11,1,3.6.35-.26.7-1.7,1.3-.48-.26.88-.77-1.23-1.27C47,29.34,48.18,28.28,46.76,30Z"/><path class="cls-14" d="M79,22.08c-.09.61-2.43,1.33-3.28,1.61C69,23.43,75.64,22.28,79,22.08Z"/><path class="cls-15" d="M54.77,27.9c-.58.05-2.68,1.32-1.58-.2-.15-.17-1.39-.34-.91-.77,1.17-.41.17.23.89.45,2.13-.23,0-.63,1.66-.95,0-.14-.53-.39.12-.38,3.51,1,2.28.37-.33,1.35-1,.37.72-.26,1.32-.22C57.13,27.5,55.37,27.68,54.77,27.9Z"/><path class="cls-30" d="M72.9,23.35c2.39,0-4.26,1.71-5.4,1.5A12.59,12.59,0,0,1,72.9,23.35Z"/><path class="cls-8" d="M58.85,25.19c1.19.46,1.61.29,2.7-.61.89.59.17,1.69-1.47,2.11C59.9,25.5,58.44,25.62,58.85,25.19Z"/><path class="cls-19" d="M59.73,25.81c-.27.2.79.8.06,1-.7-.39-2.9,1.18-2.76.1C58.48,26.41,58,27.18,59.73,25.81Z"/><path class="cls-25" d="M39.85,30.78c1.93.59-.27,2.27-.18.94.34-.27,0-.37-.34-.78Z"/><path class="cls-25" d="M41.77,30.78c-.38-.52,1.6-1.34,1-.07C43.94,30.64,43.48,31.41,41.77,30.78Z"/><path class="cls-28" d="M65.11,25.46c-.58-.62-.39-.82.89-.72C66.31,24.81,66.09,25.19,65.11,25.46Z"/><path class="cls-11" d="M77.6,24.87l-2.1.2C75.69,24.78,77.44,24.36,77.6,24.87Z"/><path class="cls-15" d="M63.91,25.58l.26.1c-.94.17-.57.05-2.52.43A4.15,4.15,0,0,1,63.91,25.58Z"/><path class="cls-28" d="M77.27,23a3.49,3.49,0,0,0,1.64-.82C79,22.42,78.85,23.17,77.27,23Z"/><path class="cls-23" d="M48.51,29.77c-.68-.58,2-.87.45-.11A.77.77,0,0,1,48.51,29.77Z"/><path class="cls-7" d="M47.13,31.31c-.9.08.3-1,.5-.2C47.57,31.26,47.42,31.35,47.13,31.31Z"/><path class="cls-17" d="M73.43,23.74c-.23-.27.66-.42.92-.15A1.47,1.47,0,0,1,73.43,23.74Z"/><path class="cls-23" d="M57,27.05c.67.19-.89.74-.53.15C56.57,27.08,56.69,27,57,27.05Z"/><path class="cls-25" d="M44.37,30.65c-.2-.18.32-.67.53-.14Z"/><path class="cls-25" d="M48.62,29.76l.34-.1Z"/><path class="cls-25" d="M80.6,37.56c2.84-1.13,1.07,2.54.61.23-.43.34-.24.92-1,.16,1,1.57-1.59.89-.81,1.25.17,0,.81-.06.37.32-2.64,1-.69-.44-2.48.16.34.79-3.58,1.07-2.62.08C77.09,39.84,78.76,38.55,80.6,37.56Z"/><path class="cls-5" d="M80.6,37.56c-1,0-1.33,2.56-2.66.11-.23-.29-2,.68-2.32-.05a15.17,15.17,0,0,1,4.82-.7C80.05,37.26,79.08,37.65,80.6,37.56Z"/><path class="cls-3" d="M79.88,39.16c0,.18,1.33-2.28,1.56-.69.22,0,.13.11.55-.22.72-.12-1.07-1.22.94-1.28-1.67.77.68.67-.25,1.55a20,20,0,0,1-2.27.74C80.4,40.18,79.71,40.44,79.88,39.16Z"/><path class="cls-7" d="M78.66,35.65a25.72,25.72,0,0,1,3.66-1C82.82,35.4,79.21,35.87,78.66,35.65Z"/><path class="cls-29" d="M82.94,37c-1.13-.14-.72-.44.34-.45A3.79,3.79,0,0,0,82.94,37Z"/><path class="cls-3" d="M88,31.43c0,.23-1.06.17-.31,0C87.66,31.47,87.86,31.19,88,31.43Z"/><path class="cls-7" d="M40.6,49.28h0C40.54,49.28,40.71,49.16,40.6,49.28Z"/><path class="cls-11" d="M30.8,52.32h.27C31,52.25,31.07,52.59,30.8,52.32Z"/><path class="cls-16" d="M14.45,47.14a.65.65,0,0,1-.68.6.72.72,0,0,1-.25-.07C13.74,47.6,13.54,47.46,14.45,47.14Z"/><path class="cls-16" d="M16,48.13c-.2-.2-.77-.29.06-.65C16.09,47.61,16.08,47.68,16,48.13Z"/><path class="cls-3" d="M48.69,42.88c-.21-.07-.11-.13,0-.2Z"/><path class="cls-7" d="M46.3,45.54a.55.55,0,0,1-.36-.69.56.56,0,0,1,.65-.37C47.33,44.65,47.39,45.41,46.3,45.54Z"/><path class="cls-7" d="M44.9,44.08c.39.44-1,1.19-1.34.53C44.08,44.46,43.94,44.16,44.9,44.08Z"/><path class="cls-7" d="M45.1,44.94c0,.1-1.28.93-.86.16C44.38,45,45.11,44.48,45.1,44.94Z"/><path class="cls-20" d="M46.83,45.41c.12-.21.38-.37.2-.67C47.42,44.9,47.73,45,46.83,45.41Z"/><path class="cls-3" d="M44.83,44.08h-.26C44.61,44,44.55,44,44.83,44.08Z"/><path class="cls-11" d="M64.65,39.49c.23,0,4.94-1.32,2.82.08C67.35,39.46,64.09,40.44,64.65,39.49Z"/><path class="cls-2" d="M59,40.55c-.3-.23,1.3-.77,2.93-.79C62.41,40.43,60.2,40.22,59,40.55Z"/><path class="cls-16" d="M64.65,39.49c1.19,1.1-1.42,1.61-.87.83,0-.5.9,0,.5-.34C63.6,40,64.05,38.29,64.65,39.49Z"/><path class="cls-16" d="M67.11,39c-.15.13-1.78.56-1-.06C66.16,38.93,67.46,38.39,67.11,39Z"/><path class="cls-16" d="M62,40c-.23-.43.56-.69,1.12-.53C63.18,40,62.55,39.89,62,40Z"/><path class="cls-3" d="M62.19,40.49c.22.38,0,1-.66.23A.78.78,0,0,1,62.19,40.49Z"/><path class="cls-11" d="M63.11,39.5l-1.06.13C61.93,39.18,63.88,39.2,63.11,39.5Z"/><path class="cls-23" d="M64.06,39.9c.23-.24.86.67,0,.27C64.09,40.14,64,40.17,64.06,39.9Z"/><path class="cls-3" d="M20.63,55.72a.76.76,0,0,1-1,.1.61.61,0,0,1,.83-.24A.75.75,0,0,1,20.63,55.72Z"/><path class="cls-5" d="M74.49,39.82c-.06.13.47,1.53-.31.93-.56-.82-.43-1.19-2.11-.48-.68.61-2.84,1-1.27-.52C72.07,39.44,75.28,37.86,74.49,39.82Z"/><path class="cls-11" d="M75.55,37.83c3-.93,5.18,1.43,0,1.93-.13-1.19,1.91-.26,2.19-1.33C78.14,37.61,74,39,75.55,37.83Z"/><path class="cls-3" d="M77.74,38.43c0,1.09-1.43.35-2,.92-.73,1-.08-.12-.44-.39C76,38.52,76.91,38.93,77.74,38.43Z"/><path class="cls-16" d="M75.36,39.56c.08.75-1.69,0-.54-.23C74.94,39.38,75.73,39.11,75.36,39.56Z"/><path class="cls-26" d="M73.16,39.09c-.68.55-2.49-.53,0-.32A1.5,1.5,0,0,1,73.16,39.09Z"/><path class="cls-3" d="M72.56,38.69c-.2.22-1.06-.92.14-.66C72.62,38.08,72.52,38.12,72.56,38.69Z"/><path class="cls-9" d="M67.11,39c-.57-.47,6.73-1.83,1.11.36C67.09,39.68,68.93,38.63,67.11,39Z"/><path class="cls-25" d="M70.16,38.63c0-.27.87-.65,1-.14A1,1,0,0,1,70.16,38.63Z"/><path class="cls-3" d="M63.58,40.63c.63-.3,1.59.24,1.31-.85.89.16.84-.32,1.42.51-.38.94,0,.5-3.41,1.31C63.63,41.19,62.94,41.07,63.58,40.63Z"/><path class="cls-26" d="M63.24,40.82c.12.11-1.19.32-.6-.14C63,40.45,63.08,40.47,63.24,40.82Z"/><path class="cls-16" d="M62.36,41.46c0-.23.44-.49.43-.09A1.57,1.57,0,0,1,62.36,41.46Z"/><path class="cls-23" d="M60.65,42.62c-.43-.16.15-1,.64-.61C61.54,42.32,61.27,42.54,60.65,42.62Z"/><path class="cls-16" d="M14.91,50.06c0-.33-.91-.28-.8-.6C14.88,48.78,17.51,48.49,14.91,50.06Z"/><path class="cls-11" d="M70.16,38.63c1.64-.46,3.78-.13.39.51-.24.4-.21.94-.9.82-1.11,0-.09-.42-.54-.58C67.82,39.61,68.53,38.63,70.16,38.63Z"/><path class="cls-8" d="M33.33,29.8c-.28,0-1.4.88-1.36.08C32,29.48,32,29.78,33.33,29.8Z"/><path class="cls-24" d="M16.84,36.76c-.21-.06-.79.46-1.05,0C16,36.7,16.13,36.09,16.84,36.76Z"/><path class="cls-1" d="M34,29.05c.49-.05.38.87-.3.47C33.56,29.27,33.58,29.34,34,29.05Z"/><path class="cls-8" d="M31,30.73c.11-.26.29-.69.74-.38C31.6,30.6,31.6,30.66,31,30.73Z"/><path class="cls-10" d="M52.29,26.93c.08.55-2.64.46-4.16.34.76.5-.6.6-2.09,1.15,1.17-.68-.38-1.12-1.59-.27-.19-.19.58-.73,0-.81-.1.82-1.34-.57-.24-.89,3.9,2.35,5.22-1.75,6.67-.74l-.81.19C50.66,26.71,52.41,25.61,52.29,26.93Z"/><path class="cls-16" d="M46,28.43c.63.21-.72.21-.78.42-.54.79-1,.95-2.54.46C45.4,29.14,44.1,28.5,46,28.43Z"/><path class="cls-1" d="M43.18,27.8c-.6.15-1,.71-1.7.47C41.46,27.56,42.4,27.4,43.18,27.8Z"/><path class="cls-28" d="M44.17,27.66c.07-.64,1.11-.32.26.27C44.34,27.92,44.24,27.92,44.17,27.66Z"/><path class="cls-25" d="M44.45,28.16h0C45,28,44.77,28.75,44.45,28.16Z"/><path class="cls-14" d="M73.74,14.72c-.59-.14-.87.42-1.41.16C71.69,14.4,73.74,14,73.74,14.72Z"/><path class="cls-14" d="M46.1,26.92c-.27-.39-.93.87-1,.22.14-.93-2,.46.11-1.39-.34.46-1.71-.47-.54-1.05-2.89.9.59-2.25,1.08.16.5,0,1.45-1.05,1.83,0,.16,1-4.55.8-.06,1.45C48.37,26.63,47.23,26.57,46.1,26.92Z"/><path class="cls-4" d="M53.74,24.13c1.7-.69.59,1.59-1.72,1.36A10.29,10.29,0,0,1,53.74,24.13Z"/><path class="cls-21" d="M57.66,24.27a2.89,2.89,0,0,1-2.21.65C55,24.85,57.76,22.66,57.66,24.27Z"/><path class="cls-28" d="M57.66,24.27c-1.16-1.06,2.33-1.66,1.16-.47.07,0,0,.09.37.05C61.55,23.78,59.19,24.16,57.66,24.27Z"/><path class="cls-14" d="M55.8,26.33c-.06-.14-2.24,0-1.21-.43C55.26,25.17,57.42,25.28,55.8,26.33Z"/><path class="cls-4" d="M49.89,24.4c.94-.19.68.32,1.76.3C51.49,25.24,49.15,25.48,49.89,24.4Z"/><path class="cls-17" d="M58.2,26.71c-3.52.84,1-1.63-.53-.18C57.88,26.59,58,26.65,58.2,26.71Z"/><path class="cls-27" d="M55.66,24.72c-.64.6-2.46-.59-.34-.22C54,23.39,56.25,23.32,55.66,24.72Z"/><path class="cls-16" d="M59.27,26.13c-.43.46-.83-.32-.75-.81a.69.69,0,0,1,.76.62A1.21,1.21,0,0,1,59.27,26.13Z"/><path class="cls-21" d="M54.85,24.31c-.26.17-1,.34.16.55C52.66,25.14,55.74,23.29,54.85,24.31Z"/><path class="cls-26" d="M58.83,25.38c-.83.41-1.23-.39.1-.38A.73.73,0,0,0,58.83,25.38Z"/><path class="cls-16" d="M54.27,26.1c1,0,.78.84-.33.49C54.58,26.29,53.6,26.23,54.27,26.1Z"/><path class="cls-10" d="M51.83,25.2c.07.29-.08.69-.65.63C51.18,25.57,51.41,25.36,51.83,25.2Z"/><path class="cls-23" d="M55.8,26.33c.2-.06.15-.42,1.06-.66C56.88,26.13,56.33,26.1,55.8,26.33Z"/><path class="cls-16" d="M56.67,26c.1-.34.5-.49,1-.63C57.72,25.65,57.16,25.71,56.67,26Z"/><path class="cls-23" d="M53.79,26.51c-.47,0-1.17-.26.07-.29C53.89,26.29,53.94,26.35,53.79,26.51Z"/><path class="cls-5" d="M53.79,26.51c-.11-.14.5-.7.52,0C54.17,26.55,54.15,26.69,53.79,26.51Z"/><path class="cls-4" d="M51.75,25.2c0-.1-.12-.45.32-.2C52,25.16,52.12,25.11,51.75,25.2Z"/><path class="cls-4" d="M52.19,24.64Z"/><path class="cls-22" d="M65,20.31c1.36.1-.65.85-1.23,1,0,.23.79,1.2-.17,1.1C63.1,20.78,61.05,20.78,65,20.31Z"/><path class="cls-8" d="M58.2,22.4c-1,.26-1.79,0-.63-.79C58.17,21.45,58.82,21.31,58.2,22.4Z"/><path class="cls-4" d="M55.07,21.54c-.45-.11,2.81-1.34,3.06-.52C57.92,21.45,56.22,21.17,55.07,21.54Z"/><path class="cls-4" d="M64.45,20.34l-.54.07c.53-.27-.65-1.36,1.33-.93C66.18,19.83,64.59,19.53,64.45,20.34Z"/><path class="cls-28" d="M62.85,20.61c.11.66-1.46,1.16-2.06.27C61.33,21,62.05,20.64,62.85,20.61Z"/><path class="cls-21" d="M58.4,21.74c-.3-.27,1.51-1,1.69-.48S59.17,21.69,58.4,21.74Z"/><path class="cls-18" d="M63.18,19.73c.79.3-2.06.95-.76.13A2.82,2.82,0,0,1,63.18,19.73Z"/><path class="cls-18" d="M60.06,21.53c-.16-1,.1,0,.74-.66C61.43,21.31,61.15,21.75,60.06,21.53Z"/><path class="cls-18" d="M58.13,21c-.21-.42.43-.45,1-.36C59.18,20.94,58.64,20.83,58.13,21Z"/><path class="cls-17" d="M60.2,20.87c-.33-.25,0-1.33.52-.46C60.44,20.56,60.39,20.33,60.2,20.87Z"/><path class="cls-18" d="M56.53,21.85c.3,0,.3.66-.52.25C56.17,22.06,56.09,21.89,56.53,21.85Z"/><path class="cls-18" d="M60.26,20.88c-.31-.57.7-.8.33,0C60.52,20.92,60.47,21,60.26,20.88Z"/><path class="cls-13" d="M60.26,20.88c.35-.19.66.53,0,.41C60.22,21.24,60.06,20.92,60.26,20.88Z"/><path class="cls-4" d="M63.31,19.94h0C63.21,19.94,63.54,19.58,63.31,19.94Z"/><path class="cls-1" d="M44.57,24.07c-.2,0-1.67.47-.67.75.33-.11,1.56-.5.22.44.17.16,0,.29-.39-.17C42.51,24.52,44.89,22.15,44.57,24.07Z"/><path class="cls-14" d="M40.71,25.13c1.44.31-2,1.32-.58.27Z"/><path class="cls-1" d="M39.66,25.45c-.11-.08-.51.46-.54,0C39.19,25.32,39.32,25.22,39.66,25.45Z"/><path class="cls-1" d="M46.63,26.19c-.49.46-2.65-.48.56-.87.49-.29.1-1.43,1.1-1,.9.27-1,.62,0,.58C50.33,25,46.9,25.53,46.63,26.19Z"/><path class="cls-1" d="M49.89,24.4c0,.05-.89,1.1-.74-.27C49.25,24.31,49.91,23.65,49.89,24.4Z"/><path class="cls-18" d="M55.07,24.07c-1.07.3-.48-2.15.43-.49,1.27-.43,1.63-.13.16,1.14.27-.59.06-.79-.8-1.1Z"/><path class="cls-21" d="M59.21,23.41c-.36-.52-1.55.27-1.76.09.59-1.16-1.32,0-1-.6C56.8,22.59,61.16,22.28,59.21,23.41Z"/><path class="cls-17" d="M58.79,22.6c-.55.43-1-1.19.45-1C59.63,21.9,59.82,22.36,58.79,22.6Z"/><path class="cls-1" d="M56.41,22.65c-.25-.1-.73-.31-1,.34C54.48,22.55,56,22.07,56.41,22.65Z"/><path class="cls-14" d="M43.37,26.15c-.31.1-1.1.75-1.38-.06C42.2,25.39,43,25.28,43.37,26.15Z"/><path class="cls-10" d="M65.58,19.68c-.72-.2.55-.84,1.06-.4C66.45,19.46,66.49,19.66,65.58,19.68Z"/><path class="cls-17" d="M66.3,19.61c.07-.18.89-.65.93-.07Z"/><path class="cls-28" d="M69.16,20.2c.33-.57,3-.33,1.28.3.15.05.69,1.33.06,1.44C69.36,19.9,67.77,22,69.16,20.2Z"/><path class="cls-17" d="M70.59,21.44c.63-.82-.63-.46-.1-1.17C70.82,19.86,74.36,21.69,70.59,21.44Z"/><path class="cls-14" d="M71.61,18.87c.1,0,3.2-.54,2.49.17C73.88,19,70.24,19.86,71.61,18.87Z"/><path class="cls-14" d="M71.76,20.82c-1.24-.41,2.47-1.57,2.77-.66A18.91,18.91,0,0,1,71.76,20.82Z"/><path class="cls-6" d="M73.75,19.81c-.51.16-1.8.9-2.46.05C71.71,20.12,74,19.1,73.75,19.81Z"/><path class="cls-28" d="M67.92,19.84c-.45.87,1.64-.06.86.72-2.38,1.84.14-.06-2.61.65-1,0,1.37-.79-.28-1A3.66,3.66,0,0,1,67.92,19.84Z"/><path class="cls-8" d="M65.91,21c.28.08-1.94,1.58-2.29.34C63.4,21,64.84,20.65,65.91,21Z"/><path class="cls-27" d="M65,20.31c-.07.07.47.19,0,.31C64.77,20.75,64.1,20.36,65,20.31Z"/><path class="cls-21" d="M11.12,30c-.33.23-.22.16,0,0C11.92,30.1,9.65,31.16,11.12,30Z"/><path class="cls-1" d="M68,21.22c-.74.07,1.33-1.4,1.17-.8C68.87,20.66,68.63,21.31,68,21.22Z"/><path class="cls-8" d="M50.48,12.3l-1.19.2C49.48,12.1,49.88,12.3,50.48,12.3Z"/><path class="cls-21" d="M75.55,19.35c-1.26-1,2.49-.4.68.75-.06-.2-2.24.64-1.42-.4C75,19.33,76.47,19.86,75.55,19.35Z"/><path class="cls-22" d="M74.62,19.94c-.07.95,4.42-1,2.34.29-.49-.11.05,1.15-1.43.91C77.2,20.22,73.45,21.05,74.62,19.94Z"/><path class="cls-18" d="M75.62,21.14c.89.1.67-.66,1.34-1-.15,1.09,1.89,1,1.3-.35.11-.1.81-.68.87-.2-.58,1.42,1.94,1.42.53,1.93C78.24,20.49,74.48,22.32,75.62,21.14Z"/><path class="cls-10" d="M78.87,19.48c.13,0-2.93.91-2.55.4C76.63,19.05,78,18.85,78.87,19.48Z"/><path class="cls-18" d="M78.28,19.14h0C77.93,19.54,76.66,19.44,78.28,19.14Z"/><path class="cls-18" d="M79.07,18.28l.41.22C79.48,18.45,79.13,18.77,79.07,18.28Z"/><path class="cls-18" d="M77.34,19h0C76,19.87,75,18.4,77.34,19Z"/><path class="cls-26" d="M83.53,40c.82-.18.68.43-.13.47C83.38,40.37,83.62,40.35,83.53,40Z"/><path class="cls-29" d="M68.37,39.22c.14.08.21.54.56.29,1.59-.41-1.23.73-1.32,1,.1.5,2-.6,1.16.23-1.58,1.54-1.22.29-1.8-.64C64.66,40.38,66,39.47,68.37,39.22Z"/><path class="cls-15" d="M72.82,40c.46-.48,1.6.26,1.2.85S71.83,40.85,72.82,40Z"/><path class="cls-23" d="M72.82,40c.55,1.23-3.38,1.63-2.39.76C71.46,41.11,71.83,40.34,72.82,40Z"/><path class="cls-15" d="M70.16,40.85c0,.48-.88.22-1.54.37C68.42,40.47,69.56,40,70.16,40.85Z"/><path class="cls-26" d="M66.43,40.29c.55-.88,1.51,1.1,1,1.39C67.07,41.19,66.31,41,66.43,40.29Z"/><path class="cls-16" d="M73.41,41.1c.25-.51,1.27,0,1.11-.63,0-.14-.21-.46.3-.25-.19.83.36.46,1,.8C75.26,41,74.21,41.5,73.41,41.1Z"/><path class="cls-23" d="M66.57,41c0-.89,1.55,1.26.34.77C66.55,41.64,66.06,41.55,66.57,41Z"/><path class="cls-12" d="M79.74,39.49c1.62.14-3.81,2-3.69.64C77.36,40.29,78.18,39.8,79.74,39.49Z"/><path class="cls-15" d="M76.12,40.43c-.36,0-.86.67-1.43.19C74.72,40,75.45,40.33,76.12,40.43Z"/><path class="cls-23" d="M74.69,40.62s.54.23.6.13C75.6,39.6,76.27,41.93,74.69,40.62Z"/><path class="cls-23" d="M81.61,39.9s-.5-.06,0-.46c-.72.24-.83-.51.34-.5C82.72,39.23,82.6,39.84,81.61,39.9Z"/><path class="cls-26" d="M83.07,39a.35.35,0,0,1,.18.46.22.22,0,0,1,0,.08C82.93,39.36,83.12,39.13,83.07,39Z"/><path class="cls-26" d="M83.39,40h0C83.59,40,82.54,40.26,83.39,40Z"/><path class="cls-26" d="M64.17,41.41c.36-.28.9,0,1.6,0C66.07,41.74,64,42.63,64.17,41.41Z"/><path class="cls-23" d="M62.78,42.76c.15-.42.74-.33,1.35-.2C64.07,42.92,63.35,42.66,62.78,42.76Z"/><path class="cls-16" d="M14,43.94c-.16.19-.29.47-.6.2Z"/><path class="cls-12" d="M84.86,35.65Z"/><path class="cls-1" d="M14,24.27s-1.11.75-.66,0C13.37,24.14,13.88,23.86,14,24.27Z"/><path class="cls-1" d="M12.37,25c-.07,0,1.23-.83.42-.1C12.78,24.8,12.6,25.32,12.37,25Z"/><path class="cls-18" d="M8.07,29.18c.63.32-1.23,1.28-.87.65C7.41,29.81,7.34,29.34,8.07,29.18Z"/><path class="cls-16" d="M82.94,37.35l.45.15C83.21,37.55,83,37.73,82.94,37.35Z"/><path class="cls-17" d="M6,27.34H6C5.9,27.54,5.15,27.8,6,27.34Z"/><path class="cls-14" d="M77,21.33c3.11-.26-2.34,1.43-3.12,1S74.3,21.53,77,21.33Z"/><path class="cls-28" d="M74.82,22.4c.39-.29,1.59-1,2.2-.24C76.47,22.23,75.58,22.67,74.82,22.4Z"/><path class="cls-15" d="M75.56,22.42a7.61,7.61,0,0,1,1.78-.22C77,22.28,75.93,22.9,75.56,22.42Z"/><path class="cls-6" d="M64,21.73c2.4,1,4.29-.53,6.11.59C63,23.27,62.64,24.37,64,21.73Z"/><path class="cls-16" d="M70.1,23.86c-.47-.27-4.66.77-2.32-.52.26-.09,2,.44,2-.34-.17-.55.08,0,1.63-.24a2.09,2.09,0,0,1,2-.91C73.49,22.61,71.47,23.58,70.1,23.86Z"/><path class="cls-10" d="M63.44,23.26c2.18-.05,1.07.64-2.58.74C60.87,23.51,62.21,23.25,63.44,23.26Z"/><path class="cls-18" d="M61.14,23.67c-.09.86-2.72-.38-1.47-.79-.38-1.09,1.73,0,.95.63C60.82,23.49,61,23.38,61.14,23.67Z"/><path class="cls-23" d="M67.63,24.1a2.86,2.86,0,0,1,2.2-.24C69.46,24.17,67.82,25.29,67.63,24.1Z"/><path class="cls-1" d="M72.45,22c-1.86,1.65-3.42.65-1.33.43C71.45,22.24,70.8,21.63,72.45,22Z"/><path class="cls-6" d="M63.91,25.58c-.28.09-1.35.13-.87-.5C63.67,24.88,64.73,24.65,63.91,25.58Z"/><path class="cls-8" d="M67.3,23.59a6.09,6.09,0,0,1-3.07.48C64.32,24,67.5,23.11,67.3,23.59Z"/><path class="cls-17" d="M71.3,22c-2.86,1.11-1.54-1.1-.67,0A1.1,1.1,0,0,1,71.3,22Z"/><path class="cls-26" d="M61.06,24.92l.41-.07C60.65,25.87,58,25.65,61.06,24.92Z"/><path class="cls-23" d="M65.24,24.07s2.1-.35,1,.06C66.06,24.08,65.36,24.58,65.24,24.07Z"/><path class="cls-15" d="M67.63,24.1c.26.38-1,.07-.77-.29C67.1,23.74,67.18,23.87,67.63,24.1Z"/><path class="cls-26" d="M67.05,23.79c-.11-.08,0,.4-.66.1C66.4,23.94,67.05,23.58,67.05,23.79Z"/><path class="cls-15" d="M51.41,27.14c.47-.39,1.31,1.25,0,1.44C50.7,28.82,49.15,27.78,51.41,27.14Z"/><path class="cls-26" d="M52.08,28.25c.19-.35-.94-.81.34-1C52.52,27.8,53.64,27.49,52.08,28.25Z"/><path class="cls-23" d="M52.88,27.72c-1.32-.3.45-.72.42.29C53.2,28.15,52.6,28.29,52.88,27.72Z"/><path class="cls-26" d="M50.88,28.6l.83-.11C51.61,28.49,51.67,28.75,50.88,28.6Z"/><path class="cls-15" d="M52.88,27.72h0C53.1,27.65,53,28.23,52.88,27.72Z"/><path class="cls-25" d="M44.77,29.38c.33-.15.2-.95.87-.78C46.1,28.63,45.41,29.17,44.77,29.38Z"/><path class="cls-15" d="M47,28.07c.93-.88,1.28.16,2.34.06C48.7,28.36,48,28.87,47,28.07Z"/><path class="cls-8" d="M49.35,28.13c-1,.64-2.42-2,0-.48C49.41,27.74,49.66,27.89,49.35,28.13Z"/><path class="cls-15" d="M49.49,28c-.16-.49-.3-.16-.83-.27.12,0,.07-1,1.31-.29C49.74,27.54,49.46,27.36,49.49,28Z"/><path class="cls-26" d="M50.14,27.79c.51.36.9,1.24-.41.63Z"/><path class="cls-26" d="M50,27.45c.22-.19.87-.16,1.46-.31C51.28,27.37,50.46,27.86,50,27.45Z"/><path class="cls-26" d="M75.56,22.42c-.35.58-1.33.4-2.2.5C73.24,22.46,73.89,22.37,75.56,22.42Z"/><path class="cls-23" d="M71.11,23.54c.4-.38,1.33-.86,1.79-.2C72.48,23.56,71.77,23.39,71.11,23.54Z"/><path class="cls-30" d="M72.82,23.33c-.85-.24.76-.33-.4-.84C73.09,22.29,74,22.34,72.82,23.33Z"/><path class="cls-17" d="M75.15,22.92h0C75.15,22.74,76,23.11,75.15,22.92Z"/><path class="cls-6" d="M56.87,26.79c.81.25-2.12,1-2.79.75A6.06,6.06,0,0,1,56.87,26.79Z"/><path class="cls-23" d="M70.1,23.86l.87-.25A.66.66,0,0,1,70.1,23.86Z"/><path class="cls-22" d="M60.86,25.55c.31-.39.65-.07,1-.15C61.75,25.69,61.25,25.76,60.86,25.55Z"/><path class="cls-23" d="M59.27,26.13l-.36-.73C59.11,25.6,60.2,25.71,59.27,26.13Z"/><path class="cls-15" d="M78.22,39.89c-.52.4-1.87.59-.77-.45C77.81,39.51,78.57,39.17,78.22,39.89Z"/><path class="cls-15" d="M79.88,39.16c0,.15-1.23.26-.71-.25C79.27,39,79.78,38.69,79.88,39.16Z"/><path class="cls-16" d="M80.54,38.29c-.21.05-.82-.07-.38-.44C80.24,37.87,80.6,37.88,80.54,38.29Z"/><path class="cls-26" d="M81.33,38h0C81.05,38.14,80.66,37.6,81.33,38Z"/><path class="cls-25" d="M70.16,40.85c-1.73-.9.51-.48.26-1.71,1.17-.67,1.28-.06,2.34,0-.38.4-1.25.41-1.81.45,0,.92-1.82.67,0,1.19Z"/><path class="cls-25" d="M72.34,40.08c-.07.31-.83,1.21-1.1.43Z"/><path class="cls-25" d="M75.36,39.56l.06-.07Z"/><path class="cls-9" d="M70.36,39.29c1.25.07-2.58,2.21-2.83,1.12-.2-.35,1.13-.71,2.22-.55C70.06,39.89,70.21,39.81,70.36,39.29Z"/><path class="cls-26" d="M69,39.36c.58.08-.79.68-.47,0Z"/><path class="cls-13" d="M56.4,23.14c.79-.76,2.32.21.33.73C56.6,23.85,56.28,23.71,56.4,23.14Z"/><path class="cls-27" d="M59.46,23.4l.86.21C60.1,24.11,57.88,23.71,59.46,23.4Z"/><path class="cls-18" d="M58.85,23.6h0C59.49,23.72,59.23,24.28,58.85,23.6Z"/><path class="cls-13" d="M54.85,24.31c0-.2.92.11.41.3C55.06,24.7,54.79,24.68,54.85,24.31Z"/><path class="cls-27" d="M63.8,22.4c-.18.72-.66,0-.88-.52-.08.18-.27.57.18.68s0,.52-.62.1C62.24,21,62.93,20.45,63.8,22.4Z"/><path class="cls-4" d="M60.26,22.42c-2.1.48.18-1.33,2.19-1.22C62.67,22.32,61.63,21.85,60.26,22.42Z"/><path class="cls-17" d="M62.38,21.87c.18-1.18.23-.38.14.77.17-.1,1.48.46.66.63C62.47,23,61.14,22.89,62.38,21.87Z"/><path class="cls-28" d="M60.86,21.48c-.06.41-2.17.91-1.13.16A3.63,3.63,0,0,1,60.86,21.48Z"/><path class="cls-22" d="M59.32,22.33c.47.05.17.79-.53.27Z"/><path class="cls-18" d="M58.44,22.25c-.1,0,.83,0,.24.17C58.58,22.4,58.38,22.58,58.44,22.25Z"/><path class="cls-30" d="M70.3,21.67c.12,0-1.88.95-1.69-.44C69.06,20.5,70.08,20.83,70.3,21.67Z"/><path class="cls-19" d="M70.59,21.44c.13-.23,2.06-.25,1.46.19C71.7,21.37,71.29,22.61,70.59,21.44Z"/><path class="cls-13" d="M68.77,21c-.59.81.88,1,0,1C68.55,21.87,66.69,21.94,68.77,21Z"/><path class="cls-13" d="M70.76,21.75c1,.49.57-.77,1.2,0C72.14,22,70.22,22.38,70.76,21.75Z"/><path class="cls-10" d="M72.21,21.52c-.15-.94.82,0,2.21-.71C79,19.58,73.41,22.59,72.21,21.52Z"/><path class="cls-6" d="M72.83,21.13c-.07.1-1.66-.32-.74-.4C72.63,20.62,73.48,20.18,72.83,21.13Z"/><path class="cls-21" d="M72.83,21.13c.16-1.74,3.14-.28,1.43-.38C73.72,19.76,73.47,21.29,72.83,21.13Z"/><path class="cls-17" d="M65.37,21.44c.22-.09,1.27-.85,1.52-.2C66.44,21.47,66,22,65.37,21.44Z"/><path class="cls-10" d="M66.64,21.34c0,.06,1-1,.94-.26C67.69,21.19,67.36,21.79,66.64,21.34Z"/><path class="cls-17" d="M67.44,21.35c.7-.44,1.22.46,0,.25C67.38,21.55,67.32,21.51,67.44,21.35Z"/><path class="cls-19" d="M65.37,21.44c.23.37,3.79.3,2.45.74C67,22,63,22.6,65.37,21.44Z"/><path class="cls-22" d="M65.12,21.47l-.33.2C64.79,21.45,65,21.47,65.12,21.47Z"/><path class="cls-19" d="M76,20.14c-.07.21-1.24.34-.77-.19C75.4,20,76,19.66,76,20.14Z"/><path class="cls-19" d="M78.28,19.94c.77.79-.56,1.24-1.29.93C76.65,20.2,77.35,19.68,78.28,19.94Z"/><path class="cls-13" d="M75.09,21.24c.26-.21.91-.06.08.27C75.11,21.47,75,21.44,75.09,21.24Z"/><path class="cls-18" d="M78,19.92l-.68.08C77.32,19.92,78,19.48,78,19.92Z"/><path class="cls-22" d="M77,21.33l-1,.21C76.15,21.61,76.58,20.75,77,21.33Z"/><path class="cls-22" d="M78,19.92c-.06-.15,0-.2.51-.25C78.39,19.66,78.63,19.92,78,19.92Z"/><path class="cls-22" d="M72.21,21.52c.32.44,1.86-.36,2.55,0-.81.48-.89.19-2.31.46C72.23,22.19,71.25,21.59,72.21,21.52Z"/><path class="cls-6" d="M73.47,22.62c-.66.24-.23-1.21.75-.16Z"/><path class="cls-17" d="M74.75,21.55h0C74.45,21.48,75.08,20.81,74.75,21.55Z"/><path class="cls-18" d="M73.62,22.06h0C73.26,22.23,73.51,21.41,73.62,22.06Z"/><path class="cls-13" d="M63.32,22.76c-.56.2-.88-1.23-.31-.91C63.08,22.07,63.57,22.57,63.32,22.76Z"/><path class="cls-1" d="M72.49,22l.17-.06Z"/><path class="cls-28" d="M61.8,22.74c.55-.16.75.09,1.12.53-.29.29-3.89.68-2-.19A1.44,1.44,0,0,1,61.8,22.74Z"/><path class="cls-27" d="M61.8,22.74c-.43.63-2.69,0-1-.5C61.09,22.34,62,22,61.8,22.74Z"/><path class="cls-21" d="M61.85,22.4l-1.39-.14C60.79,22,63.47,21.61,61.85,22.4Z"/><path class="cls-18" d="M67.76,21.8l-1.6-.05A1.56,1.56,0,0,1,67.76,21.8Z"/><path class="cls-30" d="M73.09,21.21a.83.83,0,0,1,.86-.8l.14,0C74.83,20.79,73.77,21.34,73.09,21.21Z"/><path class="cls-22" d="M67.76,21.67c-.22-.13-1.65.37-1.63-.1C66.19,21.55,66.65,20.89,67.76,21.67Z"/></g><g id="Layer_11" data-name="Layer 11"><path class="cls-31" d="M41,16.55c-.83-.62-.81.51-1.77.33-4-.73-4.41,1.5-5.72,5.27-1.74,5.05,1,11.25,4.27,15.15,1.54,1.86,3.56,3.45,5.2,5.21,1.87,2,5.34,5,8.49,3.85,2.72-1,4.07-3.29,5.47-5.55C59.83,36.17,65,27.9,66.13,22.75c.73-3.29,1-7-2.52-8.86-3.79-2.05-8.49,1.2-10.52,4.12-.77,1.12-3.25,4.8-4.73,5.22C47.26,23.55,45.05,15.18,41,16.55Z"/></g><g id="Layer_9" data-name="Layer 9"><path class="cls-32" d="M60.28,21.78c-.37-.08-.7-.16-1.06-.22a7.59,7.59,0,0,0-1.07-.08h-.21v-.11c0-.31-.12-.59-.15-.91,0-.16-.13-.46-.17-.75a.45.45,0,0,1,0-.28c-.1,0-.15.14-.22.27a4.56,4.56,0,0,0-.24.71,7.75,7.75,0,0,0-.27.94v.38h-.1l-.51.27c-.21.13-.43.29-.62.43s-.45.32-.42.26.19,0,.55,0h.64l.54-.05a7.08,7.08,0,0,0,.22.75,4.46,4.46,0,0,0,.28.63A7.11,7.11,0,0,0,58,25V22.58c.3-.08.58-.19.88-.28C59.37,22.11,59.78,21.94,60.28,21.78Z"/><path class="cls-32" d="M39.42,25.13a4.29,4.29,0,0,0-.71-.16h-.16a1.69,1.69,0,0,0-.07-.44,5.42,5.42,0,0,1-.15-1c0-.32,0-.3.05-.27s-.21.08-.34.4-.35,1.08-.38,1.18V25h-.12l-.46.19-.38.21c-.3.19-.61.43-.79.54s-.1.11-.08.06.11.08.44.1.86,0,1.06,0h.15a1.41,1.41,0,0,0,0,.29,3.29,3.29,0,0,0,.11.7,5.74,5.74,0,0,0,.31.91,5.86,5.86,0,0,0,.76,1.21A6.48,6.48,0,0,1,38.5,28v-.74a2.62,2.62,0,0,1,.07-.74,1.24,1.24,0,0,0,0-.51l.25-.07.56-.16a5.91,5.91,0,0,1,.94-.13A4.48,4.48,0,0,0,39.42,25.13Z"/><path class="cls-32" d="M57.49,34.58c-.41-.15-.76-.29-1.19-.42a2.7,2.7,0,0,0-.41-.07v-.37a1.8,1.8,0,0,1,0-.61.59.59,0,0,1,.3-.34c-.45-.08-.79.25-1.1.79A2.44,2.44,0,0,0,55,34h0a2,2,0,0,0-.35.07,4.19,4.19,0,0,0-.49.2,1.59,1.59,0,0,0-.43.3,5.15,5.15,0,0,0-.68.79l.86-.19a1.29,1.29,0,0,1,.48,0h.46a4.81,4.81,0,0,0,.07.53,5.88,5.88,0,0,0,.26.91c.15.44.3.73.34.87.12-.45.22-.91.3-1.37,0-.28.12-.57.15-.87V35h.18A10.12,10.12,0,0,1,57.49,34.58Z"/><path class="cls-32" d="M43.08,36.17a3,3,0,0,0-.89-.16h-.07a1.67,1.67,0,0,0-.08-.3,2.33,2.33,0,0,1-.08-.59,4,4,0,0,1,.07-.48,1.85,1.85,0,0,0-.68.88,3.53,3.53,0,0,0-.15.46v.18l-.44.2a4.29,4.29,0,0,0-.94.63c-.21.2-.3.35-.1.48,0-.14.07-.19.23-.22a2.08,2.08,0,0,1,.61,0h.69v.08a5.38,5.38,0,0,0,.31.64l.33.51c.21.28.4.49.56.7a9.14,9.14,0,0,0-.07-1.31v-.8h.11a2.29,2.29,0,0,1,.36-.07,5.91,5.91,0,0,1,1.45-.21A4.53,4.53,0,0,0,43.08,36.17Z"/><path class="cls-32" d="M57.14,29.44a35.26,35.26,0,0,0-5.24.15c-.87.07-1.73.2-2.59.35l-.56.11V27.1c0-1.84-.1-3.68-.13-5.73-.63,2-1.24,3.73-1.73,5.52-.23.82-.43,1.62-.59,2.41-.1.46-.18.91-.25,1.35l-1.3.35-3,.87c-1,.28-2.49.69-3.89,1.21a8.35,8.35,0,0,0-2.41,1.24,6.91,6.91,0,0,1,1.87-.75c1.6-.44,3.61-.74,4.65-1s2-.41,3-.64l.83-.17c0,.27-.08.54-.1.81a16.72,16.72,0,0,0-.07,2.24,16,16,0,0,0,.13,1.69,22.19,22.19,0,0,0,.86,3.86,25.37,25.37,0,0,0,1.2,3.14,35.94,35.94,0,0,0,2.47,4.36,37.08,37.08,0,0,1-1-4.77C49.13,42,49,41,48.93,40c-.11-1.48-.1-2.92-.1-4.36V31.23l1.66-.33c1.22-.23,2.43-.45,3.65-.59s2.19-.22,3.26-.27a23.94,23.94,0,0,1,4.93.3A24,24,0,0,0,57.14,29.44Z"/><path class="cls-32" d="M46.75,17.71a14.29,14.29,0,0,0-1-1.32,9.6,9.6,0,0,0-1.26-1.29,9.46,9.46,0,0,0-7.32-1.52A10.29,10.29,0,0,0,30.8,17a10.7,10.7,0,0,0-1.52,10.14c1.48,4.73,5.32,9.29,8,12.25a55.18,55.18,0,0,0,8.6,7.33,24.58,24.58,0,0,0,6.71,3.42,24.27,24.27,0,0,1-6.34-3.88,55.3,55.3,0,0,1-7.85-7.75c-2.36-2.95-5.71-7.45-6.85-12C30.88,23.78,31,21.05,33,18.7a7.29,7.29,0,0,1,4.59-2.17,6.12,6.12,0,0,1,4.74.94,6.44,6.44,0,0,1,.8.85c.73.9,1.34,1.92,2.09,2.79L45.2,21s.82.87,1.24.95a1.76,1.76,0,0,0,.79,0,2.93,2.93,0,0,0,1.24-1.1c.7-1,2.31-3.42,2.73-3.85a16.88,16.88,0,0,1,3.58-2.71A16.07,16.07,0,0,1,59,12.6a4.77,4.77,0,0,1,5.38,2.15,10.16,10.16,0,0,1,1.36,6.64A17.21,17.21,0,0,1,64.44,26,64.49,64.49,0,0,1,61,32.53l-2.8,4.9-4.69,8.42L58.8,37.8,62,33.08a63.38,63.38,0,0,0,4-6.48,18.29,18.29,0,0,0,1.7-4.92c.64-3.54-.22-7.25-2.29-9.52a7.21,7.21,0,0,0-7-2.16,18.56,18.56,0,0,0-5.07,1.79A19.34,19.34,0,0,0,49,14.85,34.49,34.49,0,0,0,46.75,17.71Z"/></g><g id="Layer_8" data-name="Layer 8"><path class="cls-33" d="M117.2,12.63h4.28V25.78a6.86,6.86,0,0,1-4,6.46,10.9,10.9,0,0,1-8.81,0,6.87,6.87,0,0,1-2.94-2.58,7.13,7.13,0,0,1-1-3.88V12.63H109v12.8a4,4,0,0,0,.51,2.05A3.68,3.68,0,0,0,111,28.9a4.87,4.87,0,0,0,4.34,0,3.73,3.73,0,0,0,1.4-1.47,4.16,4.16,0,0,0,.51-2.05Z"/><path class="cls-33" d="M141.94,12.63V32.88h-3.7l-8.81-12.74h-.15V32.88H125V12.63h3.76l8.74,12.74h.18V12.63Z"/><path class="cls-33" d="M149.75,12.63V32.88h-4.28V12.63Z"/><path class="cls-33" d="M152.5,16.16V12.63h16.63v3.53h-6.2V32.88H158.7V16.16Z"/><path class="cls-33" d="M171.88,32.88V12.63h13.69v3.53h-9.36V21h8.66v3.53h-8.66v4.83h9.36v3.53Z"/><path class="cls-33" d="M104,42.45V40.51h9.13v1.94h-3.4v9.18h-2.33V42.45Z"/><path class="cls-33" d="M124.31,46.1a6.48,6.48,0,0,1-.69,3.09,4.61,4.61,0,0,1-1.87,2,5.56,5.56,0,0,1-5.31,0,4.82,4.82,0,0,1-1.86-2,7.41,7.41,0,0,1,0-6.18,4.82,4.82,0,0,1,1.86-2,5.61,5.61,0,0,1,5.31,0,4.85,4.85,0,0,1,1.87,2A6.5,6.5,0,0,1,124.31,46.1Zm-2.37,0a4.85,4.85,0,0,0-.36-2,2.69,2.69,0,0,0-1-1.22,2.6,2.6,0,0,0-1.48-.42,2.74,2.74,0,0,0-1.5.42,2.81,2.81,0,0,0-1,1.22,5.91,5.91,0,0,0,0,4,2.81,2.81,0,0,0,1,1.22,2.66,2.66,0,0,0,1.5.42,2.6,2.6,0,0,0,1.48-.42,2.64,2.64,0,0,0,1-1.22A4.85,4.85,0,0,0,121.94,46.1Z"/><path class="cls-33" d="M133.41,44.11a2.86,2.86,0,0,0-.31-.69,2,2,0,0,0-.51-.53,2.25,2.25,0,0,0-.68-.33,3.24,3.24,0,0,0-.82-.11,2.63,2.63,0,0,0-1.5.43,2.7,2.7,0,0,0-1,1.22,4.85,4.85,0,0,0-.36,2,5.19,5.19,0,0,0,.35,2,2.68,2.68,0,0,0,1,1.23,2.56,2.56,0,0,0,1.52.43,2.81,2.81,0,0,0,1.36-.29,2,2,0,0,0,.86-.8,2.3,2.3,0,0,0,.31-1.23l.48.07h-2.86V45.68h4.61V47.1a4.92,4.92,0,0,1-.62,2.51,4.14,4.14,0,0,1-1.7,1.62,5.34,5.34,0,0,1-2.48.57,5.41,5.41,0,0,1-2.75-.69,4.86,4.86,0,0,1-1.85-2,6.47,6.47,0,0,1-.65-3,6.84,6.84,0,0,1,.39-2.41,4.9,4.9,0,0,1,1.11-1.79A4.59,4.59,0,0,1,129,40.76a5.73,5.73,0,0,1,3.81-.11,4.66,4.66,0,0,1,1.44.77,4.19,4.19,0,0,1,1,1.19,4,4,0,0,1,.52,1.5Z"/><path class="cls-33" d="M137.67,51.63V40.51h7.49v1.94H140v2.66h4.79v1.94h-4.75V49.7h5.16v2Z"/><path class="cls-33" d="M146.6,42.45V40.51h9.14v1.94h-3.4v9.18H150V42.45Z"/><path class="cls-33" d="M157.24,51.63V40.51h2.34v4.6h4.78v-4.6h2.32V51.63h-2.34V47h-4.78v4.59Z"/><path class="cls-33" d="M168.67,51.63V40.51h7.49v1.94H171v2.66h4.75v1.94H171V49.7h5.16v2Z"/><path class="cls-33" d="M178,51.63V40.51h4.38a4.83,4.83,0,0,1,2.15.45,3.24,3.24,0,0,1,1.36,1.26,3.9,3.9,0,0,1,.47,1.92,3.65,3.65,0,0,1-.48,1.91,3,3,0,0,1-1.38,1.21,5.12,5.12,0,0,1-2.18.43h-3V45.8h2.55a2.72,2.72,0,0,0,1.13-.19,1.3,1.3,0,0,0,.66-.54,1.8,1.8,0,0,0,.22-.93,1.9,1.9,0,0,0-.22-.93,1.41,1.41,0,0,0-.67-.58,2.9,2.9,0,0,0-1.13-.2H180.3v9.2Zm6-5.06,2.77,5.06h-2.6l-2.7-5.06Z"/></g></svg>