<svg width="21" height="12" viewBox="0 0 21 12" fill="none" xmlns="http://www.w3.org/2000/svg">
<path d="M9.19255 0.146952C5.86183 0.524002 2.82185 2.2293 0.410383 5.07002C0.260736 5.24569 0.111088 5.45136 0.0811587 5.52848C0.00419711 5.71272 0.00419711 6.06406 0.0811587 6.2483C0.200877 6.53966 1.39806 7.82077 2.1805 8.50203C3.72828 9.8517 5.72928 10.8929 7.65332 11.3556C8.71796 11.6084 9.09421 11.647 10.4966 11.647C11.899 11.647 12.2753 11.6084 13.3399 11.3556C16.0079 10.7129 18.5006 9.13188 20.4717 6.8353C20.8993 6.334 20.972 6.20117 20.972 5.88839C20.972 5.57561 20.8993 5.44279 20.4717 4.94148C18.5306 2.67918 16.1063 1.12814 13.4511 0.446877C12.5147 0.206937 11.9076 0.138383 10.689 0.125528C10.0562 0.11696 9.38068 0.129813 9.19255 0.146952ZM7.25141 2.59349C6.34925 3.49327 5.87893 4.6287 5.87893 5.88839C5.87893 7.15665 6.34498 8.27923 7.25569 9.18758C7.55071 9.48751 7.56353 9.48322 6.90509 9.24328C5.78487 8.83195 4.64327 8.17212 3.60001 7.33232C3.07838 6.91243 2.11636 5.97409 2.11636 5.88839C2.11636 5.85412 2.3558 5.58847 2.65082 5.30139C4.08316 3.9046 5.50695 3.0091 7.31127 2.38354C7.52505 2.3107 7.52078 2.32356 7.25141 2.59349ZM14.0882 2.53351C15.2169 2.94483 16.3543 3.60467 17.3932 4.44446C17.9149 4.86436 18.8769 5.8027 18.8769 5.88839C18.8769 5.97409 17.9149 6.91243 17.3932 7.33232C16.35 8.17212 15.2084 8.83195 14.0882 9.24328C13.4297 9.48322 13.4425 9.48751 13.7376 9.18758C14.644 8.27923 15.1143 7.15237 15.1143 5.88839C15.1143 4.62013 14.6483 3.49755 13.7376 2.58921C13.4425 2.28928 13.4297 2.29356 14.0882 2.53351ZM11.1978 3.14621C11.3817 3.19334 11.6682 3.30474 11.8349 3.39044C12.2496 3.60896 12.7713 4.13168 12.9893 4.5473C13.4297 5.3828 13.4297 6.39398 12.9893 7.22949C12.7713 7.6451 12.2496 8.16783 11.8349 8.38635C11.0012 8.82767 9.9921 8.82767 9.15835 8.38635C8.74361 8.16783 8.22198 7.6451 8.00393 7.22949C7.56353 6.39398 7.56353 5.3828 8.00393 4.5473C8.22198 4.13168 8.74361 3.60896 9.15835 3.39044C9.77832 3.0648 10.5308 2.97483 11.1978 3.14621Z" fill="#969BA0"/>
</svg>
