<svg width="16" height="17" viewBox="0 0 16 17" fill="none" xmlns="http://www.w3.org/2000/svg">
<path d="M3.62976 0.85039C3.48532 0.908371 3.33433 1.04044 3.26211 1.17895C3.20303 1.29169 3.18989 1.38188 3.17676 1.72333L3.16363 2.13564H2.09024C0.892116 2.13564 0.856008 2.14208 0.65249 2.37078C0.494928 2.54795 0.478516 2.68968 0.478516 3.9556V5.09912H8.2286H15.9754L15.9655 3.86541C15.9524 2.54795 15.9491 2.52862 15.7817 2.34824C15.5848 2.1453 15.5421 2.13564 14.3604 2.13564H13.287L13.2739 1.72333C13.264 1.36256 13.2509 1.29813 13.182 1.16929C13.136 1.09198 13.0375 0.982458 12.9587 0.927698C12.8176 0.831063 12.811 0.831063 12.3219 0.821399C11.7442 0.808515 11.6129 0.840726 11.4291 1.04044C11.2781 1.20472 11.2453 1.33679 11.2453 1.77165V2.13564H8.22531H5.20538V1.77165C5.20538 1.34323 5.17255 1.20794 5.0314 1.0501C4.85086 0.85039 4.72941 0.814957 4.18779 0.818178C3.92518 0.818178 3.67571 0.834284 3.62976 0.85039ZM4.51604 2.45776V3.45632H4.18779H3.85953V2.45776V1.45919H4.18779H4.51604V2.45776ZM12.5911 2.45776V3.45632H12.2628H11.9346V2.45776V1.45919H12.2628H12.5911V2.45776Z" fill="#464646"/>
<path d="M0.485081 10.968L0.494928 16.1638L0.563862 16.2926C0.645925 16.4408 0.711576 16.502 0.872421 16.5858C0.984027 16.6438 1.21709 16.647 8.22531 16.647H15.4633L15.5946 16.5793C15.7456 16.4988 15.808 16.4344 15.8933 16.2765C15.9524 16.167 15.9557 15.9737 15.9655 10.968L15.9721 5.7755H8.22531H0.478516L0.485081 10.968ZM5.53363 8.56182V9.38322H4.69658H3.85953V8.56182V7.74042H4.69658H5.53363V8.56182ZM7.89706 8.56182V9.38322H7.06001H6.22296V8.56182V7.74042H7.06001H7.89706V8.56182ZM10.2277 8.56182V9.38322H9.39062H8.55357V8.56182V7.74042H9.39062H10.2277V8.56182ZM12.5911 8.56182V9.38322H11.754H10.917V8.56182V7.74042H11.754H12.5911V8.56182ZM5.53363 10.8811V11.7025H4.69658H3.85953V10.8811V10.0597H4.69658H5.53363V10.8811ZM7.89706 10.8811V11.7025H7.06001H6.22296V10.8811V10.0597H7.06001H7.89706V10.8811ZM10.2277 10.8811V11.7025H9.39062H8.55357V10.8811V10.0597H9.39062H10.2277V10.8811ZM12.5911 10.8811V11.7025H11.754H10.917V10.8811V10.0597H11.754H12.5911V10.8811ZM5.53363 13.1842V14.0217H4.69658H3.85953V13.1842V12.3467H4.69658H5.53363V13.1842ZM7.88065 13.1842V14.0056L7.05345 14.0153L6.22296 14.0217V13.1842V12.3467L7.05345 12.3531L7.88065 12.3628V13.1842ZM10.2277 13.1842V14.0217L9.40046 14.0153L8.56998 14.0056L8.56013 13.2164C8.55685 12.7848 8.56013 12.4111 8.56998 12.3886C8.57983 12.3564 8.7735 12.3467 9.40703 12.3467H10.2277V13.1842ZM12.5911 13.1842V14.0217H11.754H10.917V13.1842V12.3467H11.754H12.5911V13.1842Z" fill="#464646"/>
</svg>
