<svg width="23" height="22" viewBox="0 0 23 22" fill="none" xmlns="http://www.w3.org/2000/svg">
<path d="M11.9898 5.35948C8.86829 5.35948 6.35049 7.87783 6.35049 11C6.35049 14.1222 8.86829 16.6405 11.9898 16.6405C15.1112 16.6405 17.629 14.1222 17.629 11C17.629 7.87783 15.1112 5.35948 11.9898 5.35948ZM11.9898 14.6671C9.97258 14.6671 8.3235 13.0225 8.3235 11C8.3235 8.97746 9.96767 7.33292 11.9898 7.33292C14.0118 7.33292 15.656 8.97746 15.656 11C15.656 13.0225 14.0069 14.6671 11.9898 14.6671ZM19.175 5.12875C19.175 5.8602 18.5861 6.44438 17.8597 6.44438C17.1284 6.44438 16.5444 5.85529 16.5444 5.12875C16.5444 4.40221 17.1333 3.81312 17.8597 3.81312C18.5861 3.81312 19.175 4.40221 19.175 5.12875ZM22.91 6.46402C22.8266 4.70166 22.4241 3.14058 21.1333 1.8544C19.8474 0.568225 18.2867 0.165681 16.5247 0.0773179C14.7088 -0.0257726 9.26583 -0.0257726 7.44988 0.0773179C5.69283 0.160772 4.13209 0.563316 2.84129 1.84949C1.55049 3.13567 1.15295 4.69675 1.06461 6.45911C0.961538 8.27547 0.961538 13.7196 1.06461 15.536C1.14804 17.2983 1.55049 18.8594 2.84129 20.1456C4.13209 21.4318 5.68792 21.8343 7.44988 21.9227C9.26583 22.0258 14.7088 22.0258 16.5247 21.9227C18.2867 21.8392 19.8474 21.4367 21.1333 20.1456C22.4192 18.8594 22.8217 17.2983 22.91 15.536C23.0131 13.7196 23.0131 8.28037 22.91 6.46402ZM20.564 17.4849C20.1812 18.4471 19.4401 19.1883 18.4732 19.5761C17.0253 20.1505 13.5898 20.018 11.9898 20.018C10.3898 20.018 6.94927 20.1456 5.50632 19.5761C4.54436 19.1932 3.80326 18.452 3.41553 17.4849C2.84129 16.0367 2.97381 12.6004 2.97381 11C2.97381 9.39964 2.8462 5.95838 3.41553 4.51512C3.79835 3.55294 4.53945 2.81167 5.50632 2.42385C6.95418 1.84949 10.3898 1.98204 11.9898 1.98204C13.5898 1.98204 17.0303 1.8544 18.4732 2.42385C19.4352 2.80676 20.1763 3.54803 20.564 4.51512C21.1382 5.96329 21.0057 9.39964 21.0057 11C21.0057 12.6004 21.1382 16.0416 20.564 17.4849Z" fill="#464646"/>
</svg>
