<svg width="16" height="12" viewBox="0 0 16 12" fill="none" xmlns="http://www.w3.org/2000/svg">
<path d="M0.20735 0.922288C0.0243941 1.12683 0 1.65625 0 6.02389C0 10.5961 0.0121971 10.9089 0.219547 11.0894C0.426897 11.2699 1.13433 11.2939 7.83052 11.2939C14.8194 11.2939 15.2219 11.2819 15.4049 11.0774C15.5879 10.8728 15.6122 10.3434 15.6122 5.97576C15.6122 1.40357 15.6 1.09074 15.3927 0.910256C15.1853 0.729775 14.4779 0.70571 7.78173 0.70571C0.792809 0.70571 0.390306 0.717743 0.20735 0.922288ZM4.51291 4.51988C6.25709 6.03592 7.74514 7.2632 7.80612 7.2632C7.86711 7.2632 9.35515 6.02389 11.0993 4.51988C14.173 1.87282 14.6365 1.54796 14.7341 2.04127C14.7706 2.25785 14.234 2.78726 11.8312 4.90491C10.9896 5.6509 10.3065 6.31266 10.3065 6.38485C10.3065 6.45705 11.2701 7.2271 12.441 8.09341C13.6119 8.95972 14.5877 9.76587 14.6121 9.88619C14.7219 10.4276 14.1974 10.175 11.9531 8.59876C10.6724 7.69635 9.59909 6.96239 9.5625 6.96239C9.52591 6.96239 9.1478 7.2271 8.70871 7.564C8.26961 7.88887 7.86711 8.1656 7.80612 8.1656C7.74514 8.1656 7.34263 7.88887 6.90354 7.564C6.46445 7.2271 6.07414 6.96239 6.03755 6.96239C6.00096 6.96239 4.9764 7.67229 3.7567 8.55063C1.52463 10.1268 1.03675 10.3795 1.03675 9.91026C1.03675 9.74181 1.6466 9.21239 3.17124 8.09341C4.34216 7.2271 5.30572 6.45705 5.30572 6.38485C5.30572 6.31266 4.34216 5.41026 3.17124 4.36346C2.00032 3.3287 0.987962 2.40223 0.939174 2.30598C0.792809 2.07737 0.926977 1.7886 1.15872 1.7886C1.2563 1.7886 2.76873 3.01587 4.51291 4.51988Z" fill="#464646"/>
</svg>
