<svg width="7" height="11" viewBox="0 0 7 11" fill="none" xmlns="http://www.w3.org/2000/svg">
<mask id="mask0_79_59801" style="mask-type:luminance" maskUnits="userSpaceOnUse" x="0" y="0" width="7" height="11">
<path d="M0 0H7V10.0577H0V0Z" fill="white"/>
</mask>
<g mask="url(#mask0_79_59801)">
<path fill-rule="evenodd" clip-rule="evenodd" d="M3.5 0.00354004C5.43319 0.00354004 7 1.57244 7 3.50772C7 4.18131 6.81024 4.81006 6.48151 5.34409C6.08705 5.99825 5.69258 6.6527 5.29811 7.30686C4.81758 8.08862 4.42909 8.72156 3.94856 9.50333C3.5251 10.1927 3.49641 10.2098 3.07087 9.51677C2.59273 8.7389 2.19079 8.08474 1.71294 7.30686C1.31937 6.65988 0.926101 6.01319 0.532531 5.3662C0.195142 4.8274 0 4.19057 0 3.50772C0 1.57244 1.56711 0.00354004 3.5 0.00354004ZM3.5 1.76041C4.36663 1.76041 5.0692 2.46388 5.0692 3.33141C5.0692 4.19894 4.36663 4.9024 3.5 4.9024C2.63337 4.9024 1.9311 4.19894 1.9311 3.33141C1.9311 2.46388 2.63337 1.76041 3.5 1.76041Z" fill="#464646"/>
</g>
</svg>
