<svg width="22" height="22" viewBox="0 0 22 22" fill="none" xmlns="http://www.w3.org/2000/svg">
<path d="M8.58393 0.260264C4.55911 1.12086 1.08469 4.63209 0.241886 8.67689C-1.39212 16.4911 5.50511 23.3931 13.314 21.7579C18.2504 20.7252 22 16.0952 22 11.0005C22 6.93849 19.5576 2.97975 15.98 1.20692C13.5892 0.036509 11.0951 -0.290517 8.58393 0.260264ZM15.3436 5.13124C17.0292 5.95741 17.4248 7.29994 17.3216 11.689C17.2528 14.2363 17.2012 14.6322 16.8572 15.3723C16.0488 17.0419 14.5868 17.455 10.1147 17.3345C7.77553 17.2656 7.34552 17.214 6.62312 16.8698C4.97191 16.0608 4.54191 14.615 4.66231 10.1399C4.71391 7.78187 4.76551 7.36879 5.12671 6.64588C5.59111 5.68202 6.45112 5.04518 7.56912 4.80421C7.98193 4.71815 9.71914 4.66651 11.4219 4.68373C14.2772 4.71815 14.5868 4.75257 15.3436 5.13124Z" fill="#464646"/>
<path d="M7.22518 6.14673C6.89837 6.30163 6.46837 6.66308 6.27917 6.92126C5.93517 7.38598 5.91797 7.64416 5.91797 11.0005C5.91797 14.3568 5.93517 14.615 6.27917 15.0797C6.98437 16.0436 7.48318 16.1641 10.992 16.1641C14.5008 16.1641 14.9996 16.0436 15.7048 15.0797C16.0488 14.615 16.066 14.3568 16.066 11.0005C16.066 7.64416 16.0488 7.38598 15.7048 6.92126C14.9996 5.9574 14.5008 5.83691 10.992 5.83691C8.30878 5.83691 7.72398 5.88855 7.22518 6.14673ZM14.948 7.12781C15.0684 7.2655 15.12 7.5581 15.0512 7.79907C14.9136 8.36706 14.3288 8.53918 13.8988 8.14331C13.5032 7.78186 13.486 7.50647 13.8472 7.14502C14.1912 6.80078 14.6728 6.80078 14.948 7.12781ZM12.1616 7.9884C14.9136 9.1416 14.9136 12.8594 12.1616 14.0126C11.3532 14.3396 10.6308 14.3396 9.82239 14.0126C7.12198 12.8766 7.05317 9.2793 9.70199 8.05725C10.5448 7.66138 11.3188 7.64416 12.1616 7.9884Z" fill="#464646"/>
<path d="M9.92549 9.2102C8.60108 9.91589 8.63548 12.119 9.95989 12.8075C11.4047 13.5476 13.0559 12.5837 13.0559 11.0002C13.0559 9.41674 11.3531 8.43566 9.92549 9.2102Z" fill="#464646"/>
</svg>
