<svg width="16" height="16" viewBox="0 0 16 16" fill="none" xmlns="http://www.w3.org/2000/svg">
<path d="M15.6122 3.91909C15.6122 8.6926 9.02363 15.0156 4.06104 15.0156C2.97486 15.0156 1.96023 14.622 1.21226 13.9035L0.561852 13.1849C-0.192618 12.4602 -0.192618 11.2356 0.594373 10.4795C0.613885 10.4608 2.18136 9.30491 2.18136 9.30491C2.96185 8.59263 4.19112 8.59263 4.9651 9.30491L5.91469 10.0359C7.99599 9.1862 9.47241 7.76164 10.422 5.69354L9.66753 4.78132C8.91957 4.03781 8.91957 2.85068 9.66753 2.10716C9.66753 2.10716 10.8708 0.601379 10.8903 0.582635C11.6773 -0.173378 12.9521 -0.173378 13.7391 0.582635L14.422 1.15121C15.2025 1.89473 15.6122 2.86942 15.6122 3.91284V3.91909Z" fill="#464646"/>
</svg>
