<svg width="13" height="15" viewBox="0 0 13 15" fill="none" xmlns="http://www.w3.org/2000/svg">
<path d="M7.77679 11.9312H8.47321C8.64732 11.9312 8.82143 11.7927 8.82143 11.5988V5.61683C8.82143 5.45066 8.64732 5.28449 8.47321 5.28449H7.77679C7.57366 5.28449 7.42857 5.45066 7.42857 5.61683V11.5988C7.42857 11.7927 7.57366 11.9312 7.77679 11.9312ZM12.5357 2.62583H10.1272L9.14062 1.07494C8.90848 0.714917 8.38616 0.410278 7.95089 0.410278H5.02009C4.58482 0.410278 4.0625 0.714917 3.83036 1.07494L2.84375 2.62583H0.464286C0.203125 2.62583 0 2.84739 0 3.06894V3.51205C0 3.7613 0.203125 3.95516 0.464286 3.95516H0.928571V13.2605C0.928571 14.0082 1.53795 14.5898 2.32143 14.5898H10.6786C11.433 14.5898 12.0714 14.0082 12.0714 13.2605V3.95516H12.5357C12.7679 3.95516 13 3.7613 13 3.51205V3.06894C13 2.84739 12.7679 2.62583 12.5357 2.62583ZM4.96205 1.82269C4.99107 1.795 5.07812 1.73961 5.10714 1.73961H5.13616H7.86384C7.89286 1.73961 7.97991 1.795 8.00893 1.82269L8.50223 2.62583H4.46875L4.96205 1.82269ZM10.6786 13.2605H2.32143V3.95516H10.6786V13.2605ZM4.52679 11.9312H5.22321C5.39732 11.9312 5.57143 11.7927 5.57143 11.5988V5.61683C5.57143 5.45066 5.39732 5.28449 5.22321 5.28449H4.52679C4.32366 5.28449 4.17857 5.45066 4.17857 5.61683V11.5988C4.17857 11.7927 4.32366 11.9312 4.52679 11.9312Z" fill="#A3A3A3"/>
</svg>
