<svg width="14" height="16" viewBox="0 0 14 16" fill="none" xmlns="http://www.w3.org/2000/svg">
<path d="M0.343551 15.7369C0.0678487 15.6224 -0.0051312 15.4271 0.000274717 15.1631C0.0543339 12.6133 2.23427 10.3456 5.04805 9.93453C5.40079 9.8851 5.75623 9.85858 6.11302 9.85496C6.74551 9.8417 7.37936 9.83447 8.0105 9.85496C10.4067 9.93333 12.1622 10.9484 13.311 12.8098C13.7624 13.5428 13.9611 14.3421 13.9989 15.1775C14.0111 15.4367 13.9232 15.6248 13.6556 15.7369H0.343551Z" fill="#005BBB"/>
<path d="M7.32648 0.263184C7.63294 0.329685 7.94722 0.370108 8.24454 0.466601C10.0076 1.03252 11.1852 2.7707 11.0405 4.57408C10.8879 6.4922 9.50949 8.01262 7.64598 8.31644C7.37343 8.36078 7.09827 8.37642 6.82311 8.36469C6.54665 8.35295 6.2754 8.31253 6.00677 8.24472C5.73943 8.17822 5.48123 8.08434 5.23215 7.96307C4.98438 7.8431 4.75095 7.69836 4.53187 7.53015C4.31279 7.36194 4.11196 7.17287 3.932 6.96424C3.75204 6.7556 3.59425 6.53002 3.45993 6.28878C3.32561 6.04755 3.21737 5.79458 3.13391 5.53118C3.05175 5.26778 2.99568 4.99786 2.96829 4.72273C2.74269 2.51643 4.35321 0.523976 6.55056 0.289263C6.58968 0.282743 6.62881 0.273615 6.66662 0.263184H7.32648Z" fill="#005BBB"/>
</svg>
