<svg width="13" height="5" viewBox="0 0 13 5" fill="none" xmlns="http://www.w3.org/2000/svg">
<path d="M10.4801 3.94202C10.7944 3.6189 11.195 3.27331 11.554 3.01762C11.8437 2.81252 12.2597 2.56667 12.5217 2.44585L12.6172 2.4023L12.6172 2.06654L12.6172 1.73078L12.4385 1.64368C12.1026 1.48212 11.8375 1.32056 11.477 1.05504C11.0625 0.751597 10.742 0.473436 10.4308 0.150319L10.2875 1.97013e-07L9.62494 2.53042e-07L8.96394 3.0894e-07L8.97472 0.0323119C8.99937 0.102555 9.14575 0.400383 9.26285 0.611111C9.40306 0.866795 9.53557 1.08174 9.68041 1.28544L9.78056 1.42593L5.16585 1.43014L0.552672 1.43295L0.552672 2.07216L0.552672 2.71137L5.16893 2.71418L9.78364 2.71839L9.7405 2.77459C9.57872 2.97688 9.32294 3.38851 9.17349 3.68072C9.0795 3.86616 8.96548 4.11341 8.96548 4.13308C8.96548 4.1387 9.26285 4.14432 9.62494 4.14432L10.2844 4.14432L10.4801 3.94202Z" fill="#005BBB"/>
</svg>
