<svg width="17" height="17" viewBox="0 0 17 17" fill="none" xmlns="http://www.w3.org/2000/svg">
<path d="M10.462 0.623808C10.5447 0.677675 10.5924 0.741049 10.6115 0.823433C10.6305 0.886806 10.71 1.39062 10.7895 1.9388C10.9548 3.08902 10.9548 3.07951 10.9993 3.07951C11.0788 3.07951 11.5462 3.33617 11.9182 3.58649C12.1344 3.73225 12.3284 3.84949 12.3474 3.84949C12.3633 3.84949 12.8085 3.67205 13.3331 3.45341C13.8577 3.23477 14.3282 3.04782 14.3759 3.03515C14.4999 3.00663 14.7002 3.06683 14.8115 3.16823C14.8624 3.21576 15.2789 3.90653 15.7336 4.70186C16.6365 6.27984 16.5984 6.18795 16.4553 6.44778C16.4076 6.53333 16.1596 6.7393 15.5174 7.2241L14.6462 7.88001L14.6748 8.1335C14.7034 8.41234 14.7098 9.16331 14.6843 9.38195L14.6684 9.52137L15.5078 10.1995C15.9688 10.5734 16.379 10.9156 16.414 10.9631C16.4585 11.0201 16.4807 11.093 16.4807 11.1912C16.4775 11.318 16.3917 11.4828 15.6286 12.8104C14.9896 13.9194 14.7606 14.2933 14.7002 14.3219C14.5063 14.4106 14.3727 14.3757 13.2981 13.948L12.2616 13.5329L12.0009 13.7071C11.8578 13.8022 11.5494 13.9828 11.3141 14.1064C11.0788 14.23 10.8817 14.3345 10.8785 14.3409C10.8753 14.344 10.799 14.8257 10.71 15.4087C10.621 15.9886 10.532 16.5082 10.5129 16.5589C10.4938 16.6065 10.4334 16.6762 10.3794 16.7079C10.2872 16.7649 10.1854 16.7681 8.50666 16.7681C6.61488 16.7681 6.6435 16.7712 6.50042 16.6128C6.45273 16.5589 6.40504 16.3245 6.2715 15.4626C6.1793 14.8637 6.10299 14.3662 6.09981 14.3536C6.09981 14.3409 5.91858 14.2395 5.69284 14.1254C5.36536 13.9575 4.99336 13.7357 4.75172 13.5582C4.72947 13.5392 4.31296 13.6913 3.67389 13.9448C3.04435 14.1951 2.58969 14.3599 2.52293 14.3599C2.35759 14.3599 2.26221 14.3029 2.16047 14.1413C1.87114 13.6818 0.535767 11.3053 0.503971 11.1944C0.434023 10.9314 0.437202 10.9282 1.49596 10.1931C2.02057 9.82556 2.46569 9.52137 2.47841 9.51186C2.49113 9.50236 2.48159 9.33125 2.45298 9.13162C2.40846 8.78624 2.41164 8.24757 2.46252 7.97507C2.47841 7.88318 2.45298 7.85783 1.60724 7.17657C1.00951 6.69177 0.723354 6.44144 0.694739 6.3749C0.608893 6.16577 0.647047 6.08339 1.5214 4.55927C2.01739 3.69423 2.37985 3.09535 2.42118 3.07317C2.45934 3.05099 2.56108 3.03515 2.6501 3.03515C2.78046 3.03515 2.97123 3.09852 3.68342 3.38687C4.16352 3.58016 4.6309 3.77027 4.72311 3.80513L4.88526 3.8685L5.02515 3.76394C5.20002 3.63085 5.64833 3.36786 5.98217 3.20309C6.12525 3.13021 6.24607 3.06683 6.25242 3.06367C6.2715 3.04782 6.57673 1.03256 6.57673 0.918492C6.57673 0.763227 6.6276 0.661831 6.7357 0.598459C6.81519 0.55093 6.9996 0.544592 8.58614 0.544592H10.3444L10.462 0.623808ZM7.80082 5.97882C6.81201 6.27034 6.0553 7.06567 5.79458 8.08597C5.70874 8.42185 5.7151 9.02072 5.81048 9.36927C5.95673 9.92695 6.32555 10.5005 6.77385 10.8744C7.05047 11.1025 7.54328 11.356 7.8962 11.4479C8.25548 11.543 8.87229 11.543 9.23157 11.4479C9.96603 11.2514 10.6178 10.7635 11.0057 10.1202C11.9405 8.57394 11.1583 6.57453 9.3969 5.99783C9.0726 5.8901 8.91999 5.87109 8.4844 5.88059C8.16963 5.8901 8.02974 5.90911 7.80082 5.97882Z" fill="#464646"/>
</svg>
