<svg width="13" height="6" viewBox="0 0 13 6" fill="none" xmlns="http://www.w3.org/2000/svg">
<path d="M10.4303 4.86975C10.7446 4.54664 11.1452 4.20104 11.5042 3.94536C11.7939 3.74025 12.2099 3.4944 12.4719 3.37358L12.5674 3.33003L12.5674 2.99427L12.5674 2.65851L12.3886 2.57141C12.0528 2.40985 11.7877 2.2483 11.4272 1.98278C11.0127 1.67933 10.6922 1.40117 10.381 1.07805L10.2377 0.927735L9.57514 0.927735L8.91413 0.927735L8.92492 0.960046C8.94957 1.03029 9.09595 1.32812 9.21305 1.53885C9.35326 1.79453 9.48577 2.00947 9.63061 2.21318L9.73076 2.35366L5.11604 2.35788L0.502867 2.36069L0.502867 2.99989L0.502867 3.6391L5.11912 3.64191L9.73384 3.64613L9.6907 3.70232C9.52891 3.90462 9.27314 4.31624 9.12368 4.60845C9.02969 4.79389 8.91567 5.04114 8.91567 5.06081C8.91567 5.06643 9.21305 5.07205 9.57514 5.07205L10.2346 5.07205L10.4303 4.86975Z" fill="white"/>
</svg>
