<svg width="13" height="6" viewBox="0 0 13 6" fill="none" xmlns="http://www.w3.org/2000/svg">
<path d="M10.4303 4.87024C10.7446 4.54712 11.1452 4.20153 11.5042 3.94585C11.7939 3.74074 12.2099 3.49489 12.4719 3.37407L12.5674 3.33052L12.5674 2.99476L12.5674 2.659L12.3886 2.5719C12.0528 2.41034 11.7877 2.24878 11.4272 1.98327C11.0127 1.67982 10.6922 1.40166 10.381 1.07854L10.2377 0.928223L9.57514 0.928223L8.91413 0.928223L8.92492 0.960535C8.94957 1.03078 9.09595 1.32861 9.21305 1.53933C9.35326 1.79502 9.48577 2.00996 9.63061 2.21366L9.73076 2.35415L5.11604 2.35836L0.502867 2.36117L0.502867 3.00038L0.502867 3.63959L5.11912 3.6424L9.73384 3.64661L9.6907 3.70281C9.52891 3.90511 9.27314 4.31673 9.12368 4.60894C9.02969 4.79438 8.91567 5.04163 8.91567 5.0613C8.91567 5.06692 9.21305 5.07254 9.57514 5.07254L10.2346 5.07254L10.4303 4.87024Z" fill="white"/>
</svg>
