<svg width="18" height="17" viewBox="0 0 18 17" fill="none" xmlns="http://www.w3.org/2000/svg">
<path d="M8.44236 0.777845C6.05658 0.94799 3.90061 2.14992 2.48008 4.09787C1.75778 5.08602 1.2653 6.28359 1.06174 7.53787C0.974191 8.08539 0.952304 8.97756 1.0114 9.57962C1.20183 11.5254 2.14082 13.3883 3.5898 14.6905C4.89433 15.8641 6.46588 16.5643 8.19941 16.7476C8.52335 16.7803 9.49518 16.7803 9.81912 16.7476C10.9792 16.6254 12.1305 16.2458 13.1023 15.6678C13.6802 15.3231 14.1157 14.9872 14.6104 14.5073C15.9543 13.2007 16.7467 11.6105 16.9918 9.73013C17.0465 9.3004 17.0465 8.24681 16.9918 7.81054C16.797 6.29668 16.2301 4.95078 15.2824 3.76412C15.0241 3.4391 14.3828 2.7956 14.0763 2.55129C13.319 1.94923 12.5595 1.52823 11.6599 1.20757C10.6684 0.856374 9.50831 0.701498 8.44236 0.777845ZM9.31569 2.38987C10.3094 2.45749 11.1718 2.69744 11.9663 3.12935C13.8399 4.14586 15.0766 5.99783 15.2714 8.06794C15.313 8.52166 15.2867 9.30477 15.2167 9.71486C15.116 10.282 14.9584 10.7968 14.733 11.2898C14.5994 11.5756 14.3937 11.9486 14.3609 11.9595C14.3346 11.9682 13.6057 11.3422 13.6057 11.3138C13.6057 11.3029 13.6495 11.2135 13.702 11.1131C13.9187 10.7052 14.1157 10.1315 14.2077 9.64288C14.5579 7.756 13.8509 5.82114 12.3647 4.59958C11.5723 3.94954 10.6224 3.53944 9.61118 3.41292C9.32883 3.37802 8.60215 3.37802 8.31979 3.41292C7.33264 3.53726 6.38271 3.93863 5.60568 4.56032C5.1723 4.90933 4.67763 5.47649 4.38215 5.96729C3.86559 6.82238 3.59199 7.87816 3.63139 8.84668C3.67954 9.97008 4.03851 10.9844 4.69733 11.8526C5.49843 12.9127 6.63442 13.6239 7.93675 13.8834C8.28477 13.9511 8.52116 13.9729 8.96986 13.9729C9.65934 13.9729 10.2262 13.8725 10.8588 13.6369C11.047 13.565 11.3951 13.4035 11.3951 13.3861C11.3929 13.3795 11.2528 13.2007 11.0799 12.9913C10.9069 12.7818 10.7712 12.603 10.78 12.5943C10.7866 12.5855 11.0405 12.5484 11.3403 12.5114C11.8985 12.4459 13.0257 12.3085 13.3212 12.2736C13.4109 12.2627 13.4875 12.2561 13.4919 12.2605C13.5072 12.2758 12.7149 14.9436 12.6952 14.9436C12.6799 14.9436 12.2202 14.4004 12.0977 14.2368L12.0604 14.1866L11.8306 14.3001C11.1915 14.6207 10.4517 14.8454 9.73157 14.937C9.3923 14.9785 8.45769 14.9741 8.11842 14.9261C6.4812 14.6971 5.0366 13.8834 4.01224 12.6095C3.54822 12.0358 3.14329 11.2876 2.92879 10.6136C2.6924 9.8741 2.58952 9.04955 2.63768 8.31443C2.72523 6.99253 3.16518 5.83423 3.97503 4.78936C4.18297 4.52105 4.73454 3.97135 5.01909 3.74667C6.04782 2.93739 7.24072 2.48148 8.56713 2.39205C8.93703 2.36587 8.96549 2.36587 9.31569 2.38987ZM8.08997 5.96075C8.26288 6.31849 8.52554 6.85728 8.67219 7.15831L8.93922 7.70801L9.08149 7.73201C9.27192 7.76473 9.38574 7.80618 9.50393 7.88688C9.55865 7.92179 9.6068 7.95233 9.61337 7.95233C9.6265 7.95233 9.87165 7.83671 10.6399 7.46806C10.9901 7.3001 11.6096 7.00344 12.0189 6.80711C12.4282 6.61079 12.8572 6.40574 12.971 6.35121C13.0848 6.29449 13.1877 6.25305 13.2008 6.25959C13.2293 6.26832 13.5182 6.84856 13.5182 6.89219C13.5182 6.90746 13.3737 6.99035 13.1964 7.07324C11.9247 7.68184 11.1412 8.05703 10.8588 8.19228C10.6793 8.27953 10.4013 8.41259 10.2437 8.48676L9.95701 8.62418L9.94388 8.80087C9.91324 9.25678 9.56084 9.63197 9.09244 9.70396C8.72253 9.76067 8.33511 9.58834 8.12718 9.27641C7.99804 9.08445 7.95207 8.9143 7.96302 8.66999C7.96958 8.47367 7.97834 8.44531 8.0637 8.27299C8.11405 8.17046 8.15563 8.07884 8.15563 8.06794C8.15563 8.05485 8.05933 7.84544 7.93894 7.60113C7.1269 5.92803 7.01527 5.69244 7.03278 5.66626C7.05248 5.63791 7.71131 5.31288 7.75289 5.31288C7.76603 5.31288 7.91924 5.60519 8.08997 5.96075Z" fill="#464646"/>
</svg>
