<svg width="16" height="12" viewBox="0 0 16 12" fill="none" xmlns="http://www.w3.org/2000/svg">
<path d="M0.20735 0.937913C0.0243941 1.14246 0 1.67187 0 6.03952C0 10.6117 0.0121971 10.9245 0.219547 11.105C0.426897 11.2855 1.13433 11.3096 7.83052 11.3096C14.8194 11.3096 15.2219 11.2975 15.4049 11.093C15.5879 10.8884 15.6122 10.359 15.6122 5.99139C15.6122 1.4192 15.6 1.10636 15.3927 0.92588C15.1853 0.745399 14.4779 0.721335 7.78173 0.721335C0.792809 0.721335 0.390306 0.733368 0.20735 0.937913ZM4.51291 4.53551C6.25709 6.05155 7.74514 7.27882 7.80612 7.27882C7.86711 7.27882 9.35515 6.03952 11.0993 4.53551C14.173 1.88845 14.6365 1.56358 14.7341 2.0569C14.7706 2.27347 14.234 2.80289 11.8312 4.92053C10.9896 5.66652 10.3065 6.32829 10.3065 6.40048C10.3065 6.47267 11.2701 7.24273 12.441 8.10904C13.6119 8.97535 14.5877 9.7815 14.6121 9.90182C14.7219 10.4433 14.1974 10.1906 11.9531 8.61438C10.6724 7.71198 9.59909 6.97802 9.5625 6.97802C9.52591 6.97802 9.1478 7.24273 8.7087 7.57962C8.26961 7.90449 7.86711 8.18123 7.80612 8.18123C7.74514 8.18123 7.34263 7.90449 6.90354 7.57962C6.46445 7.24273 6.07414 6.97802 6.03755 6.97802C6.00096 6.97802 4.9764 7.68791 3.7567 8.56625C1.52463 10.1425 1.03675 10.3951 1.03675 9.92588C1.03675 9.75743 1.6466 9.22802 3.17124 8.10904C4.34216 7.24273 5.30572 6.47267 5.30572 6.40048C5.30572 6.32829 4.34216 5.42588 3.17124 4.37909C2.00032 3.34433 0.987962 2.41786 0.939174 2.3216C0.792809 2.09299 0.926977 1.80422 1.15872 1.80422C1.2563 1.80422 2.76873 3.0315 4.51291 4.53551Z" fill="#464646"/>
</svg>
