<svg width="11" height="11" viewBox="0 0 11 11" fill="none" xmlns="http://www.w3.org/2000/svg">
<g clip-path="url(#clip0_58_51602)">
<path fill-rule="evenodd" clip-rule="evenodd" d="M0.00817871 5.31163C0.00817871 3.96868 0.578935 2.68074 1.59489 1.73114C2.61084 0.78153 3.98877 0.248047 5.42554 0.248047C6.86232 0.248047 8.24024 0.78153 9.2562 1.73114C10.2721 2.68074 10.8429 3.96868 10.8429 5.31163C10.8429 6.65457 10.2721 7.94252 9.2562 8.89212C8.24024 9.84173 6.86232 10.3752 5.42554 10.3752C3.98877 10.3752 2.61084 9.84173 1.59489 8.89212C0.578935 7.94252 0.00817871 6.65457 0.00817871 5.31163H0.00817871ZM5.11639 7.47884L8.23535 3.83441L7.67194 3.41312L5.01238 6.51946L3.12858 5.05237L2.6663 5.57088L5.11639 7.47952V7.47884Z" fill="#464646"/>
</g>
<defs>
<clipPath id="clip0_58_51602">
<rect width="10.8347" height="10.1272" fill="white" transform="translate(0.00817871 0.248047)"/>
</clipPath>
</defs>
</svg>
