<svg width="20" height="9" viewBox="0 0 20 9" fill="none" xmlns="http://www.w3.org/2000/svg">
<path d="M1 4C0.723858 4 0.5 4.22386 0.5 4.5C0.5 4.77614 0.723858 5 1 5L1 4ZM19.3536 4.85355C19.5488 4.65829 19.5488 4.34171 19.3536 4.14645L16.1716 0.964465C15.9763 0.769203 15.6597 0.769203 15.4645 0.964465C15.2692 1.15973 15.2692 1.47631 15.4645 1.67157L18.2929 4.5L15.4645 7.32843C15.2692 7.52369 15.2692 7.84027 15.4645 8.03553C15.6597 8.23079 15.9763 8.23079 16.1716 8.03553L19.3536 4.85355ZM1 5L19 5L19 4L1 4L1 5Z" fill="white"/>
</svg>
