<svg width="7" height="11" viewBox="0 0 7 11" fill="none" xmlns="http://www.w3.org/2000/svg">
<mask id="mask0_94_54433" style="mask-type:luminance" maskUnits="userSpaceOnUse" x="0" y="0" width="7" height="11">
<path d="M0 0H7V10.0577H0V0Z" fill="white"/>
</mask>
<g mask="url(#mask0_94_54433)">
<path fill-rule="evenodd" clip-rule="evenodd" d="M3.5 0.00341797C5.43319 0.00341797 7 1.57232 7 3.5076C7 4.18118 6.81024 4.80994 6.48151 5.34397C6.08705 5.99812 5.69258 6.65258 5.29811 7.30674C4.81758 8.0885 4.42909 8.72144 3.94856 9.5032C3.5251 10.1926 3.49641 10.2097 3.07087 9.51665C2.59273 8.73877 2.19079 8.08462 1.71294 7.30674C1.31937 6.65975 0.926101 6.01307 0.532531 5.36608C0.195142 4.82727 0 4.19045 0 3.5076C0 1.57232 1.56711 0.00341797 3.5 0.00341797ZM3.5 1.76029C4.36663 1.76029 5.0692 2.46376 5.0692 3.33129C5.0692 4.19882 4.36663 4.90228 3.5 4.90228C2.63337 4.90228 1.9311 4.19882 1.9311 3.33129C1.9311 2.46376 2.63337 1.76029 3.5 1.76029Z" fill="#464646"/>
</g>
</svg>
