<svg width="24" height="22" viewBox="0 0 24 22" fill="none" xmlns="http://www.w3.org/2000/svg">
<path d="M12.4873 0C18.8388 0 23.9873 4.92465 23.9873 11C23.9873 17.0753 18.8388 22 12.4873 22C6.1358 22 0.987305 17.0753 0.987305 11C0.987305 4.92465 6.1358 0 12.4873 0ZM16.4543 15.4837C16.6658 14.8629 17.6568 8.67613 17.7793 7.45704C17.8163 7.08783 17.6943 6.84248 17.4553 6.73296C17.1663 6.6 16.7383 6.66648 16.2418 6.8377C15.5608 7.07252 6.8548 10.6083 6.3518 10.813C5.8748 11.0067 5.4238 11.2181 5.4238 11.5242C5.4238 11.7394 5.5573 11.8604 5.9253 11.9862C6.3083 12.1167 7.2728 12.3965 7.8423 12.5467C8.3908 12.6916 9.0153 12.5658 9.3653 12.3578C9.73631 12.1373 14.0178 9.39687 14.3253 9.15678C14.6323 8.9167 14.8773 9.22422 14.6263 9.46478C14.3753 9.70487 11.4363 12.4333 11.0488 12.8112C10.5783 13.2698 10.9123 13.7452 11.2278 13.9356C11.5883 14.1527 14.1808 15.8161 14.5713 16.083C14.9618 16.3498 15.3578 16.4708 15.7203 16.4708C16.0828 16.4708 16.2738 16.0141 16.4543 15.4837Z" fill="#464646"/>
</svg>
