<svg width="22" height="12" viewBox="0 0 22 12" fill="none" xmlns="http://www.w3.org/2000/svg">
<path d="M10.1066 0.146463C6.77589 0.523514 3.73591 2.22881 1.32445 5.06954C1.1748 5.24521 1.02515 5.45087 0.995221 5.52799C0.91826 5.71223 0.91826 6.06358 0.995221 6.24782C1.11494 6.53917 2.31212 7.82029 3.09456 8.50155C4.64234 9.85121 6.64335 10.8924 8.56739 11.3551C9.63202 11.6079 10.0083 11.6465 11.4107 11.6465C12.8131 11.6465 13.1894 11.6079 14.254 11.3551C16.922 10.7124 19.4147 9.13139 21.3858 6.83481C21.8133 6.33351 21.886 6.20068 21.886 5.8879C21.886 5.57512 21.8133 5.4423 21.3858 4.941C19.4446 2.6787 17.0203 1.12765 14.3652 0.446389C13.4288 0.206449 12.8217 0.137895 11.6031 0.12504C10.9703 0.116471 10.2947 0.129325 10.1066 0.146463ZM8.16547 2.593C7.26331 3.49278 6.79299 4.62822 6.79299 5.8879C6.79299 7.15616 7.25904 8.27874 8.16975 9.18709C8.46477 9.48702 8.4776 9.48273 7.81915 9.24279C6.69893 8.83146 5.55733 8.17163 4.51408 7.33183C3.99245 6.91194 3.03043 5.9736 3.03043 5.8879C3.03043 5.85363 3.26986 5.58798 3.56488 5.30091C4.99722 3.90411 6.42101 3.00861 8.22533 2.38305C8.43912 2.31022 8.43484 2.32307 8.16547 2.593ZM15.0022 2.53302C16.131 2.94434 17.2683 3.60418 18.3073 4.44397C18.8289 4.86387 19.7909 5.80221 19.7909 5.8879C19.7909 5.9736 18.8289 6.91194 18.3073 7.33183C17.264 8.17163 16.1224 8.83146 15.0022 9.24279C14.3438 9.48273 14.3566 9.48702 14.6516 9.18709C15.5581 8.27874 16.0284 7.15188 16.0284 5.8879C16.0284 4.61965 15.5623 3.49707 14.6516 2.58872C14.3566 2.28879 14.3438 2.29308 15.0022 2.53302ZM12.1119 3.14572C12.2957 3.19285 12.5822 3.30426 12.749 3.38995C13.1637 3.60847 13.6853 4.1312 13.9034 4.54681C14.3438 5.38232 14.3438 6.39349 13.9034 7.229C13.6853 7.64461 13.1637 8.16734 12.749 8.38586C11.9152 8.82718 10.9062 8.82718 10.0724 8.38586C9.65767 8.16734 9.13605 7.64461 8.91799 7.229C8.4776 6.39349 8.4776 5.38232 8.91799 4.54681C9.13605 4.1312 9.65767 3.60847 10.0724 3.38995C10.6924 3.06432 11.4449 2.97434 12.1119 3.14572Z" fill="#969BA0"/>
</svg>
