<svg width="16" height="17" viewBox="0 0 16 17" fill="none" xmlns="http://www.w3.org/2000/svg">
<path d="M3.64387 0.656542C3.5038 0.714523 3.35737 0.846591 3.28734 0.985102C3.23004 1.09784 3.2173 1.18804 3.20457 1.52948L3.19184 1.94179H2.1509C0.988988 1.94179 0.953971 1.94823 0.756606 2.17694C0.603807 2.3541 0.587891 2.49583 0.587891 3.76176V4.90527H8.10368H15.6163L15.6067 3.67156C15.594 2.3541 15.5908 2.33477 15.4285 2.15439C15.2375 1.95145 15.1961 1.94179 14.0501 1.94179H13.0092L12.9964 1.52948C12.9869 1.16871 12.9741 1.10429 12.9073 0.975439C12.8627 0.89813 12.7672 0.78861 12.6908 0.73385C12.5539 0.637215 12.5476 0.637215 12.0733 0.627552C11.513 0.614667 11.3857 0.646879 11.2074 0.846591C11.061 1.01087 11.0291 1.14294 11.0291 1.5778V1.94179H8.1005H5.17186V1.5778C5.17186 1.14938 5.14002 1.01409 5.00314 0.856255C4.82806 0.656542 4.71028 0.621109 4.18503 0.624331C3.93037 0.624331 3.68843 0.640436 3.64387 0.656542ZM4.50336 2.26391V3.26247H4.18503H3.8667V2.26391V1.26534H4.18503H4.50336V2.26391ZM12.3343 2.26391V3.26247H12.016H11.6976V2.26391V1.26534H12.016H12.3343V2.26391Z" fill="#464646"/>
<path d="M0.594257 10.7742L0.603807 15.9699L0.670657 16.0988C0.750239 16.247 0.813906 16.3082 0.969888 16.3919C1.07812 16.4499 1.30414 16.4531 8.1005 16.4531H15.1197L15.247 16.3855C15.3935 16.305 15.4539 16.2405 15.5367 16.0827C15.594 15.9732 15.5972 15.7799 15.6067 10.7742L15.6131 5.58166H8.1005H0.587891L0.594257 10.7742ZM5.49019 8.36797V9.18937H4.67844H3.8667V8.36797V7.54657H4.67844H5.49019V8.36797ZM7.78217 8.36797V9.18937H6.97043H6.15868V8.36797V7.54657H6.97043H7.78217V8.36797ZM10.0423 8.36797V9.18937H9.23058H8.41883V8.36797V7.54657H9.23058H10.0423V8.36797ZM12.3343 8.36797V9.18937H11.5226H10.7108V8.36797V7.54657H11.5226H12.3343V8.36797ZM5.49019 10.6872V11.5086H4.67844H3.8667V10.6872V9.86582H4.67844H5.49019V10.6872ZM7.78217 10.6872V11.5086H6.97043H6.15868V10.6872V9.86582H6.97043H7.78217V10.6872ZM10.0423 10.6872V11.5086H9.23058H8.41883V10.6872V9.86582H9.23058H10.0423V10.6872ZM12.3343 10.6872V11.5086H11.5226H10.7108V10.6872V9.86582H11.5226H12.3343V10.6872ZM5.49019 12.9904V13.8279H4.67844H3.8667V12.9904V12.1529H4.67844H5.49019V12.9904ZM7.76625 12.9904V13.8118L6.96406 13.8214L6.15868 13.8279V12.9904V12.1529L6.96406 12.1593L7.76625 12.169V12.9904ZM10.0423 12.9904V13.8279L9.24012 13.8214L8.43475 13.8118L8.4252 13.0226C8.42201 12.5909 8.4252 12.2173 8.43475 12.1947C8.4443 12.1625 8.63211 12.1529 9.24649 12.1529H10.0423V12.9904ZM12.3343 12.9904V13.8279H11.5226H10.7108V12.9904V12.1529H11.5226H12.3343V12.9904Z" fill="#464646"/>
</svg>
