<svg width="17" height="16" viewBox="0 0 17 16" fill="none" xmlns="http://www.w3.org/2000/svg">
<path d="M4.12951 0.0349603C3.98508 0.0929413 3.83408 0.225009 3.76187 0.36352C3.70278 0.476261 3.68965 0.566454 3.67652 0.907899L3.66339 1.32021H2.59C1.39187 1.32021 1.35576 1.32665 1.15225 1.55536C0.994684 1.73252 0.978271 1.87425 0.978271 3.14017V4.28369H8.72835H16.4752L16.4653 3.04998C16.4522 1.73252 16.4489 1.71319 16.2815 1.53281C16.0845 1.32987 16.0419 1.32021 14.8601 1.32021H13.7867L13.7736 0.907899C13.7638 0.547127 13.7506 0.482704 13.6817 0.353857C13.6358 0.276548 13.5373 0.167028 13.4585 0.112268C13.3173 0.0156331 13.3108 0.0156331 12.8217 0.00596952C12.244 -0.00691509 12.1127 0.0252967 11.9288 0.225009C11.7778 0.38929 11.745 0.521358 11.745 0.956217V1.32021H8.72507H5.70513V0.956217C5.70513 0.5278 5.67231 0.392511 5.53116 0.234673C5.35062 0.0349603 5.22916 -0.000473022 4.68754 0.00274849C4.42494 0.00274849 4.17547 0.0188541 4.12951 0.0349603ZM5.0158 1.64233V2.64089H4.68754H4.35929V1.64233V0.643762H4.68754H5.0158V1.64233ZM13.0908 1.64233V2.64089H12.7626H12.4343V1.64233V0.643762H12.7626H13.0908V1.64233Z" fill="#464646"/>
<path d="M0.984837 10.1526L0.994684 15.3484L1.06362 15.4772C1.14568 15.6254 1.21133 15.6866 1.37218 15.7703C1.48378 15.8283 1.71684 15.8315 8.72507 15.8315H15.9631L16.0944 15.7639C16.2454 15.6834 16.3077 15.6189 16.3931 15.4611C16.4522 15.3516 16.4555 15.1583 16.4653 10.1526L16.4719 4.96007H8.72507H0.978271L0.984837 10.1526ZM6.03339 7.74639V8.56779H5.19634H4.35929V7.74639V6.92499H5.19634H6.03339V7.74639ZM8.39682 7.74639V8.56779H7.55977H6.72272V7.74639V6.92499H7.55977H8.39682V7.74639ZM10.7274 7.74639V8.56779H9.89037H9.05332V7.74639V6.92499H9.89037H10.7274V7.74639ZM13.0909 7.74639V8.56779H12.2538H11.4168V7.74639V6.92499H12.2538H13.0909V7.74639ZM6.03339 10.0656V10.887H5.19634H4.35929V10.0656V9.24424H5.19634H6.03339V10.0656ZM8.39682 10.0656V10.887H7.55977H6.72272V10.0656V9.24424H7.55977H8.39682V10.0656ZM10.7274 10.0656V10.887H9.89037H9.05332V10.0656V9.24424H9.89037H10.7274V10.0656ZM13.0909 10.0656V10.887H12.2538H11.4168V10.0656V9.24424H12.2538H13.0909V10.0656ZM6.03339 12.3688V13.2063H5.19634H4.35929V12.3688V11.5313H5.19634H6.03339V12.3688ZM8.3804 12.3688V13.1902L7.5532 13.1998L6.72272 13.2063V12.3688V11.5313L7.5532 11.5377L8.3804 11.5474V12.3688ZM10.7274 12.3688V13.2063L9.90022 13.1998L9.06974 13.1902L9.05989 12.401C9.05661 11.9694 9.05989 11.5957 9.06974 11.5731C9.07959 11.5409 9.27325 11.5313 9.90679 11.5313H10.7274V12.3688ZM13.0909 12.3688V13.2063H12.2538H11.4168V12.3688V11.5313H12.2538H13.0909V12.3688Z" fill="#464646"/>
</svg>
