<svg width="21" height="14" viewBox="0 0 21 14" fill="none" xmlns="http://www.w3.org/2000/svg">
<path d="M1.03589 0.397027C0.801513 0.65906 0.770264 1.33726 0.770264 6.93242C0.770264 12.7896 0.785889 13.1904 1.05151 13.4216C1.31713 13.6528 2.22338 13.6836 10.8014 13.6836C19.7545 13.6836 20.2701 13.6682 20.5045 13.4061C20.7388 13.1441 20.7701 12.4659 20.7701 6.87076C20.7701 1.01357 20.7545 0.612819 20.4888 0.381614C20.2232 0.150409 19.317 0.119581 10.7389 0.119581C1.78588 0.119581 1.27026 0.134995 1.03589 0.397027ZM6.55147 5.00571C8.78582 6.94783 10.6921 8.52002 10.7702 8.52002C10.8483 8.52002 12.7545 6.93242 14.9889 5.00571C18.9264 1.61471 19.5201 1.19854 19.6451 1.8305C19.692 2.10794 19.0045 2.78614 15.9264 5.49895C14.8483 6.45459 13.9733 7.30234 13.9733 7.39482C13.9733 7.48731 15.2076 8.47378 16.7076 9.58356C18.2076 10.6933 19.4576 11.7261 19.4889 11.8802C19.6295 12.5738 18.9576 12.2501 16.0826 10.2309C14.442 9.07491 13.067 8.13468 13.0202 8.13468C12.9733 8.13468 12.4889 8.47378 11.9264 8.90536C11.3639 9.32153 10.8483 9.67604 10.7702 9.67604C10.6921 9.67604 10.1764 9.32153 9.61394 8.90536C9.05144 8.47378 8.55145 8.13468 8.50457 8.13468C8.4577 8.13468 7.14521 9.04409 5.58272 10.1693C2.72337 12.1885 2.09838 12.5122 2.09838 11.911C2.09838 11.6952 2.87962 11.017 4.83273 9.58356C6.33272 8.47378 7.56708 7.48731 7.56708 7.39482C7.56708 7.30234 6.33272 6.14632 4.83273 4.80533C3.33274 3.47976 2.03588 2.29291 1.97338 2.1696C1.78588 1.87674 1.95775 1.50681 2.25463 1.50681C2.37963 1.50681 4.31711 3.079 6.55147 5.00571Z" fill="white"/>
</svg>
