<svg width="22" height="23" viewBox="0 0 22 23" fill="none" xmlns="http://www.w3.org/2000/svg">
<path d="M8.58393 0.275888C4.55911 1.13648 1.08469 4.64772 0.241886 8.69252C-1.39212 16.5067 5.50511 23.4087 13.314 21.7736C18.2504 20.7409 22 16.1109 22 11.0161C22 6.95411 19.5576 2.99537 15.98 1.22254C13.5892 0.0521336 11.0951 -0.274893 8.58393 0.275888ZM15.3436 5.14686C17.0292 5.97303 17.4248 7.31556 17.3216 11.7046C17.2528 14.252 17.2012 14.6478 16.8572 15.388C16.0488 17.0575 14.5868 17.4706 10.1147 17.3501C7.77553 17.2813 7.34552 17.2296 6.62312 16.8854C4.97191 16.0764 4.54191 14.6306 4.66231 10.1555C4.71391 7.7975 4.76551 7.38441 5.12671 6.66151C5.59111 5.69764 6.45112 5.0608 7.56912 4.81984C7.98193 4.73378 9.71914 4.68214 11.4219 4.69935C14.2772 4.73378 14.5868 4.7682 15.3436 5.14686Z" fill="#464646"/>
<path d="M7.22518 6.16235C6.89837 6.31726 6.46837 6.67871 6.27917 6.93689C5.93517 7.40161 5.91797 7.65979 5.91797 11.0161C5.91797 14.3724 5.93517 14.6306 6.27917 15.0953C6.98437 16.0592 7.48318 16.1797 10.992 16.1797C14.5008 16.1797 14.9996 16.0592 15.7048 15.0953C16.0488 14.6306 16.066 14.3724 16.066 11.0161C16.066 7.65979 16.0488 7.40161 15.7048 6.93689C14.9996 5.97302 14.5008 5.85254 10.992 5.85254C8.30878 5.85254 7.72398 5.90417 7.22518 6.16235ZM14.948 7.14343C15.0684 7.28113 15.12 7.57373 15.0512 7.8147C14.9136 8.38269 14.3288 8.55481 13.8988 8.15893C13.5032 7.79748 13.486 7.52209 13.8472 7.16064C14.1912 6.8164 14.6728 6.8164 14.948 7.14343ZM12.1616 8.00403C14.9136 9.15723 14.9136 12.875 12.1616 14.0282C11.3532 14.3552 10.6308 14.3552 9.82239 14.0282C7.12198 12.8922 7.05317 9.29492 9.70199 8.07287C10.5448 7.677 11.3188 7.65979 12.1616 8.00403Z" fill="#464646"/>
<path d="M9.92549 9.22582C8.60108 9.93151 8.63548 12.1346 9.95989 12.8231C11.4047 13.5632 13.0559 12.5994 13.0559 11.0159C13.0559 9.43237 11.3531 8.45129 9.92549 9.22582Z" fill="#464646"/>
</svg>
