<svg width="13" height="14" viewBox="0 0 13 14" fill="none" xmlns="http://www.w3.org/2000/svg">
<path d="M11.9927 5.6875H8.05518V1.75C8.05518 1.28516 7.64502 0.875 7.18018 0.875H6.30518C5.81299 0.875 5.43018 1.28516 5.43018 1.75V5.6875H1.49268C1.00049 5.6875 0.617676 6.09766 0.617676 6.5625V7.4375C0.617676 7.92969 1.00049 8.3125 1.49268 8.3125H5.43018V12.25C5.43018 12.7422 5.81299 13.125 6.30518 13.125H7.18018C7.64502 13.125 8.05518 12.7422 8.05518 12.25V8.3125H11.9927C12.4575 8.3125 12.8677 7.92969 12.8677 7.4375V6.5625C12.8677 6.09766 12.4575 5.6875 11.9927 5.6875Z" fill="white"/>
</svg>
