<svg width="13" height="5" viewBox="0 0 13 5" fill="none" xmlns="http://www.w3.org/2000/svg">
<path d="M10.3817 4.79981C10.696 4.47669 11.0966 4.1311 11.4556 3.87541C11.7453 3.6703 12.1613 3.42445 12.4233 3.30364L12.5188 3.26009L12.5188 2.92433L12.5188 2.58857L12.3401 2.50147C12.0042 2.33991 11.7392 2.17835 11.3786 1.91283C10.9641 1.60938 10.6436 1.33122 10.3324 1.00811L10.1891 0.857788L9.52655 0.857788L8.86555 0.857788L8.87633 0.8901C8.90099 0.960343 9.04736 1.25817 9.16446 1.4689C9.30468 1.72458 9.43719 1.93953 9.58202 2.14323L9.68217 2.28371L5.06746 2.28793L0.454283 2.29074L0.454283 2.92995L0.454283 3.56916L5.07054 3.57196L9.68526 3.57618L9.64211 3.63237C9.48033 3.83467 9.22455 4.24629 9.0751 4.5385C8.98111 4.72394 8.86709 4.9712 8.86709 4.99087C8.86709 4.99649 9.16446 5.00211 9.52655 5.00211L10.186 5.0021L10.3817 4.79981Z" fill="white"/>
</svg>
