<svg width="18" height="17" viewBox="0 0 18 17" fill="none" xmlns="http://www.w3.org/2000/svg">
<path d="M10.9618 0.808134C11.0444 0.862001 11.0921 0.925375 11.1112 1.00776C11.1303 1.07113 11.2098 1.57495 11.2893 2.12312C11.4546 3.27334 11.4546 3.26383 11.4991 3.26383C11.5786 3.26383 12.046 3.5205 12.418 3.77082C12.6342 3.91658 12.8281 4.03382 12.8472 4.03382C12.8631 4.03382 13.3082 3.85637 13.8328 3.63774C14.3574 3.4191 14.828 3.23215 14.8757 3.21947C14.9997 3.19096 15.2 3.25116 15.3113 3.35256C15.3621 3.40009 15.7786 4.09085 16.2333 4.88618C17.1363 6.46417 17.0981 6.37228 16.955 6.63211C16.9074 6.71766 16.6594 6.92362 16.0171 7.40842L15.1459 8.06433L15.1746 8.31783C15.2032 8.59667 15.2095 9.34764 15.1841 9.56627L15.1682 9.70569L16.0076 10.3838C16.4686 10.7577 16.8787 11.0999 16.9137 11.1474C16.9582 11.2045 16.9805 11.2773 16.9805 11.3756C16.9773 11.5023 16.8915 11.6671 16.1284 12.9947C15.4893 14.1038 15.2604 14.4777 15.2 14.5062C15.006 14.5949 14.8725 14.5601 13.7978 14.1323L12.7613 13.7172L12.5006 13.8915C12.3576 13.9865 12.0491 14.1671 11.8139 14.2907C11.5786 14.4143 11.3815 14.5189 11.3783 14.5252C11.3751 14.5284 11.2988 15.01 11.2098 15.593C11.1207 16.1729 11.0317 16.6926 11.0126 16.7433C10.9936 16.7908 10.9332 16.8605 10.8791 16.8922C10.7869 16.9492 10.6852 16.9524 9.00641 16.9524C7.11464 16.9524 7.14325 16.9556 7.00018 16.7971C6.95249 16.7433 6.90479 16.5088 6.77126 15.6469C6.67905 15.048 6.60275 14.5506 6.59957 14.5379C6.59957 14.5252 6.41834 14.4238 6.1926 14.3097C5.86511 14.1418 5.49312 13.92 5.25148 13.7425C5.22922 13.7235 4.81271 13.8756 4.17364 14.1291C3.54411 14.3794 3.08945 14.5442 3.02268 14.5442C2.85735 14.5442 2.76197 14.4872 2.66022 14.3256C2.37089 13.8661 1.03552 11.4896 1.00373 11.3787C0.933779 11.1157 0.936958 11.1126 1.99572 10.3774C2.52033 10.0099 2.96545 9.70569 2.97817 9.69619C2.99089 9.68668 2.98135 9.51557 2.95273 9.31595C2.90822 8.97057 2.9114 8.4319 2.96227 8.15939C2.97817 8.0675 2.95273 8.04215 2.107 7.3609C1.50926 6.87609 1.22311 6.62577 1.1945 6.55923C1.10865 6.3501 1.1468 6.26771 2.02115 4.74359C2.51715 3.87855 2.87961 3.27968 2.92094 3.2575C2.95909 3.23532 3.06083 3.21947 3.14986 3.21947C3.28022 3.21947 3.47098 3.28285 4.18318 3.57119C4.66328 3.76448 5.13066 3.9546 5.22286 3.98946L5.38501 4.05283L5.52491 3.94826C5.69978 3.81518 6.14808 3.55218 6.48193 3.38741C6.625 3.31453 6.74582 3.25116 6.75218 3.24799C6.77126 3.23215 7.07648 1.21689 7.07648 1.10282C7.07648 0.947554 7.12736 0.846157 7.23546 0.782785C7.31494 0.735256 7.49935 0.728918 9.0859 0.728918H10.8441L10.9618 0.808134ZM8.30057 6.16315C7.31176 6.45466 6.55505 7.24999 6.29434 8.2703C6.20849 8.60617 6.21485 9.20505 6.31024 9.5536C6.45649 10.1113 6.82531 10.6848 7.27361 11.0587C7.55022 11.2868 8.04304 11.5403 8.39596 11.6322C8.75524 11.7273 9.37205 11.7273 9.73133 11.6322C10.4658 11.4358 11.1176 10.9478 11.5055 10.3046C12.4402 8.75827 11.6581 6.75885 9.89666 6.18216C9.57236 6.07442 9.41974 6.05541 8.98416 6.06492C8.66939 6.07442 8.52949 6.09344 8.30057 6.16315Z" fill="#464646"/>
</svg>
