<svg width="30" height="32" viewBox="0 0 30 32" fill="none" xmlns="http://www.w3.org/2000/svg">
<path d="M6.04757 0.732494C4.68436 0.932177 3.57842 1.89603 3.15986 3.25156L3.05618 3.58949L3.04082 5.19079L3.0293 6.79593H3.85491H4.68436V5.38279C4.68436 3.85445 4.69588 3.73157 4.8994 3.3322C5.0338 3.07108 5.37556 2.737 5.66741 2.5834C6.13589 2.33379 5.97461 2.34147 10.5135 2.34147H14.6301V4.90278C14.6301 6.31592 14.6416 7.59849 14.6531 7.75594C14.7376 8.92715 15.1562 9.86412 15.9549 10.6552C16.6576 11.3579 17.56 11.8033 18.5853 11.9608C18.881 12.0069 19.4762 12.0184 21.6612 12.0184H24.3723L24.3531 13.996L24.3339 15.9736H25.1864H26.035V13.0936V10.2136L25.3131 9.47628C24.9176 9.06923 23.9806 8.10538 23.2318 7.33353C22.4868 6.56168 21.5882 5.63623 21.235 5.27911C20.8855 4.91814 20.0023 4.01189 19.2765 3.26308C18.5508 2.51427 17.6867 1.62722 17.3603 1.29314L16.7651 0.690253L11.5196 0.694094C8.63576 0.697933 6.17429 0.713294 6.04757 0.732494ZM17.3795 3.68549C17.8826 4.20389 18.5776 4.91814 18.9309 5.27911C19.7181 6.08552 23.4315 9.91404 23.6158 10.1099L23.7502 10.2558L21.2542 10.2443C18.8004 10.2289 18.7543 10.2289 18.4778 10.1444C17.6637 9.89484 17.0339 9.38412 16.6807 8.68139C16.4464 8.2129 16.4579 8.35882 16.4349 5.42119C16.4234 3.93893 16.4272 2.72932 16.4426 2.73316C16.4541 2.74084 16.8765 3.16708 17.3795 3.68549Z" fill="#464646"/>
<path d="M0.537606 7.64477C0.353284 7.72158 0.180482 7.88286 0.0921611 8.0787L0 8.27454V11.8074C0 15.1444 0.00384005 15.3479 0.0729609 15.4938C0.161282 15.6897 0.414725 15.9201 0.602887 15.9738C0.706568 16.0046 2.49603 16.0122 6.96968 16.0046L13.1906 15.993L13.3749 15.8855C13.4747 15.8279 13.6053 15.705 13.6629 15.6205L13.7666 15.4593L13.7781 11.865L13.7858 8.2707L13.6821 8.06334C13.6091 7.9251 13.517 7.81374 13.4094 7.73694L13.2405 7.62173L6.93896 7.61405C2.84547 7.61021 0.599047 7.62173 0.537606 7.64477ZM3.3178 9.21919C3.71716 9.26911 3.93221 9.3536 4.14341 9.5456C4.53125 9.89504 4.70406 10.4672 4.61957 11.1315C4.56197 11.577 4.43525 11.8419 4.16261 12.0915C3.85925 12.368 3.60196 12.4448 2.87235 12.4717L2.30403 12.4871L2.29635 13.4471L2.28483 14.4033H1.70882H1.13281L1.12129 11.7882L1.11361 9.17311L2.0813 9.18079C2.61507 9.18463 3.17188 9.19999 3.3178 9.21919ZM7.42281 9.28831C7.82601 9.39584 8.07178 9.53408 8.29834 9.78752C8.66698 10.1907 8.85514 10.7283 8.89738 11.5194C8.94731 12.5024 8.70922 13.3434 8.24074 13.8541C7.80297 14.3226 7.51881 14.3994 6.15559 14.3994H5.18406V11.7843V9.16543L6.15559 9.18847C6.97352 9.20383 7.16936 9.21919 7.42281 9.28831ZM12.8258 9.63776V10.0986H11.8273H10.8289V10.7706V11.4426H11.5969H12.3649V11.9034V12.3642H11.5969H10.8289V13.3895V14.4186L10.2836 14.4109C9.98028 14.4071 9.71915 14.3994 9.69611 14.3994C9.66923 14.3994 9.66155 13.5085 9.66923 11.7882L9.67691 9.17695H11.2513H12.8258V9.63776Z" fill="#005BBB"/>
<path d="M2.30469 10.8016V11.585L2.62341 11.5734C3.00358 11.5658 3.19942 11.4928 3.28006 11.3354C3.44134 11.0243 3.44518 10.552 3.29158 10.3254C3.13798 10.1027 3.04582 10.0605 2.65797 10.0374L2.30469 10.0182V10.8016Z" fill="#005BBB"/>
<path d="M6.375 11.8075V13.5278L6.63996 13.5086C7.37725 13.4549 7.65758 12.971 7.65758 11.7499C7.65758 11.124 7.61533 10.882 7.43869 10.548C7.27741 10.2408 7.08925 10.1294 6.67836 10.1064L6.375 10.0872V11.8075Z" fill="#005BBB"/>
<path d="M20.0667 16.8186C19.9823 16.8609 19.8824 16.9261 19.8402 16.9607C19.6559 17.1258 19.6597 17.0413 19.6597 20.9467V24.6139L18.2888 24.6216L16.9141 24.6331L17.5093 25.2859C17.8357 25.643 18.285 26.1346 18.5077 26.3803C19.9093 27.9317 23.1733 31.5068 23.1964 31.5183C23.2079 31.526 23.2693 31.4722 23.3269 31.4031C23.3845 31.334 23.5036 31.1996 23.5919 31.1036C23.7493 30.9308 26.7369 27.6514 28.534 25.6738L29.4749 24.6331L28.1001 24.6216L26.7254 24.6139V20.8967C26.7254 17.2986 26.7215 17.1796 26.6524 17.0721C26.6102 17.0106 26.5027 16.9108 26.4143 16.8493L26.2531 16.7418H23.2348C20.3202 16.7457 20.2127 16.7457 20.0667 16.8186Z" fill="#005BBB"/>
<path d="M3.0332 21.3383C3.0332 24.2414 3.04856 25.9502 3.0716 26.1115C3.20217 26.9371 3.70521 27.7896 4.35802 28.2888C4.68826 28.5461 5.29499 28.8456 5.70203 28.9608L6.00924 29.0492L12.952 29.0607L19.8987 29.0684L19.7297 28.8802C19.6414 28.7765 19.3073 28.404 18.9886 28.0584L18.4126 27.421L12.4029 27.4171C5.77884 27.4171 6.14364 27.4287 5.66747 27.1752C5.38715 27.0255 5.04923 26.6991 4.90715 26.4341C4.67674 26.004 4.68442 26.2037 4.68442 21.3038V16.8186H3.85881H3.0332V21.3383Z" fill="#464646"/>
</svg>
