<svg width="26" height="25" viewBox="0 0 26 25" fill="none" xmlns="http://www.w3.org/2000/svg">
<mask id="mask0_340_99720" style="mask-type:luminance" maskUnits="userSpaceOnUse" x="0" y="0" width="26" height="25">
<path d="M0 0.816406H25.0103V24.0436H0V0.816406Z" fill="white"/>
</mask>
<g mask="url(#mask0_340_99720)">
<path d="M24.6831 11.8005L20.2287 7.34881C19.8804 7.00052 19.3172 7.00052 18.969 7.34881C18.6207 7.6968 18.6207 8.25937 18.969 8.60765L21.9025 11.5397H8.90848C8.41593 11.5397 8.01754 11.9375 8.01754 12.4301C8.01754 12.9223 8.41593 13.3204 8.90848 13.3204H21.9025L18.969 16.2525C18.6207 16.6004 18.6207 17.1633 18.969 17.5113C19.1428 17.6851 19.3707 17.7724 19.5988 17.7724C19.827 17.7724 20.0549 17.6851 20.2287 17.5113L24.6831 13.0596C25.0314 12.7113 25.0314 12.1488 24.6831 11.8005ZM16.0354 15.9914C15.5428 15.9914 15.1444 16.3895 15.1444 16.882V19.553C15.1444 21.0259 13.9454 22.224 12.4719 22.224H4.45409C2.98066 22.224 1.78157 21.0259 1.78157 19.553V5.30708C1.78157 3.83425 2.98066 2.63577 4.45409 2.63577H12.4719C13.9454 2.63577 15.1444 3.83425 15.1444 5.30708V7.97808C15.1444 8.47063 15.5428 8.86841 16.0354 8.86841C16.5279 8.86841 16.9263 8.47063 16.9263 7.97808V5.30708C16.9263 2.85217 14.928 0.855103 12.4719 0.855103H4.45409C1.99797 0.855103 0 2.85217 0 5.30708V19.553C0 22.0079 1.99797 24.005 4.45409 24.005H12.4719C14.928 24.005 16.9263 22.0079 16.9263 19.553V16.882C16.9263 16.3895 16.5279 15.9914 16.0354 15.9914Z" fill="#464646"/>
</g>
</svg>
