<svg width="25" height="26" viewBox="0 0 25 26" fill="none" xmlns="http://www.w3.org/2000/svg">
<path d="M21.3376 4.16127C21.6277 4.45063 21.9027 4.75336 22.1628 5.06948C22.4212 5.38727 22.6645 5.71509 22.8929 6.05463C23.1196 6.39583 23.3297 6.74707 23.523 7.10835C23.7164 7.46795 23.8914 7.83759 24.0481 8.21559C24.2048 8.59527 24.3415 8.97996 24.4616 9.37135C24.5799 9.76273 24.6799 10.1591 24.7583 10.5605C24.8383 10.962 24.8983 11.3667 24.9383 11.7748C24.98 12.1813 25 12.5911 25 12.9992C25 13.4089 24.98 13.8171 24.94 14.2252C24.8983 14.6316 24.8383 15.0364 24.76 15.4378C24.6799 15.8392 24.5799 16.2373 24.4616 16.6287C24.3415 17.02 24.2048 17.4047 24.0481 17.7827C23.8914 18.1607 23.7164 18.5304 23.523 18.8917C23.3313 19.2529 23.1196 19.6042 22.8929 19.9437C22.6662 20.2849 22.4212 20.6127 22.1628 20.9288C21.9027 21.2466 21.6277 21.5494 21.3393 21.8387C21.0492 22.1281 20.7458 22.4024 20.4291 22.6616C20.114 22.9226 19.784 23.1651 19.4439 23.3926C19.1038 23.62 18.7538 23.8308 18.392 24.0231C18.0319 24.2171 17.6619 24.3911 17.2835 24.5483C16.905 24.7055 16.52 24.8427 16.1282 24.9614C15.7365 25.0802 15.3397 25.1789 14.938 25.2591C14.5379 25.3394 14.1328 25.3996 13.7261 25.4398C13.3177 25.4799 12.9092 25.5 12.5008 25.5C12.0908 25.5 11.6823 25.4799 11.2756 25.4398C10.8672 25.3996 10.4638 25.3394 10.062 25.2591C9.66027 25.1789 9.26352 25.0802 8.87177 24.9614C8.48003 24.8427 8.09495 24.7055 7.71654 24.5483C7.33813 24.3911 6.96973 24.2171 6.60799 24.0231C6.24625 23.8308 5.89618 23.62 5.55611 23.3926C5.21604 23.1651 4.88764 22.9226 4.57091 22.6633C4.25418 22.4024 3.95079 22.1281 3.6624 21.8387C3.37234 21.5494 3.09729 21.2466 2.83723 20.9305C2.57885 20.6127 2.3338 20.2849 2.10709 19.9454C1.88038 19.6042 1.67033 19.2529 1.47696 18.8917C1.28359 18.532 1.10856 18.1624 0.951857 17.7844C0.795159 17.4047 0.658465 17.02 0.538441 16.6287C0.420084 16.2373 0.320064 15.8409 0.240048 15.4395C0.161699 15.038 0.101687 14.6333 0.060012 14.2252C0.020004 13.8187 0 13.4089 0 13.0008C0 12.5911 0.020004 12.1829 0.060012 11.7748C0.10002 11.3684 0.160032 10.9636 0.240048 10.5622C0.320064 10.1608 0.420084 9.76273 0.538441 9.37135C0.656798 8.97996 0.795159 8.59527 0.951857 8.21727C1.10856 7.83926 1.28359 7.46963 1.47696 7.10835C1.66867 6.74707 1.87871 6.39583 2.10709 6.0563C2.3338 5.71509 2.57718 5.38727 2.83723 5.07115C3.09729 4.75336 3.37234 4.45063 3.66073 4.16127C3.95079 3.87191 4.25418 3.59761 4.57091 3.33836C4.88598 3.07744 5.21438 2.83492 5.55611 2.60745C5.89618 2.37998 6.24625 2.16923 6.60799 1.97688C6.96806 1.78287 7.33813 1.60892 7.71654 1.4517C8.09495 1.29447 8.48003 1.15732 8.87177 1.03857C9.26352 0.919817 9.66027 0.821135 10.062 0.740851C10.4621 0.660567 10.8672 0.600355 11.2739 0.560213C11.6823 0.520071 12.0908 0.5 12.4992 0.5C12.9092 0.5 13.3177 0.520071 13.7244 0.560213C14.1328 0.600355 14.5362 0.660567 14.938 0.740851C15.3397 0.821135 15.7365 0.919817 16.1282 1.03857C16.52 1.15732 16.905 1.29447 17.2835 1.4517C17.6619 1.60892 18.0303 1.78287 18.392 1.97688C18.7538 2.16923 19.1038 2.37998 19.4439 2.60745C19.784 2.83492 20.1124 3.07744 20.4291 3.33669C20.7458 3.59761 21.0492 3.87191 21.3376 4.16127Z" fill="white"/>
<path d="M12.5127 8.64484C12.5127 8.64484 13.9809 6.61202 16.1975 6.50663C18.9686 6.37409 20.8527 8.27436 20.9913 10.4142C21.13 12.5252 19.5782 14.4271 18.3038 15.7206C16.585 17.4628 13.7872 19.5227 12.2622 20.5C10.8775 19.601 8.41039 17.4628 6.69329 15.6934C5.44555 14.4 3.89381 12.4997 4.00572 10.387C4.14436 8.24881 6.0285 6.37409 8.79958 6.50663C11.0428 6.61202 12.5127 8.64484 12.5127 8.64484Z" fill="#005BBB"/>
</svg>
