<svg width="15" height="14" viewBox="0 0 15 14" fill="none" xmlns="http://www.w3.org/2000/svg">
<path opacity="0.5" d="M13.9014 2.9015L11.7532 0.757215C11.6579 0.661792 11.5446 0.586082 11.4199 0.534425C11.2952 0.482767 11.1615 0.456177 11.0265 0.456177C10.8915 0.456177 10.7578 0.482767 10.6331 0.534425C10.5084 0.586082 10.3952 0.661792 10.2999 0.757215L1.56056 9.5316L0.852998 12.5921C0.822854 12.7405 0.826023 12.8937 0.862277 13.0407C0.898531 13.1876 0.966968 13.3248 1.06267 13.4422C1.15837 13.5596 1.27895 13.6544 1.41574 13.7198C1.55253 13.7851 1.70213 13.8194 1.85378 13.8202C1.93216 13.8288 2.01125 13.8288 2.08963 13.8202L5.18121 13.1393L13.9014 4.35223C13.997 4.25707 14.0728 4.14401 14.1246 4.01954C14.1763 3.89507 14.203 3.76163 14.203 3.62687C14.203 3.4921 14.1763 3.35866 14.1246 3.23419C14.0728 3.10972 13.997 2.99666 13.9014 2.9015ZM4.51828 11.9622L2.18525 12.4776L2.72707 10.1679L9.30545 3.55687L11.103 5.3512L4.51828 11.9622ZM11.8233 4.6322L10.0258 2.83787L11.0138 1.83254L12.8241 3.63959L11.8233 4.6322Z" fill="#464646"/>
</svg>
