<svg width="16" height="15" viewBox="0 0 16 15" fill="none" xmlns="http://www.w3.org/2000/svg">
<path d="M15.6122 3.90347C15.6122 8.67698 9.02363 15 4.06104 15C2.97486 15 1.96023 14.6064 1.21226 13.8878L0.561852 13.1693C-0.192618 12.4445 -0.192618 11.2199 0.594373 10.4639C0.613885 10.4452 2.18136 9.28928 2.18136 9.28928C2.96185 8.57701 4.19112 8.57701 4.9651 9.28928L5.91469 10.0203C7.99599 9.17057 9.47241 7.74602 10.422 5.67791L9.66753 4.7657C8.91957 4.02218 8.91957 2.83505 9.66753 2.09153C9.66753 2.09153 10.8708 0.585754 10.8903 0.56701C11.6773 -0.189003 12.9521 -0.189003 13.7391 0.56701L14.422 1.13558C15.2025 1.8791 15.6122 2.8538 15.6122 3.89722V3.90347Z" fill="#464646"/>
</svg>
