<svg width="23" height="22" viewBox="0 0 23 22" fill="none" xmlns="http://www.w3.org/2000/svg">
<path d="M11.5 0C17.8515 0 23 4.92465 23 11C23 17.0753 17.8515 22 11.5 22C5.1485 22 0 17.0753 0 11C0 4.92465 5.1485 0 11.5 0ZM15.467 15.4837C15.6785 14.8629 16.6695 8.67613 16.792 7.45704C16.829 7.08783 16.707 6.84248 16.468 6.73296C16.179 6.6 15.751 6.66648 15.2545 6.8377C14.5735 7.07252 5.8675 10.6083 5.3645 10.813C4.8875 11.0067 4.4365 11.2181 4.4365 11.5242C4.4365 11.7394 4.57 11.8604 4.938 11.9862C5.321 12.1167 6.2855 12.3965 6.855 12.5467C7.4035 12.6916 8.028 12.5658 8.378 12.3578C8.749 12.1373 13.0305 9.39687 13.338 9.15678C13.645 8.9167 13.89 9.22422 13.639 9.46478C13.388 9.70487 10.449 12.4333 10.0615 12.8112C9.591 13.2698 9.925 13.7452 10.2405 13.9356C10.601 14.1527 13.1935 15.8161 13.584 16.083C13.9745 16.3498 14.3705 16.4708 14.733 16.4708C15.0955 16.4708 15.2865 16.0141 15.467 15.4837Z" fill="#464646"/>
</svg>
