<svg width="33" height="32" viewBox="0 0 33 32" fill="none" xmlns="http://www.w3.org/2000/svg">
<path d="M16.4094 0.373047C25.4456 0.373047 32.7702 7.37925 32.7702 16.0225C32.7702 24.6658 25.4456 31.672 16.4094 31.672C7.37325 31.672 0.048584 24.6658 0.048584 16.0225C0.048584 7.37925 7.37325 0.373047 16.4094 0.373047ZM22.0532 22.4014C22.3541 21.5182 23.764 12.7164 23.9382 10.982C23.9909 10.4568 23.8173 10.1077 23.4773 9.95189C23.0661 9.76274 22.4572 9.85732 21.7509 10.1009C20.782 10.435 8.39616 15.4653 7.68055 15.7565C7.00193 16.0321 6.36031 16.3328 6.36031 16.7683C6.36031 17.0744 6.55023 17.2466 7.07378 17.4255C7.61867 17.6113 8.99084 18.0093 9.80106 18.223C10.5814 18.4291 11.4699 18.2502 11.9678 17.9542C12.4956 17.6406 18.5868 13.7418 19.0243 13.4002C19.4611 13.0587 19.8096 13.4962 19.4525 13.8384C19.0954 14.18 14.9142 18.0617 14.3629 18.5993C13.6935 19.2518 14.1687 19.9281 14.6175 20.1989C15.1304 20.5078 18.8187 22.8743 19.3743 23.254C19.9298 23.6336 20.4932 23.8058 21.0089 23.8058C21.5247 23.8058 21.7964 23.156 22.0532 22.4014Z" fill="white"/>
</svg>
