<svg width="17" height="16" viewBox="0 0 17 16" fill="none" xmlns="http://www.w3.org/2000/svg">
<g clip-path="url(#clip0_307_38832)">
<path d="M12.4011 10.3441C13.3694 9.02279 13.8031 7.38459 13.6154 5.75725C13.4277 4.12991 12.6325 2.63344 11.3889 1.56723C10.1452 0.501022 8.54485 -0.0562959 6.90794 0.00677721C5.27102 0.0698504 3.71829 0.748663 2.56037 1.90741C1.40245 3.06615 0.724751 4.61938 0.66285 6.25633C0.600948 7.89329 1.15941 9.49326 2.22651 10.7361C3.29361 11.979 4.79065 12.7732 6.41812 12.9597C8.04559 13.1462 9.68348 12.7113 11.0041 11.7421H11.0031C11.0331 11.7821 11.0651 11.8201 11.1011 11.8571L14.9511 15.7071C15.1386 15.8947 15.393 16.0002 15.6582 16.0003C15.9235 16.0004 16.178 15.8951 16.3656 15.7076C16.5532 15.5201 16.6587 15.2657 16.6588 15.0005C16.6589 14.7352 16.5536 14.4807 16.3661 14.2931L12.5161 10.4431C12.4803 10.4069 12.4419 10.3735 12.4011 10.3431V10.3441ZM12.6591 6.5001C12.6591 7.22237 12.5168 7.93757 12.2404 8.60486C11.964 9.27215 11.5589 9.87847 11.0482 10.3892C10.5375 10.8999 9.93115 11.305 9.26386 11.5814C8.59657 11.8578 7.88137 12.0001 7.1591 12.0001C6.43683 12.0001 5.72163 11.8578 5.05434 11.5814C4.38705 11.305 3.78074 10.8999 3.27001 10.3892C2.75929 9.87847 2.35416 9.27215 2.07776 8.60486C1.80136 7.93757 1.6591 7.22237 1.6591 6.5001C1.6591 5.04141 2.23856 3.64246 3.27001 2.61101C4.30146 1.57956 5.70041 1.0001 7.1591 1.0001C8.61779 1.0001 10.0167 1.57956 11.0482 2.61101C12.0796 3.64246 12.6591 5.04141 12.6591 6.5001Z" fill="#212529"/>
</g>
<defs>
<clipPath id="clip0_307_38832">
<rect width="16" height="16" fill="white" transform="translate(0.65918)"/>
</clipPath>
</defs>
</svg>
