<svg width="14" height="16" viewBox="0 0 14 16" fill="none" xmlns="http://www.w3.org/2000/svg">
<path d="M0.343551 15.7368C0.0678487 15.6223 -0.0051312 15.427 0.000274717 15.163C0.0543339 12.6132 2.23427 10.3456 5.04805 9.93447C5.40079 9.88504 5.75623 9.85852 6.11302 9.8549C6.74551 9.84164 7.37936 9.83441 8.0105 9.8549C10.4067 9.93326 12.1622 10.9483 13.311 12.8097C13.7624 13.5427 13.9611 14.342 13.9989 15.1775C14.0111 15.4367 13.9232 15.6247 13.6556 15.7368H0.343551Z" fill="#005BBB"/>
<path d="M7.32654 0.263153C7.633 0.329655 7.94728 0.370078 8.2446 0.466571C10.0077 1.03249 11.1853 2.77067 11.0405 4.57405C10.8879 6.49217 9.50955 8.01259 7.64604 8.31641C7.37349 8.36075 7.09833 8.37639 6.82317 8.36466C6.54671 8.35292 6.27547 8.3125 6.00683 8.24469C5.73949 8.17819 5.48129 8.08431 5.23221 7.96304C4.98444 7.84307 4.75101 7.69833 4.53193 7.53012C4.31285 7.36191 4.11202 7.17284 3.93206 6.9642C3.7521 6.75557 3.59431 6.52999 3.45999 6.28875C3.32567 6.04752 3.21743 5.79455 3.13397 5.53115C3.05181 5.26775 2.99574 4.99783 2.96835 4.7227C2.74275 2.5164 4.35327 0.523945 6.55062 0.289232C6.58974 0.282713 6.62887 0.273585 6.66668 0.263153H7.32654Z" fill="#005BBB"/>
</svg>
