<svg width="17" height="17" viewBox="0 0 17 17" fill="none" xmlns="http://www.w3.org/2000/svg">
<path d="M7.94261 0.593153C5.55682 0.763298 3.40086 1.96523 1.98033 3.91318C1.25802 4.90133 0.765546 6.0989 0.561987 7.35318C0.474436 7.9007 0.452548 8.79287 0.511645 9.39493C0.70207 11.3407 1.64106 13.2036 3.09005 14.5058C4.39457 15.6794 5.96613 16.3796 7.69965 16.5629C8.02359 16.5956 8.99542 16.5956 9.31936 16.5629C10.4794 16.4407 11.6307 16.0612 12.6026 15.4831C13.1804 15.1384 13.616 14.8025 14.1106 14.3226C15.4546 13.016 16.2469 11.4258 16.492 9.54544C16.5468 9.11571 16.5468 8.06212 16.492 7.62584C16.2972 6.11198 15.7303 4.76609 14.7826 3.57943C14.5243 3.25441 13.883 2.61091 13.5766 2.3666C12.8192 1.76454 12.0597 1.34354 11.1601 1.02288C10.1686 0.671681 9.00855 0.516806 7.94261 0.593153ZM8.81594 2.20517C9.80965 2.2728 10.672 2.51275 11.4666 2.94465C13.3402 3.96117 14.5769 5.81314 14.7717 7.88325C14.8132 8.33697 14.787 9.12007 14.7169 9.53017C14.6162 10.0973 14.4587 10.6121 14.2332 11.1051C14.0997 11.3909 13.8939 11.7639 13.8611 11.7748C13.8348 11.7835 13.106 11.1575 13.106 11.1291C13.106 11.1182 13.1498 11.0288 13.2023 10.9284C13.419 10.5205 13.616 9.94681 13.7079 9.45818C14.0581 7.57131 13.3511 5.63645 11.8649 4.41489C11.0726 3.76484 10.1227 3.35475 9.11143 3.22823C8.82907 3.19333 8.10239 3.19333 7.82004 3.22823C6.83289 3.35257 5.88295 3.75394 5.10593 4.37562C4.67255 4.72464 4.17788 5.29179 3.88239 5.7826C3.36584 6.63769 3.09224 7.69347 3.13163 8.66199C3.17979 9.78539 3.53875 10.7997 4.19758 11.6679C4.99868 12.728 6.13466 13.4392 7.437 13.6987C7.78502 13.7664 8.02141 13.7882 8.47011 13.7882C9.15958 13.7882 9.72648 13.6878 10.359 13.4522C10.5473 13.3803 10.8953 13.2188 10.8953 13.2014C10.8931 13.1948 10.753 13.016 10.5801 12.8066C10.4072 12.5972 10.2715 12.4183 10.2802 12.4096C10.2868 12.4008 10.5407 12.3638 10.8406 12.3267C11.3987 12.2612 12.5259 12.1238 12.8214 12.0889C12.9112 12.078 12.9878 12.0714 12.9922 12.0758C13.0075 12.0911 12.2151 14.7589 12.1954 14.7589C12.1801 14.7589 11.7205 14.2157 11.5979 14.0521L11.5607 14.0019L11.3309 14.1154C10.6917 14.436 9.95192 14.6607 9.23181 14.7523C8.89255 14.7938 7.95793 14.7894 7.61867 14.7414C5.98145 14.5124 4.53684 13.6987 3.51249 12.4248C3.04846 11.8511 2.64353 11.1029 2.42903 10.4289C2.19264 9.68941 2.08977 8.86486 2.13792 8.12974C2.22547 6.80784 2.66542 5.64954 3.47528 4.60467C3.68321 4.33636 4.23479 3.78666 4.51933 3.56198C5.54807 2.7527 6.74096 2.29679 8.06737 2.20736C8.43728 2.18118 8.46573 2.18118 8.81594 2.20517ZM7.59021 5.77606C7.76313 6.1338 8.02578 6.67259 8.17243 6.97362L8.43947 7.52332L8.58174 7.54732C8.77216 7.58004 8.88598 7.62148 9.00418 7.70219C9.0589 7.73709 9.10705 7.76763 9.11362 7.76763C9.12675 7.76763 9.37189 7.65202 10.1402 7.28337C10.4904 7.11541 11.1098 6.81874 11.5191 6.62242C11.9284 6.4261 12.3574 6.22105 12.4712 6.16652C12.585 6.1098 12.6879 6.06836 12.7011 6.0749C12.7295 6.08363 13.0184 6.66387 13.0184 6.70749C13.0184 6.72276 12.874 6.80566 12.6967 6.88855C11.425 7.49715 10.6414 7.87234 10.359 8.00758C10.1796 8.09484 9.90158 8.2279 9.74399 8.30207L9.45726 8.43949L9.44412 8.61618C9.41348 9.07208 9.06108 9.44728 8.59268 9.51926C8.22277 9.57598 7.83536 9.40365 7.62742 9.09172C7.49828 8.89976 7.45232 8.72961 7.46326 8.4853C7.46983 8.28898 7.47858 8.26062 7.56395 8.08829C7.61429 7.98577 7.65588 7.89415 7.65588 7.88325C7.65588 7.87016 7.55957 7.66075 7.43919 7.41644C6.62714 5.74333 6.51551 5.50775 6.53302 5.48157C6.55272 5.45321 7.21155 5.12819 7.25314 5.12819C7.26627 5.12819 7.41949 5.42049 7.59021 5.77606Z" fill="#464646"/>
</svg>
