<svg width="13" height="5" viewBox="0 0 13 5" fill="none" xmlns="http://www.w3.org/2000/svg">
<path d="M2.62538 1.05798C2.31106 1.3811 1.91045 1.72669 1.55144 1.98238C1.26177 2.18748 0.845748 2.43333 0.583811 2.55415L0.488281 2.5977V2.93346V3.26922L0.667015 3.35632C1.00291 3.51788 1.26793 3.67944 1.62848 3.94496C2.04296 4.2484 2.36344 4.52656 2.67469 4.84968L2.81798 5H3.48053H4.14153L4.13075 4.96769C4.1061 4.89745 3.95972 4.59962 3.84262 4.38889C3.7024 4.13321 3.56989 3.91826 3.42506 3.71456L3.32491 3.57407L7.93962 3.56986L12.5528 3.56705V2.92784V2.28863L7.93654 2.28582L3.32182 2.28161L3.36497 2.22542C3.52675 2.02312 3.78253 1.61149 3.93198 1.31928C4.02597 1.13384 4.13999 0.88659 4.13999 0.866922C4.13999 0.861303 3.84262 0.855683 3.48053 0.855683H2.82106L2.62538 1.05798Z" fill="#C4C4C4"/>
</svg>
