<svg width="33" height="32" viewBox="0 0 33 32" fill="none" xmlns="http://www.w3.org/2000/svg">
<path d="M12.9825 0.743176C7.25642 1.96753 2.31343 6.96289 1.11439 12.7173C-1.21028 23.8345 8.60228 33.6538 19.7118 31.3275C26.7347 29.8583 32.0692 23.2713 32.0692 16.0231C32.0692 10.2442 28.5945 4.61213 23.5047 2.08996C20.1033 0.424845 16.5551 -0.040411 12.9825 0.743176ZM22.5993 7.67301C24.9973 8.84839 25.5602 10.7584 25.4133 17.0026C25.3154 20.6267 25.242 21.1899 24.7526 22.2428C23.6025 24.6181 21.5226 25.2057 15.1603 25.0343C11.8324 24.9364 11.2206 24.8629 10.1928 24.3732C7.8437 23.2223 7.23195 21.1654 7.40324 14.7987C7.47665 11.444 7.55006 10.8563 8.06394 9.82787C8.72463 8.4566 9.94814 7.55058 11.5387 7.20776C12.126 7.08532 14.5975 7.01186 17.02 7.03635C21.0821 7.08532 21.5226 7.1343 22.5993 7.67301Z" fill="white"/>
<path d="M11.0494 9.11767C10.5845 9.33806 9.97274 9.85229 9.70357 10.2196C9.21417 10.8807 9.1897 11.248 9.1897 16.023C9.1897 20.798 9.21417 21.1653 9.70357 21.8265C10.7069 23.1977 11.4165 23.3691 16.4084 23.3691C21.4003 23.3691 22.11 23.1977 23.1133 21.8265C23.6027 21.1653 23.6271 20.798 23.6271 16.023C23.6271 11.248 23.6027 10.8807 23.1133 10.2196C22.11 8.84832 21.4003 8.67691 16.4084 8.67691C12.5911 8.67691 11.7591 8.75037 11.0494 9.11767ZM22.0366 10.5134C22.2079 10.7093 22.2813 11.1256 22.1834 11.4684C21.9876 12.2765 21.1556 12.5214 20.5439 11.9582C19.9811 11.4439 19.9566 11.0522 20.4705 10.5379C20.9599 10.0482 21.645 10.0482 22.0366 10.5134ZM18.0724 11.7378C21.9876 13.3784 21.9876 18.6676 18.0724 20.3083C16.9223 20.7735 15.8945 20.7735 14.7444 20.3083C10.9026 18.6921 10.8047 13.5743 14.5731 11.8357C15.7722 11.2725 16.8733 11.248 18.0724 11.7378Z" fill="white"/>
<path d="M14.8911 13.4766C13.0069 14.4805 13.0559 17.6149 14.9401 18.5944C16.9956 19.6473 19.3447 18.276 19.3447 16.0232C19.3447 13.7704 16.9222 12.3747 14.8911 13.4766Z" fill="white"/>
</svg>
