<svg width="21" height="21" viewBox="0 0 21 21" fill="none" xmlns="http://www.w3.org/2000/svg">
<path d="M20.7701 6.10599C20.7701 12.4707 12.3299 20.9014 5.97259 20.9014C4.58116 20.9014 3.28138 20.3765 2.32321 19.4185L1.49002 18.4605C0.523513 17.4941 0.523513 15.8613 1.53168 14.8533C1.55667 14.8283 3.56467 13.2871 3.56467 13.2871C4.5645 12.3374 6.13923 12.3374 7.13073 13.2871L8.34719 14.2618C11.0134 13.1288 12.9048 11.2294 14.1212 8.47192L13.1547 7.25563C12.1965 6.26427 12.1965 4.68144 13.1547 3.69008C13.1547 3.69008 14.6961 1.68237 14.7211 1.65738C15.7293 0.649363 17.3623 0.649363 18.3705 1.65738L19.2454 2.41548C20.2452 3.40683 20.7701 4.70643 20.7701 6.09766V6.10599Z" fill="white"/>
</svg>
