<svg width="23" height="23" viewBox="0 0 23 23" fill="none" xmlns="http://www.w3.org/2000/svg">
<path d="M11.5 0.015625C17.8515 0.015625 23 4.94028 23 11.0156C23 17.091 17.8515 22.0156 11.5 22.0156C5.1485 22.0156 0 17.091 0 11.0156C0 4.94028 5.1485 0.015625 11.5 0.015625ZM15.467 15.4993C15.6785 14.8785 16.6695 8.69176 16.792 7.47267C16.829 7.10345 16.707 6.8581 16.468 6.74858C16.179 6.61562 15.751 6.6821 15.2545 6.85332C14.5735 7.08815 5.8675 10.6239 5.3645 10.8286C4.8875 11.0223 4.4365 11.2337 4.4365 11.5398C4.4365 11.755 4.57 11.876 4.938 12.0018C5.321 12.1324 6.2855 12.4121 6.855 12.5623C7.4035 12.7072 8.028 12.5815 8.378 12.3734C8.749 12.1529 13.0305 9.41249 13.338 9.17241C13.645 8.93232 13.89 9.23984 13.639 9.48041C13.388 9.7205 10.449 12.449 10.0615 12.8268C9.591 13.2855 9.925 13.7608 10.2405 13.9512C10.601 14.1683 13.1935 15.8317 13.584 16.0986C13.9745 16.3654 14.3705 16.4865 14.733 16.4865C15.0955 16.4865 15.2865 16.0297 15.467 15.4993Z" fill="#464646"/>
</svg>
