<svg width="16" height="11" viewBox="0 0 16 11" fill="none" xmlns="http://www.w3.org/2000/svg">
<path d="M0.20735 0.313157C0.0243941 0.517702 0 1.04711 0 5.41476C0 9.98695 0.0121971 10.2998 0.219547 10.4803C0.426897 10.6608 1.13433 10.6848 7.83052 10.6848C14.8194 10.6848 15.2219 10.6728 15.4049 10.4682C15.5879 10.2637 15.6122 9.73428 15.6122 5.36663C15.6122 0.79444 15.6 0.481606 15.3927 0.301125C15.1853 0.120644 14.4779 0.0965796 7.78173 0.0965796C0.792809 0.0965796 0.390306 0.108612 0.20735 0.313157ZM4.51291 3.91075C6.25709 5.42679 7.74514 6.65407 7.80612 6.65407C7.86711 6.65407 9.35515 5.41476 11.0993 3.91075C14.173 1.26369 14.6365 0.938826 14.7341 1.43214C14.7706 1.64872 14.234 2.17813 11.8312 4.29578C10.9896 5.04177 10.3065 5.70353 10.3065 5.77572C10.3065 5.84792 11.2701 6.61797 12.441 7.48428C13.6119 8.35059 14.5877 9.15674 14.6121 9.27706C14.7219 9.8185 14.1974 9.56583 11.9531 7.98963C10.6724 7.08722 9.59909 6.35326 9.5625 6.35326C9.52591 6.35326 9.1478 6.61797 8.7087 6.95487C8.26961 7.27973 7.86711 7.55647 7.80612 7.55647C7.74514 7.55647 7.34263 7.27973 6.90354 6.95487C6.46445 6.61797 6.07414 6.35326 6.03755 6.35326C6.00096 6.35326 4.9764 7.06316 3.7567 7.9415C1.52463 9.5177 1.03675 9.77038 1.03675 9.30112C1.03675 9.13268 1.6466 8.60326 3.17124 7.48428C4.34216 6.61797 5.30572 5.84792 5.30572 5.77572C5.30572 5.70353 4.34216 4.80113 3.17124 3.75433C2.00032 2.71957 0.987962 1.7931 0.939174 1.69685C0.792809 1.46824 0.926977 1.17947 1.15872 1.17947C1.2563 1.17947 2.76873 2.40674 4.51291 3.91075Z" fill="#464646"/>
</svg>
